<?xml version="1.0" encoding="UTF-8"?>
<svg width="228px" height="38px" viewBox="0 0 228 38" version="1.1" xmlns="http://www.w3.org/2000/svg" xmlns:xlink="http://www.w3.org/1999/xlink">
    <!-- Generator: Sketch 49.3 (51167) - http://www.bohemiancoding.com/sketch -->
    <title>banner_typeface2@2x</title>
    <desc>Created with Sketch.</desc>
    <defs>
        <linearGradient x1="50%" y1="29.3585232%" x2="50%" y2="139.227589%" id="linearGradient-1">
            <stop stop-color="#FFF9F9" offset="0%"></stop>
            <stop stop-color="#C00000" offset="100%"></stop>
        </linearGradient>
    </defs>
    <g id="banner_typeface2" stroke="none" stroke-width="1" fill="none" fill-rule="evenodd">
        <g id="Page-1">
            <g transform="translate(3.081081, 3.166667)" fill="#000000" fill-opacity="0.12">
                <path d="M138.348194,13.9409771 L138.34445,13.9623177 L134.456777,13.9623177 L136.09509,4.39244721 L134.123862,4.39244721 C134.171519,5.2715274 134.730843,16.6970907 131.976198,22.8986855 C129.11012,29.3511531 125.698122,34.3072093 125.698122,34.3072093 C125.698122,34.3072093 127.626037,29.4973155 129.064535,21.9633582 C129.950049,17.3262112 129.194014,6.02073593 129.078735,4.39244721 L127.899707,4.39244721 L127.899707,3.3914731 L136.266452,3.3914731 L136.601284,1.43561794 L140.411258,2.18185985 L139.047552,9.95475485 L145.442045,9.95475485 L144.487614,12.6284956 L144.505629,12.6320239 L144.320783,13.0958555 L144.019105,13.9409771 L143.983987,13.9409771 L139.777465,24.49639 L144.64593,29.6784615 L140.107972,33.535915 L138.114283,28.6698062 L135.979455,34.0267234 L132.169481,33.2804815 L136.032164,23.5878636 L133.795776,18.1293861 L136.893462,21.4266121 L139.876623,13.9409771 L138.348194,13.9409771 Z M151.686247,16.5359913 L151.686247,28.7510736 L169.796314,28.7510736 L169.796314,32.7372959 L147.823319,32.7372959 L147.823319,31.8087017 L147.80776,31.8087017 L147.80776,16.5359913 L146.340055,16.5359913 L146.340055,12.549769 L151.686247,12.549769 L151.686247,16.5359913 Z M62.3483978,15.3961489 L62.3483978,15.3941851 L66.2268843,15.3941851 L66.2268843,28.260125 L78.8804843,28.260125 L78.8804843,32.2463473 L66.2268843,32.2463473 L66.2268843,32.2645825 L62.3483978,32.2645825 L62.3483978,16.397123 L60.4333115,16.397123 L60.4333115,15.3961489 L62.3483978,15.3961489 Z M9.03033082,15.3961489 L9.03033082,15.3941851 L12.9088174,15.3941851 L12.9088174,28.260125 L25.5621443,28.260125 L25.5621443,32.2463473 L12.9088174,32.2463473 L12.9088174,32.2645825 L9.03033082,32.2645825 L9.03033082,16.397123 L7.11524449,16.397123 L7.11524449,15.3961489 L9.03033082,15.3961489 Z M214.515816,26.917006 L209.496551,29.8187326 L214.112642,24.8410912 L212.591466,17.0086634 L208.218553,18.0666288 L207.995272,17.0920257 L212.400661,16.026223 L211.28174,10.264979 L208.634844,10.7712726 L208.456601,9.78713097 L211.091067,9.28321514 L209.532199,1.25671626 L214.287433,0.280710396 L214.288798,0.280710396 L215.854328,8.3721073 L221.464503,7.29900334 L221.642746,8.28314492 L216.044306,9.35400415 L217.114598,14.8857731 L222.631652,13.5510237 L222.85466,14.5256268 L217.304709,15.86836 L218.190067,20.4443067 L220.597009,17.848844 L224.054592,21.4024704 L218.946786,24.3553838 L219.430707,26.856514 L224.714281,26.837917 L215.75219,33.0449103 L215.533613,31.6971408 L215.455974,31.7578113 L214.515816,26.917006 Z M206.021908,27.7227893 L209.815095,27.3638492 L200.989484,32.5538775 L199.192589,28.3690314 L201.171412,28.1817802 L201.171412,20.8742939 L198.186596,20.8742939 L198.186596,19.8733198 L201.171412,19.8733198 L201.171412,12.9021299 L199.145728,12.9021299 L196.849502,16.2590121 L200.9439,0.455235619 L207.404041,0.8291982 L203.860345,6.00977225 L209.553736,6.00977225 L209.553736,7.01074636 L203.175643,7.01074636 L199.83043,11.9011557 L208.33961,11.9011557 L208.33961,12.9021299 L206.021908,12.9021299 L206.021908,19.8733198 L208.893992,19.8733198 L208.893992,20.8742939 L206.021908,20.8742939 L206.021908,27.7227893 Z M67.1481239,11.8309111 L65.510392,14.2251943 L67.1008452,8.08606412 L64.4594693,8.08606412 L64.4594693,7.08509001 L67.3601657,7.08509001 L68.6428793,2.13383105 L73.5853634,2.41998396 L70.3943488,7.08509001 L77.9095661,7.08509001 L77.9095661,8.08606412 L69.709665,8.08606412 L68.5156899,9.83159689 L70.8494595,9.83159689 L70.8494595,11.5036276 L73.1076563,11.5036276 L73.1076563,10.3952059 L76.8089919,10.3952059 L76.8089919,27.5068695 L73.1076563,27.5068695 L73.1076563,27.4771321 L72.0068092,27.4771321 L72.0068092,24.1748714 L73.1076563,24.1748714 L73.1076563,21.6222191 L70.8494595,21.6222191 L70.8494595,27.5068695 L67.1481239,27.5068695 L67.1481239,11.8309111 Z M59.2286953,24.7081818 L57.1965535,24.7081818 L57.1965535,34.368087 L53.318067,34.368087 L53.318067,3.30731048 L57.1965535,3.30731048 L57.1965535,4.63034689 L58.8868138,4.63034689 L59.0626163,3.10133649 L62.6353878,2.81546412 L57.9762417,13.2411074 L62.2235187,23.3661247 L59.2550803,24.9441738 L59.2286953,24.7081818 Z M59.1167821,23.7072077 L57.9525532,13.2941145 L57.8692358,13.4805515 L58.7717239,5.631321 L57.1965535,5.631321 L57.1965535,23.7072077 L59.1167821,23.7072077 Z M93.5228697,29.7562559 L101.711665,29.7562559 L101.711665,27.8157464 L105.590152,27.8157464 L105.590152,33.731537 L105.536106,33.731537 L105.536106,33.7424782 L89.6716791,33.7424782 L89.6716791,33.6569128 L89.6443831,33.6569128 L89.6443831,11.3473657 L87.5483244,11.3473657 L87.5483244,10.3463916 L89.6443831,10.3463916 L89.6443831,5.96628823 L93.5228697,5.96628823 L93.5228697,10.3463916 L94.8079646,10.3463916 L94.8079646,2.11416505 L98.6864512,2.11416505 L98.6864512,10.3463916 L101.154281,10.3463916 L101.154281,10.3096406 L105.032768,10.3096406 L105.032768,24.5530421 L101.154281,24.5530421 L101.154281,24.5446258 L100.104751,24.5446258 L100.104751,23.5436517 L101.154281,23.5436517 L101.154281,11.3473657 L98.6864512,11.3473657 L98.6864512,26.3765655 L94.8079646,26.3765655 L94.8079646,11.3473657 L93.5228697,11.3473657 L93.5228697,29.7562559 Z M73.1076563,12.5046017 L70.8494595,12.5046017 L70.8494595,16.1325718 L73.1076563,16.1325718 L73.1076563,12.5046017 Z M73.1076563,17.1335459 L70.8494595,17.1335459 L70.8494595,20.6212449 L73.1076563,20.6212449 L73.1076563,17.1335459 Z M82.4566678,13.6618378 L79.7452211,13.6618378 L79.7452211,12.6608637 L82.4566678,12.6608637 L82.4566678,5.49882097 L86.3351543,5.49882097 L86.3351543,12.6608637 L89.1115655,12.6608637 L89.1115655,13.6618378 L86.3351543,13.6618378 L86.3351543,26.2250936 L88.5403697,25.4180935 L88.8671026,26.3609954 L80.0434024,29.5903152 L79.7166695,28.6471328 L82.4566678,27.6444285 L82.4566678,13.6618378 Z M13.8300569,11.8305929 L12.1920521,14.2251943 L13.7826439,8.08606412 L11.1411294,8.08606412 L11.1411294,7.08509001 L14.041987,7.08509001 L15.3248123,2.13383105 L20.2672964,2.41998396 L17.076174,7.08509001 L24.5912261,7.08509001 L24.5912261,8.08606412 L16.391467,8.08606412 L15.1974515,9.83159689 L17.5313925,9.83159689 L17.5313925,11.5036276 L19.7895893,11.5036276 L19.7895893,10.3952059 L23.490925,10.3952059 L23.490925,27.5068695 L19.7895893,27.5068695 L19.7895893,27.4771321 L18.6887423,27.4771321 L18.6887423,24.1748714 L19.7895893,24.1748714 L19.7895893,21.6222191 L17.5313925,21.6222191 L17.5313925,27.5068695 L13.8300569,27.5068695 L13.8300569,11.8305929 Z M5.91049188,24.7081818 L3.87848655,24.7081818 L3.87848655,34.368087 L0,34.368087 L0,3.30731048 L3.87848655,3.30731048 L3.87848655,4.63034689 L5.56874687,4.63034689 L5.74454929,3.10133649 L9.31704785,2.81546412 L4.65810131,13.2412579 L8.90531521,23.3661247 L5.9368768,24.9441738 L5.91049188,24.7081818 Z M5.79857864,23.7072077 L4.63437607,13.2943502 L4.55116881,13.4805515 L5.45365695,5.631321 L3.87848655,5.631321 L3.87848655,23.7072077 L5.79857864,23.7072077 Z M174.694306,10.3728246 L170.645356,16.8200963 L174.739754,1.01631976 L180.335431,1.39028234 L177.9636,5.16702387 L178.572793,5.16702387 L178.572793,32.5984276 L174.694306,32.5984276 L174.694306,10.3728246 Z M158.521435,20.2356106 L156.497028,25.8442931 L152.721174,21.2153489 L158.521435,17.8031991 L158.521435,16.2686347 L157.327235,16.2686347 L157.327235,17.577644 L153.448749,17.577644 L153.448749,8.38652468 L157.327235,8.38652468 L157.327235,8.932179 L158.521435,8.932179 L158.521435,5.79515756 L152.602846,5.79515756 L152.602846,4.79418345 L158.521435,4.79418345 L158.521435,0.782431837 L163.371931,0.782431837 L163.371931,4.79418345 L169.243571,4.79418345 L169.243571,5.79515756 L163.371931,5.79515756 L163.371931,8.932179 L164.50335,8.932179 L164.50335,8.38652468 L168.381836,8.38652468 L168.381836,17.577644 L164.50335,17.577644 L164.50335,16.2686347 L163.371931,16.2686347 L163.371931,18.836975 L171.009211,22.0102648 L167.324253,26.0312744 C167.324253,26.0312744 164.783305,22.0134086 163.371931,19.8298474 L163.371931,26.9241837 L158.521435,26.9241837 L158.521435,20.2356106 Z M164.50335,9.93315311 L163.371931,9.93315311 L163.371931,15.2676606 L164.50335,15.2676606 L164.50335,9.93315311 Z M157.327235,9.93315311 L157.327235,15.2676606 L158.521435,15.2676606 L158.521435,9.93315311 L157.327235,9.93315311 Z M44.7880716,9.79709021 L44.7880716,2.6659913 L48.6665581,2.6659913 L48.6665581,9.79709021 L51.6142516,9.79709021 L51.6142516,10.7980643 L48.6665581,10.7980643 L48.6665581,33.7407949 L48.1056256,33.7407949 L48.1056256,33.7424782 L43.255129,33.7424782 L43.255129,30.4402174 L44.7880716,30.4402174 L44.7880716,10.7980643 L39.2074074,10.7980643 L39.2074074,9.79709021 L44.7880716,9.79709021 Z M33.9605731,9.51654814 L33.9605731,8.12337621 L37.8390596,8.12337621 L37.8390596,31.4097708 L33.9605731,31.4097708 L33.9605731,29.8631424 L31.4700874,29.8631424 L31.4700874,31.4097708 L27.5916008,31.4097708 L27.5916008,8.12337621 L31.4700874,8.12337621 L31.4700874,9.51654814 L33.9605731,9.51654814 Z M33.9605731,10.5175222 L31.4700874,10.5175222 L31.4700874,17.0911841 L33.9605731,17.0911841 L33.9605731,10.5175222 Z M33.9605731,18.0921582 L31.4700874,18.0921582 L31.4700874,28.8621683 L33.9605731,28.8621683 L33.9605731,18.0921582 Z M121.057695,9.46969761 L121.057695,1.06297391 L124.936181,1.06297391 L124.936181,9.46969761 L127.824097,9.46969761 L127.824097,10.4706717 L124.936181,10.4706717 L124.936181,33.1785886 L121.057695,33.1785886 L121.057695,10.4706717 L117.390752,10.4706717 L117.390752,9.46969761 L121.057695,9.46969761 Z M19.7895893,12.5046017 L17.5313925,12.5046017 L17.5313925,16.1325718 L19.7895893,16.1325718 L19.7895893,12.5046017 Z M19.7895893,17.1335459 L17.5313925,17.1335459 L17.5313925,20.6212449 L19.7895893,20.6212449 L19.7895893,17.1335459 Z M193.488684,13.3038661 L196.448387,13.3038661 L196.448387,14.3048402 L179.807663,14.3048402 L179.807663,13.3038661 L181.814191,13.3038661 L181.814191,7.5718305 L179.784734,7.5718305 L179.784734,6.57085639 L181.814191,6.57085639 L181.814191,1.33397755 L186.664687,1.33397755 L186.664687,6.57085639 L188.638187,6.57085639 L188.638187,1.33397755 L193.488684,1.33397755 L193.488684,6.57085639 L196.448387,6.57085639 L196.448387,7.5718305 L193.488684,7.5718305 L193.488684,13.3038661 Z M188.638187,13.3038661 L188.638187,7.5718305 L186.664687,7.5718305 L186.664687,13.3038661 L188.638187,13.3038661 Z M189.707098,17.9328103 L189.707098,17.137754 L194.557594,17.137754 L194.557594,32.7370154 L189.707098,32.7370154 L189.707098,31.4880421 L185.822879,31.4880421 L185.822879,33.0175574 L180.972383,33.0175574 L180.972383,17.4182961 L185.822879,17.4182961 L185.822879,17.9328103 L189.707098,17.9328103 Z M189.707098,18.9337844 L185.822879,18.9337844 L185.822879,24.2450069 L189.707098,24.2450069 L189.707098,18.9337844 Z M189.707098,25.245981 L185.822879,25.245981 L185.822879,30.487068 L189.707098,30.487068 L189.707098,25.245981 Z M144.489852,5.09582229 L152.637703,8.37367585 L149.108059,11.8891485 L144.489852,5.09582229 Z M11.9419936,11.2326801 L9.62183482,14.4589139 L8.25703555,7.16482006 L11.9419936,11.2326801 Z M39.033259,20.0697553 L41.6263776,16.773386 L44.0147763,22.8751761 L39.033259,20.0697553 Z M65.260197,11.2326801 L62.9400383,14.4589139 L61.575239,7.16482006 L65.260197,11.2326801 Z M217.071323,0.431810356 L221.848121,5.13089005 L217.276043,7.60891816 L217.071323,0.431810356 Z M117.099777,13.4068811 L120.921215,13.4068811 L115.006994,25.8441528 L117.099777,13.4068811 Z M125.834492,11.0924091 L129.041771,21.1217881 L125.834492,21.0516526 L125.834492,11.0924091 Z" id="Combined-Shape"></path>
            </g>
            <g fill="url(#linearGradient-1)">
                <polygon id="Fill-1" points="152.602846 5.79515756 169.243571 5.79515756 169.243571 4.79418345 152.602846 4.79418345"></polygon>
                <polygon id="Fill-2" points="127.899707 4.39244721 138.333051 4.39244721 138.333051 3.3914731 127.899707 3.3914731"></polygon>
                <polygon id="Fill-3" points="117.390752 10.4706717 127.824097 10.4706717 127.824097 9.46969761 117.390752 9.46969761"></polygon>
                <polygon id="Fill-4" points="2.47492699 5.631321 6.53575072 5.631321 6.53575072 4.63034689 2.47492699 4.63034689"></polygon>
                <polygon id="Fill-5" points="7.11524449 16.397123 11.1760682 16.397123 11.1760682 15.3961489 7.11524449 15.3961489"></polygon>
                <polygon id="Fill-6" points="11.1411294 8.08606412 24.5912261 8.08606412 24.5912261 7.08509001 11.1411294 7.08509001"></polygon>
                <polygon id="Fill-7" points="39.2074074 10.7980643 51.6142516 10.7980643 51.6142516 9.79709021 39.2074074 9.79709021"></polygon>
                <polygon id="Fill-8" points="28.5196643 10.5175222 37.3218007 10.5175222 37.3218007 9.51654814 28.5196643 9.51654814"></polygon>
                <polygon id="Fill-9" points="28.5196643 18.0921582 37.3218007 18.0921582 37.3218007 17.0911841 28.5196643 17.0911841"></polygon>
                <polygon id="Fill-10" points="28.5196643 29.8631424 37.3218007 29.8631424 37.3218007 28.8621683 28.5196643 28.8621683"></polygon>
                <polygon id="Fill-11" points="16.1229196 12.5046017 22.3797054 12.5046017 22.3797054 11.5036276 16.1229196 11.5036276"></polygon>
                <polygon id="Fill-12" points="16.0205597 17.1335459 22.2773454 17.1335459 22.2773454 16.1325718 16.0205597 16.1325718"></polygon>
                <polygon id="Fill-13" points="16.1911596 21.6222191 22.4479454 21.6222191 22.4479454 20.6212449 16.1911596 20.6212449"></polygon>
                <polygon id="Fill-14" points="2.24727847 24.7081818 6.3081022 24.7081818 6.3081022 23.7072077 2.24727847 23.7072077"></polygon>
                <polygon id="Fill-15" points="179.784734 7.5718305 196.448387 7.5718305 196.448387 6.57085639 179.784734 6.57085639"></polygon>
                <polygon id="Fill-16" points="221.642746 8.28314492 208.634844 10.7712726 208.456601 9.78713097 221.464503 7.29900334"></polygon>
                <polygon id="Fill-17" points="222.85466 14.5256268 208.218553 18.0666288 207.995272 17.0920257 222.631652 13.5510237"></polygon>
                <polygon id="Fill-18" points="201.348563 7.01074636 209.553736 7.01074636 209.553736 6.00977225 201.348563 6.00977225"></polygon>
                <polygon id="Fill-19" points="198.186596 20.8742939 208.893992 20.8742939 208.893992 19.8733198 198.186596 19.8733198"></polygon>
                <polygon id="Fill-20" points="199.096644 12.9021299 208.33961 12.9021299 208.33961 11.9011557 199.096644 11.9011557"></polygon>
                <polygon id="Fill-21" points="179.807663 14.3048402 196.448387 14.3048402 196.448387 13.3038661 179.807663 13.3038661"></polygon>
                <polygon id="Fill-22" points="181.991342 18.9337844 192.438061 18.9337844 192.438061 17.9328103 181.991342 17.9328103"></polygon>
                <polygon id="Fill-23" points="181.991342 25.245981 192.438061 25.245981 192.438061 24.2450069 181.991342 24.2450069"></polygon>
                <polygon id="Fill-24" points="181.991342 31.4880421 192.438061 31.4880421 192.438061 30.487068 181.991342 30.487068"></polygon>
                <polygon id="Fill-25" points="154.740941 9.93315311 166.382951 9.93315311 166.382951 8.932179 154.740941 8.932179"></polygon>
                <polygon id="Fill-26" points="154.740941 16.2686347 166.382951 16.2686347 166.382951 15.2676606 154.740941 15.2676606"></polygon>
                <polygon id="Fill-27" points="158.521435 26.9241837 163.371931 26.9241837 163.371931 0.782431837 158.521435 0.782431837"></polygon>
                <polygon id="Fill-28" points="214.287433 0.280710396 209.532199 1.25671626 215.455974 31.7578113 219.732436 28.4159942 214.288798 0.280710396"></polygon>
                <polygon id="Fill-29" points="181.814191 13.8475566 186.664687 13.8475566 186.664687 1.33397755 181.814191 1.33397755"></polygon>
                <polygon id="Fill-30" points="180.972383 33.0175574 185.822879 33.0175574 185.822879 17.4182961 180.972383 17.4182961"></polygon>
                <polygon id="Fill-31" points="189.707098 32.7370154 194.557594 32.7370154 194.557594 17.137754 189.707098 17.137754"></polygon>
                <polygon id="Fill-56" points="43.255129 33.7424782 48.1056256 33.7424782 48.1056256 30.4402174 43.255129 30.4402174"></polygon>
                <polygon id="Fill-32" points="201.171412 28.4455633 206.021908 28.4455633 206.021908 12.2984033 201.171412 12.2984033"></polygon>
                <polygon id="Fill-33" points="188.638187 13.8475566 193.488684 13.8475566 193.488684 1.33397755 188.638187 1.33397755"></polygon>
                <polygon id="Fill-35" points="13.8300569 27.5068695 17.5313925 27.5068695 17.5313925 9.83159689 13.8300569 9.83159689"></polygon>
                <polygon id="Fill-36" points="19.7895893 27.5068695 23.490925 27.5068695 23.490925 10.3952059 19.7895893 10.3952059"></polygon>
                <polygon id="Fill-37" points="121.057695 33.1785886 124.936181 33.1785886 124.936181 1.06297391 121.057695 1.06297391"></polygon>
                <polygon id="Fill-39" points="27.5916008 31.4097708 31.4700874 31.4097708 31.4700874 8.12337621 27.5916008 8.12337621"></polygon>
                <polygon id="Fill-40" points="33.9605731 31.4097708 37.8390596 31.4097708 37.8390596 8.12337621 33.9605731 8.12337621"></polygon>
                <polygon id="Fill-41" points="44.7880716 33.7407949 48.6665581 33.7407949 48.6665581 2.6659913 44.7880716 2.6659913"></polygon>
                <polygon id="Fill-42" points="86.3351543 26.3764814 82.4566678 28.2289007 82.4566678 5.49882097 86.3351543 5.49882097"></polygon>
                <polygon id="Fill-43" points="94.8079646 26.3765655 98.6864512 26.3765655 98.6864512 2.11416505 94.8079646 2.11416505"></polygon>
                <polygon id="Fill-44" points="101.154281 24.5530421 105.032768 24.5530421 105.032768 10.3096406 101.154281 10.3096406"></polygon>
                <polygon id="Fill-45" points="89.6443831 33.6569128 93.5228697 33.6569128 93.5228697 5.96628823 89.6443831 5.96628823"></polygon>
                <polygon id="Fill-46" points="0 34.368087 3.87848655 34.368087 3.87848655 3.30731048 0 3.30731048"></polygon>
                <polygon id="Fill-48" points="135.979455 34.0267234 132.169481 33.2804815 140.695655 11.885782 144.505629 12.6320239"></polygon>
                <polygon id="Fill-49" points="174.694306 32.5984276 178.572793 32.5984276 178.572793 5.16702387 174.694306 5.16702387"></polygon>
                <polygon id="Fill-50" points="153.448749 17.577644 157.327235 17.577644 157.327235 8.38652468 153.448749 8.38652468"></polygon>
                <polygon id="Fill-51" points="164.50335 17.577644 168.381836 17.577644 168.381836 8.38652468 164.50335 8.38652468"></polygon>
                <polygon id="Fill-52" points="146.340055 16.5359913 151.686247 16.5359913 151.686247 12.549769 146.340055 12.549769"></polygon>
                <polygon id="Fill-53" points="147.823319 32.7372959 169.796314 32.7372959 169.796314 28.7510736 147.823319 28.7510736"></polygon>
                <polygon id="Fill-54" points="9.05735384 32.2463473 25.5621443 32.2463473 25.5621443 28.260125 9.05735384 28.260125"></polygon>
                <polygon id="Fill-55" points="18.6887423 27.4771321 22.7189945 27.4771321 22.7189945 24.1748714 18.6887423 24.1748714"></polygon>
                <polygon id="Fill-57" points="135.608393 13.9409771 135.608393 9.95475485 145.442045 9.95475485 144.019105 13.9409771"></polygon>
                <polygon id="Fill-58" points="214.751246 26.8729847 215.75219 33.0449103 224.714281 26.837917"></polygon>
                <polygon id="Fill-59" points="144.489852 5.09582229 149.108059 11.8891485 152.637703 8.37367585"></polygon>
                <path d="M162.45656,18.4566384 C162.59304,18.5500589 167.324253,26.0312744 167.324253,26.0312744 L171.009211,22.0102648 L162.45656,18.4566384 Z" id="Fill-60"></path>
                <polygon id="Fill-62" points="159.636066 17.1474889 152.721174 21.2153489 156.497028 25.8442931"></polygon>
                <polygon id="Fill-64" points="174.739754 1.01631976 180.335431 1.39028234 170.645356 16.8200963"></polygon>
                <polygon id="Fill-66" points="5.74454929 3.10133649 9.31704785 2.81546412 4.55116881 13.4805515"></polygon>
                <polygon id="Fill-68" points="8.90531521 23.3661247 5.9368768 24.9441738 4.61766183 13.1448549"></polygon>
                <polygon id="Fill-70" points="11.9419936 11.2326801 9.62183482 14.4589139 8.25703555 7.16482006"></polygon>
                <polygon id="Fill-72" points="39.033259 20.0697553 41.6263776 16.773386 44.0147763 22.8751761"></polygon>
                <polygon id="Fill-74" points="200.9439 0.455235619 207.404041 0.8291982 196.849502 16.2590121"></polygon>
                <polygon id="Fill-76" points="15.3248123 2.13383105 20.2672964 2.41998396 12.1920521 14.2251943"></polygon>
                <polygon id="Fill-78" points="55.792994 5.631321 59.8538177 5.631321 59.8538177 4.63034689 55.792994 4.63034689"></polygon>
                <polygon id="Fill-80" points="60.4333115 16.397123 64.4941352 16.397123 64.4941352 15.3961489 60.4333115 15.3961489"></polygon>
                <polygon id="Fill-81" points="64.4594693 8.08606412 77.9095661 8.08606412 77.9095661 7.08509001 64.4594693 7.08509001"></polygon>
                <polygon id="Fill-82" points="88.8671026 26.3609954 80.0434024 29.5903152 79.7166695 28.6471328 88.5403697 25.4180935"></polygon>
                <polygon id="Fill-83" points="79.7452211 13.6618378 89.1115655 13.6618378 89.1115655 12.6608637 79.7452211 12.6608637"></polygon>
                <polygon id="Fill-84" points="87.5483244 11.3473657 103.919637 11.3473657 103.919637 10.3463916 87.5483244 10.3463916"></polygon>
                <polygon id="Fill-85" points="100.104751 24.5446258 104.887553 24.5446258 104.887553 23.5436517 100.104751 23.5436517"></polygon>
                <polygon id="Fill-86" points="69.4409866 12.5046017 75.6977724 12.5046017 75.6977724 11.5036276 69.4409866 11.5036276"></polygon>
                <polygon id="Fill-87" points="69.3386267 17.1335459 75.5954124 17.1335459 75.5954124 16.1325718 69.3386267 16.1325718"></polygon>
                <polygon id="Fill-88" points="69.5092266 21.6222191 75.7660123 21.6222191 75.7660123 20.6212449 69.5092266 20.6212449"></polygon>
                <polygon id="Fill-89" points="55.5656184 24.7081818 59.6264421 24.7081818 59.6264421 23.7072077 55.5656184 23.7072077"></polygon>
                <polygon id="Fill-90" points="67.1481239 27.5068695 70.8494595 27.5068695 70.8494595 9.83159689 67.1481239 9.83159689"></polygon>
                <polygon id="Fill-91" points="73.1076563 27.5068695 76.8089919 27.5068695 76.8089919 10.3952059 73.1076563 10.3952059"></polygon>
                <polygon id="Fill-93" points="101.711665 33.731537 105.590152 33.731537 105.590152 27.8157464 101.711665 27.8157464"></polygon>
                <polygon id="Fill-94" points="53.318067 34.368087 57.1965535 34.368087 57.1965535 3.30731048 53.318067 3.30731048"></polygon>
                <polygon id="Fill-95" points="62.3756938 32.2463473 78.8804843 32.2463473 78.8804843 28.260125 62.3756938 28.260125"></polygon>
                <polygon id="Fill-96" points="89.6716791 33.7424782 105.536106 33.7424782 105.536106 29.7562559 89.6716791 29.7562559"></polygon>
                <polygon id="Fill-97" points="72.0068092 27.4771321 76.0370615 27.4771321 76.0370615 24.1748714 72.0068092 24.1748714"></polygon>
                <polygon id="Fill-98" points="59.0626163 3.10133649 62.6353878 2.81546412 57.8692358 13.4805515"></polygon>
                <polygon id="Fill-99" points="62.2235187 23.3661247 59.2550803 24.9441738 57.9358653 13.1448549"></polygon>
                <polygon id="Fill-100" points="65.260197 11.2326801 62.9400383 14.4589139 61.575239 7.16482006"></polygon>
                <polygon id="Fill-101" points="68.6428793 2.13383105 73.5853634 2.41998396 65.510392 14.2251943"></polygon>
                <polygon id="Fill-102" points="200.989484 32.5538775 209.815095 27.3638492 199.192589 28.3690314"></polygon>
                <polygon id="Fill-103" points="220.597009 17.848844 224.054592 21.4024704 209.496551 29.8187326"></polygon>
                <polygon id="Fill-104" points="217.071323 0.431810356 217.276043 7.60891816 221.848121 5.13089005"></polygon>
                <path d="M134.120844,4.33858313 C134.120844,4.33858313 134.842277,16.4462178 131.976198,22.8986855 C129.11012,29.3511531 125.698122,34.3072093 125.698122,34.3072093 C125.698122,34.3072093 127.626037,29.4973155 129.064535,21.9633582 C130.019895,16.9604515 129.064535,4.19578722 129.064535,4.19578722 L134.120844,4.33858313 Z" id="Fill-105"></path>
                <polygon id="Fill-106" points="133.795776 18.1293861 140.107972 33.535915 144.64593 29.6784615"></polygon>
                <polygon id="Fill-107" points="117.099777 13.4068811 120.921215 13.4068811 115.006994 25.8441528"></polygon>
                <polygon id="Fill-108" points="125.834492 11.0924091 129.041771 21.1217881 125.834492 21.0516526"></polygon>
                <polygon id="Fill-38" points="9.03033082 32.2645825 12.9088174 32.2645825 12.9088174 15.3941851 9.03033082 15.3941851"></polygon>
                <polygon id="Fill-92" points="62.3483978 32.2645825 66.2268843 32.2645825 66.2268843 15.3941851 62.3483978 15.3941851"></polygon>
                <polygon id="Fill-34" points="147.80776 31.8087017 151.686247 31.8087017 151.686247 12.5651988 147.80776 12.5651988"></polygon>
                <polygon id="Fill-47" points="138.34445 13.9623177 134.456777 13.9623177 136.601284 1.43561794 140.411258 2.18185985"></polygon>
            </g>
        </g>
    </g>
</svg>