<?xml version="1.0" encoding="UTF-8"?>
<svg width="312px" height="271px" viewBox="0 0 312 271" version="1.1" xmlns="http://www.w3.org/2000/svg" xmlns:xlink="http://www.w3.org/1999/xlink">
    <!-- Generator: Sketch 49.3 (51167) - http://www.bohemiancoding.com/sketch -->
    <title>banner2@2x</title>
    <desc>Created with Sketch.</desc>
    <defs>
        <linearGradient x1="93.3788319%" y1="11.6939251%" x2="16.8502463%" y2="100%" id="linearGradient-1">
            <stop stop-color="#FF8048" offset="0%"></stop>
            <stop stop-color="#FF4865" offset="100%"></stop>
        </linearGradient>
        <linearGradient x1="93.3788319%" y1="11.6939251%" x2="16.8502463%" y2="100%" id="linearGradient-2">
            <stop stop-color="#E705F4" offset="0%"></stop>
            <stop stop-color="#CB02E5" offset="100%"></stop>
        </linearGradient>
        <linearGradient x1="50%" y1="70.4992193%" x2="50%" y2="92.4002306%" id="linearGradient-3">
            <stop stop-color="#FFBA90" offset="0%"></stop>
            <stop stop-color="#FFC9A8" stop-opacity="0" offset="100%"></stop>
        </linearGradient>
        <linearGradient x1="-33.593772%" y1="139.692633%" x2="63.8385529%" y2="17.5774037%" id="linearGradient-4">
            <stop stop-color="#FFD91E" offset="0%"></stop>
            <stop stop-color="#FFA11E" offset="24.541489%"></stop>
            <stop stop-color="#FDF574" offset="100%"></stop>
        </linearGradient>
        <linearGradient x1="39.2392164%" y1="23.9407229%" x2="6.39168205%" y2="100%" id="linearGradient-5">
            <stop stop-color="#FFD100" offset="0%"></stop>
            <stop stop-color="#FFD200" stop-opacity="0" offset="100%"></stop>
        </linearGradient>
        <linearGradient x1="50%" y1="12.6170088%" x2="50%" y2="82.3574427%" id="linearGradient-6">
            <stop stop-color="#DF8019" offset="0%"></stop>
            <stop stop-color="#FFFFFF" stop-opacity="0" offset="100%"></stop>
        </linearGradient>
    </defs>
    <g id="Page-1" stroke="none" stroke-width="1" fill="none" fill-rule="evenodd">
        <g id="注册页面" transform="translate(-41.000000, -707.000000)">
            <g id="banner2" transform="translate(35.000000, 687.000000)">
                <text id="值得信赖" font-family="PingFangSC-Medium, PingFang SC" font-size="14" font-weight="400" fill="#FF7D0B">
                    <tspan x="126" y="97">值得信赖</tspan>
                </text>
                <g id="Group-13" transform="translate(88.000000, 45.000000)">
                    <g id="Page-1" transform="translate(2.280702, 3.421053)"></g>
                    <g id="Page-1" fill="#352424">
                        <path d="M46.5492476,28.4028898 L49.0342619,28.4028898 L49.0342619,29.3622633 L26.0369906,29.3622633 L26.0369906,28.4028898 L29.3123839,28.4028898 L32.7272695,13.6326235 L27.1797422,13.6326235 L27.1797422,12.6732499 L32.9490767,12.6732499 L35.0895656,3.41507959 L26.8094907,3.41507959 L26.8094907,2.455706 L48.4964964,2.455706 L48.4964964,3.41507959 L39.1790031,3.41507959 L37.0385141,12.6732499 L41.7709326,12.6732499 L41.7709326,12.6681411 L46.5492476,12.6681411 L46.5492476,28.4028898 Z M41.7709326,28.4028898 L41.7709326,13.6326235 L36.816707,13.6326235 L33.4018214,28.4028898 L41.7709326,28.4028898 Z M121.293001,13.9687269 L114.627129,13.9687269 L114.627129,24.6468669 L110.806574,24.6468669 L110.806574,12.3134848 L114.627129,12.3134848 L114.627129,13.0093533 L115.915346,13.0093533 L115.915346,8.18774811 L110.863657,8.18774811 C110.606545,11.9503401 109.960008,17.1143821 108.341807,20.6590133 C105.518538,26.8433161 103.546821,30.966364 103.546821,30.966364 C103.546821,30.966364 104.415044,27.3867281 105.832324,20.1661512 C106.773414,15.3711654 106.146111,3.36098039 106.146111,3.36098039 L111.030634,3.36098039 C111.030634,3.36098039 111.049677,4.93519775 110.922922,7.22837452 L115.915346,7.22837452 L115.915346,5.3225337 L119.735901,5.3225337 L119.735901,7.22837452 L126.897861,7.22837452 L126.897861,8.18774811 L119.735901,8.18774811 L119.735901,13.0093533 L121.293001,13.0093533 L121.293001,11.4423047 L125.113556,11.4423047 L125.113556,23.6372122 L121.293001,23.6372122 L121.293001,13.9687269 Z M60.1166366,4.94287128 L74.8674393,4.94287128 L74.8674393,5.90224488 L67.5893215,5.90224488 L67.5893215,12.001043 L74.1952325,12.001043 L74.1952325,12.9604166 L67.5893215,12.9604166 L67.5893215,21.4119387 L75.6697854,21.4119387 L75.6697854,22.3713123 L67.5893215,22.3713123 L67.5893215,31.0062124 L62.8110065,31.0062124 L62.8110065,22.3713123 L53.112944,22.3713123 L53.112944,22.3960495 L52.1535705,22.3960495 L52.1535705,20.3087128 L53.112944,20.3087128 L53.112944,21.4119387 L55.8649588,21.4119387 L55.8649588,10.5751579 L59.6855136,10.5751579 L59.6855136,12.001043 L62.8110065,12.001043 L62.8110065,5.90224488 L59.0925778,5.90224488 L54.3189369,10.3743563 L58.1171744,0.443710286 L62.4749568,2.73351564 L60.1166366,4.94287128 Z M59.6855136,21.4119387 L62.8110065,21.4119387 L62.8110065,12.9604166 L59.6855136,12.9604166 L59.6855136,21.4119387 Z M93.1498519,10.5557983 L93.1498519,1.27719298 L97.9281669,1.27719298 L97.9281669,13.1564321 L93.1498519,13.1564321 L93.1498519,11.5151719 L87.217761,11.5151719 L87.217761,12.5544037 L82.439446,12.5544037 L82.439446,1.27719298 L87.217761,1.27719298 L87.217761,1.6490578 L92.0576502,1.6490578 L92.0576502,2.60843139 L87.217761,2.60843139 L87.217761,10.5557983 L93.1498519,10.5557983 Z M95.3514637,17.2063439 L95.3514637,27.7080968 L96.6902308,27.7080968 L96.6902308,17.2063439 L95.3514637,17.2063439 Z M95.3514637,16.2469703 L96.6902308,16.2469703 L96.6902308,15.5053917 L101.468546,15.5053917 L101.468546,29.2815985 L96.6902308,29.2815985 L96.6902308,28.6674704 L95.3514637,28.6674704 L95.3514637,30.1562741 L90.5731487,30.1562741 L90.5731487,15.5056606 L95.3514637,15.5056606 L95.3514637,16.2469703 Z M84.6128251,16.2469703 L84.6128251,15.5053917 L89.3911402,15.5053917 L89.3911402,30.163265 L84.6128251,30.163265 L84.6128251,28.6674704 L83.1619339,28.6674704 L83.1619339,29.2815985 L78.3838877,29.2815985 L78.3838877,15.5053917 L83.1619339,15.5053917 L83.1619339,16.2469703 L84.6128251,16.2469703 Z M84.6128251,17.2063439 L83.1619339,17.2063439 L83.1619339,27.7080968 L84.6128251,27.7080968 L84.6128251,17.2063439 Z M9.1689012,14.5105256 L9.1689012,1.8872879 L13.9472163,1.8872879 L13.9472163,14.5105256 L22.9975402,14.5105256 L22.9975402,15.4698992 L13.9472163,15.4698992 L13.9472163,29.7325149 L9.1689012,29.7325149 L9.1689012,15.4698992 L0,15.4698992 L0,14.5105256 L9.1689012,14.5105256 Z M119.186896,15.7743551 C119.186896,15.7743551 119.276434,21.0175684 118.649131,24.6474853 C117.765313,29.761366 107.580035,31.5488984 107.580035,31.5488984 C107.580035,31.5488984 115.109827,29.5890122 115.310414,23.9752784 C115.332731,23.347975 115.288097,15.863893 115.288097,15.863893 L119.186896,15.7743551 Z M119.280656,23.6268333 L127.570579,26.7738368 L124.473857,30.7178088 L119.280656,23.6268333 Z M125.191881,0.268828957 C125.191881,0.268828957 125.415861,4.48141474 125.411827,4.45452646 C125.375259,4.21602748 111.880842,4.80353625 111.880842,4.80353625 L125.191881,0.268828957 Z" id="Combined-Shape"></path>
                    </g>
                </g>
                <polygon id="Rectangle-3-Copy-17" fill="#FF9A00" transform="translate(223.000000, 170.000000) rotate(-289.000000) translate(-223.000000, -170.000000) " points="221 168 223 168.888889 225 168 224.111111 170 225 172 223 171.111111 221 172 221.888889 170"></polygon>
                <g id="bg_icon" transform="translate(82.000000, 105.000000)">
                    <path d="M86.1743207,100.762947 C81.478229,98.4649339 70.3135742,99.3343381 65.5642871,76.5743773 C60.815,53.8144164 87.1616277,33.2061605 102.706039,23.8903117 C118.25045,14.5744628 131.679101,10.0125371 140.830133,15.1322602 C149.981164,20.2519832 146.576357,30.4384953 133.832769,32.9422559 C121.089181,35.4460165 98.8539811,34.4617321 84.2948958,50.0768404 C69.7358105,65.6919486 68.5437739,87.9040983 80.7980369,94.9430029 C88.9675456,99.6356059 96.2702129,102.654605 102.706039,104 C94.8156212,103.373973 89.3050485,102.294955 86.1743207,100.762947 Z" id="Path-42-Copy-2" fill="url(#linearGradient-1)" transform="translate(105.500000, 58.500000) rotate(23.000000) translate(-105.500000, -58.500000) "></path>
                    <path d="M69.4950036,156.238003 C66.9456141,154.987146 60.8846052,155.460381 58.3063372,143.071649 C55.7280692,130.682918 70.0309876,119.465406 78.4696556,114.394591 C86.9083235,109.323776 95.6916076,108.069473 99.1662627,109.627397 C102.640918,111.185321 103.944574,116.315252 97.0264016,117.678102 C90.1082296,119.040952 76.3784708,120.14884 68.4747113,128.648476 C60.5709519,137.148112 59.9238253,149.238658 66.576355,153.070084 C71.0113748,155.624367 74.9758083,157.267673 78.4696556,158 C74.1861473,157.65924 71.1945966,157.071908 69.4950036,156.238003 Z" id="Path-42-Copy" fill="url(#linearGradient-2)" transform="translate(80.000000, 133.500000) scale(-1, 1) rotate(-139.000000) translate(-80.000000, -133.500000) "></path>
                    <g id="Group-14" transform="translate(4.000000, 6.000000)">
                        <path d="M93.7359606,63.5400064 L115.135787,63.5400064 C114.437201,69.9532851 112.061679,76.708539 108.009219,83.805768 C103.95676,90.902997 99.1990073,96.6405251 93.7359606,101.018352" id="Path-37" stroke="#FFCD54" stroke-width="5" transform="translate(104.435874, 82.279179) rotate(39.000000) translate(-104.435874, -82.279179) "></path>
                        <path d="M28.1953387,85.4852377 C26.6971567,92.382738 27.6859861,99.4600414 31.161827,106.717148 C36.3755883,117.602808 42.6956981,126.692421 42.6956981,127.817718 C42.6956981,128.567916 41.9745949,147.706919 40.5323884,185.234727 L81.9983968,185.234727 C79.2662886,155.945612 78.3900399,137.555452 79.3696507,130.064246 C80.8390671,118.827437 89.6827904,119.589615 92.5267102,113.058138 C95.37063,106.52666 95.1701918,102.060292 97.6922539,99.3608346 C100.214316,96.661377 113.064148,84.0002582 113.064148,81.1404279 C113.064148,78.2805976 108.552135,69.3308524 101.584435,75.730529 C96.9393008,79.99698 90.4106216,84.5959562 81.9983968,89.5274574 C72.5765512,76.1966798 66.9478905,66.8685668 65.1124147,61.5431184 C63.2769388,56.2176701 60.9101724,51.7137958 58.0121155,48.0314955 L28.1953387,85.4852377 Z" id="Path-38" fill="url(#linearGradient-3)"></path>
                        <g id="Group-19" transform="translate(62.788560, 63.938879) rotate(40.000000) translate(-62.788560, -63.938879) translate(21.788560, 15.938879)">
                            <path d="M0,16.4594812 L21.3998261,16.4594812 C20.7012404,22.7872001 18.325718,29.4523319 14.2732588,36.4548765 C10.2207997,43.4574211 5.46304675,49.1184047 0,53.4378272" id="Path-37-Copy" stroke="#FFCD54" stroke-width="5" transform="translate(10.699913, 34.948654) scale(-1, 1) translate(-10.699913, -34.948654) "></path>
                            <path d="M39.9244892,69.1298208 L51.4495323,69.1298208 L51.4495323,82.0553546 C49.7231085,82.6627736 47.8994763,82.9664832 45.9786358,82.9664832 C44.0577952,82.9664832 42.0397464,82.6627736 39.9244892,82.0553546 L39.9244892,69.1298208 Z" id="Rectangle-6" fill="#D96822"></path>
                            <path d="M13.3081631,4.93784435 L77.8484048,4.93784435 L77.8484048,40.6599037 C77.8484048,58.4821993 63.4005796,72.9300246 45.5782839,72.9300246 L45.5782839,72.9300246 C27.7559883,72.9300246 13.3081631,58.4821993 13.3081631,40.6599037 L13.3081631,4.93784435 Z" id="Rectangle-5" fill="url(#linearGradient-4)"></path>
                            <rect id="Rectangle-2" fill="#FFDA4A" x="8.8721087" y="0" width="72.4555544" height="8.22974058" rx="4.11487029"></rect>
                            <rect id="Rectangle-11" fill="#C65200" x="31.0523805" y="82.2974058" width="26.6163261" height="6.58379246"></rect>
                            <rect id="Rectangle-11-Copy" fill="#D96822" x="23.6589565" y="87.2352501" width="42.8818587" height="8.22974058"></rect>
                        </g>
                        <rect id="Rectangle-12-Copy-2" fill="#FFBA90" transform="translate(34.360693, 67.721300) rotate(-13.000000) translate(-34.360693, -67.721300) " x="28.206352" y="53.2904317" width="12.3086817" height="28.8617363" rx="6.15434084"></rect>
                        <rect id="Rectangle-12-Copy" fill="#FFBA90" transform="translate(42.196465, 58.526896) rotate(-13.000000) translate(-42.196465, -58.526896) " x="35.4054686" y="44.0960276" width="13.5819936" height="28.8617363" rx="6.79099678"></rect>
                        <rect id="Rectangle-12-Copy-3" fill="#FFBA90" transform="translate(26.047532, 77.818970) rotate(-13.000000) translate(-26.047532, -77.818970) " x="20.5298473" y="65.5102885" width="11.0353698" height="24.6173633" rx="5.51768489"></rect>
                        <path d="M43.807215,61.0397521 C43.807215,61.0397521 43.807215,61.0397521 43.807215,61.0397521 C43.807215,61.0397521 43.807215,61.0397521 43.807215,61.0397521 L43.807215,61.0397521 C46.0341113,61.0397521 47.8393676,62.8450083 47.8393676,65.0719047 L47.8393693,68.6375429 L39.7750606,68.6375429 L39.7750624,65.0719047 C39.7750624,62.8450083 41.5803186,61.0397521 43.807215,61.0397521 Z" id="Rectangle-13-Copy" fill="#FFDBBE" transform="translate(43.807215, 64.838647) rotate(-11.000000) translate(-43.807215, -64.838647) "></path>
                        <path d="M36.0988403,71.1526078 C36.0988403,71.1526078 36.0988403,71.1526078 36.0988403,71.1526078 C36.0988403,71.1526078 36.0988403,71.1526078 36.0988403,71.1526078 L36.0988403,71.1526078 C38.0913265,71.1526078 39.7065557,72.767837 39.7065557,74.7603233 L39.7065573,77.9506311 L32.4911232,77.9506311 L32.4911248,74.7603233 C32.4911248,72.767837 34.106354,71.1526078 36.0988403,71.1526078 Z" id="Rectangle-13-Copy-2" fill="#FFDBBE" transform="translate(36.098840, 74.551619) rotate(-11.000000) translate(-36.098840, -74.551619) "></path>
                        <path d="M82.8353059,62.9719759 L84.4993211,62.9719759 L84.4993211,63.6143916 L69.0998893,63.6143916 L69.0998893,62.9719759 L71.2931581,62.9719759 L73.5798336,53.0815109 L69.8650986,53.0815109 L69.8650986,52.4390952 L73.7283601,52.4390952 L75.1616742,46.2396396 L69.6171708,46.2396396 L69.6171708,45.5972239 L84.1392226,45.5972239 L84.1392226,46.2396396 L77.9000431,46.2396396 L76.466729,52.4390952 L79.6356508,52.4390952 L79.6356508,52.4356742 L82.8353059,52.4356742 L82.8353059,62.9719759 Z M79.6356508,62.9719759 L79.6356508,53.0815109 L76.3182025,53.0815109 L74.031527,62.9719759 L79.6356508,62.9719759 Z M91.9203003,47.2626794 L101.797732,47.2626794 L101.797732,47.9050951 L96.9241592,47.9050951 L96.9241592,51.988972 L101.347609,51.988972 L101.347609,52.6313877 L96.9241592,52.6313877 L96.9241592,58.2906956 L102.334999,58.2906956 L102.334999,58.9331113 L96.9241592,58.9331113 L96.9241592,64.7152127 L93.7245041,64.7152127 L93.7245041,58.9331113 L87.230488,58.9331113 L87.230488,58.9496758 L86.5880723,58.9496758 L86.5880723,57.5519535 L87.230488,57.5519535 L87.230488,58.2906956 L89.073292,58.2906956 L89.073292,51.0341709 L91.6316117,51.0341709 L91.6316117,51.988972 L93.7245041,51.988972 L93.7245041,47.9050951 L91.2345701,47.9050951 L88.0380449,50.8997101 L90.5814205,44.2499514 L93.4994786,45.7832508 L91.9203003,47.2626794 Z M91.6316117,58.2906956 L93.7245041,58.2906956 L93.7245041,52.6313877 L91.6316117,52.6313877 L91.6316117,58.2906956 Z M57.8046801,53.6693716 L57.8046801,45.2165998 L61.0043352,45.2165998 L61.0043352,53.6693716 L67.0646127,53.6693716 L67.0646127,54.3117873 L61.0043352,54.3117873 L61.0043352,63.8623194 L57.8046801,63.8623194 L57.8046801,54.3117873 L51.6650009,54.3117873 L51.6650009,53.6693716 L57.8046801,53.6693716 Z" id="Combined-Shape" fill="#E59400" transform="translate(77.000000, 54.482582) rotate(41.000000) translate(-77.000000, -54.482582) "></path>
                        <path d="M28.2124986,80.0289714 C28.2124986,80.0289714 28.2124986,80.0289714 28.2124986,80.0289714 C28.2124986,80.0289714 28.2124986,80.0289714 28.2124986,80.0289714 L28.2124986,80.0289714 C30.0877798,80.0289714 31.6079955,81.5491871 31.6079955,83.4244683 L31.607997,86.427111 L24.8170002,86.427111 L24.8170017,83.4244683 C24.8170017,81.5491871 26.3372174,80.0289714 28.2124986,80.0289714 Z" id="Rectangle-13-Copy-3" fill="#FFDBBE" transform="translate(28.212499, 83.228041) rotate(-11.000000) translate(-28.212499, -83.228041) "></path>
                        <rect id="Rectangle-12" fill="#FFBA90" transform="translate(51.469682, 48.628472) rotate(-13.000000) translate(-51.469682, -48.628472) " x="44.2542483" y="34.4355458" width="14.4308682" height="28.3858521" rx="7.21543408"></rect>
                        <path d="M53.3508126,51.7428503 C53.3508126,51.7428503 53.3508126,51.7428503 53.3508126,51.7428503 C53.3508126,51.7428503 53.3508126,51.7428503 53.3508126,51.7428503 L53.3508126,51.7428503 C55.6949028,51.7428503 57.5951633,53.6431108 57.5951633,55.987201 L57.5951856,59.3160875 L49.1064396,59.3160875 L49.1064619,55.987201 C49.1064619,53.6431108 51.0067225,51.7428503 53.3508126,51.7428503 Z" id="Rectangle-13" fill="#FFDBBE" transform="translate(53.350813, 55.529469) rotate(-11.000000) translate(-53.350813, -55.529469) "></path>
                        <path d="M112.482574,82.9467566 C110.97146,85.2633993 108.207056,88.5075477 105.559587,91.4514048 C105.462933,91.4648653 105.37193,91.4715956 105.286577,91.4715956 C103.082149,91.4715956 102.5,89.8695305 102.5,86.8935244 C102.5,84.9095202 104.363878,82.4450121 108.091634,79.5 L112.482009,82.9461147 L112.482574,82.9467566 Z" id="Combined-Shape" fill="#FFDBBE"></path>
                    </g>
                    <polygon id="Rectangle-3-Copy-14" fill-opacity="0.49000001" fill="#FF9A00" transform="translate(136.500000, 69.500000) rotate(-273.000000) translate(-136.500000, -69.500000) " points="134 67 136.5 68.1111111 139 67 137.888889 69.5 139 72 136.5 70.8888889 134 72 135.111111 69.5"></polygon>
                    <polygon id="Rectangle-3-Copy-15" fill-opacity="0.49000001" fill="#FF9A00" transform="translate(18.656854, 27.656854) rotate(-315.000000) translate(-18.656854, -27.656854) " points="14.6568542 23.6568542 18.6568542 25.434632 22.6568542 23.6568542 20.8790765 27.6568542 22.6568542 31.6568542 18.6568542 29.8790765 14.6568542 31.6568542 16.434632 27.6568542"></polygon>
                    <polygon id="Rectangle-3-Copy-16" fill-opacity="0.49000001" fill="#FF9A00" transform="translate(26.896140, 37.896140) rotate(-280.000000) translate(-26.896140, -37.896140) " points="24.3961398 35.3961398 26.8961398 36.5072509 29.3961398 35.3961398 28.2850287 37.8961398 29.3961398 40.3961398 26.8961398 39.2850287 24.3961398 40.3961398 25.5072509 37.8961398"></polygon>
                    <polygon id="Rectangle-3-Copy-18" fill="#FF9A00" transform="translate(30.542173, 29.542173) rotate(-289.000000) translate(-30.542173, -29.542173) " points="28.5421735 27.5421735 30.5421735 28.4310623 32.5421735 27.5421735 31.6532846 29.5421735 32.5421735 31.5421735 30.5421735 30.6532846 28.5421735 31.5421735 29.4310623 29.5421735"></polygon>
                    <path d="M122.005941,112.633158 C119.225372,116.497753 117.925202,121.946985 74.5692055,121.946985 C31.2132089,121.946985 10.4689037,139.281885 6.82296791,153.065332 C4.39234403,162.254296 4.39234403,170.899186 6.82296791,179 L10.4689037,179 C10.0881745,170.028456 11.7089933,162.149577 15.3313601,155.363363 C20.7649104,145.184042 31.7328685,136.61027 46.3426641,133.984981 C60.9524596,131.359693 86.9433555,132.165741 106.185101,132.165741 C125.426846,132.165741 131.132881,125.143617 133.788921,121.946985 C136.444961,118.750352 137.015331,113.028125 133.788921,110.46045 C130.562511,107.892775 124.78651,108.768563 122.005941,112.633158 Z" id="Path-40" fill="url(#linearGradient-5)" transform="translate(70.500000, 144.000000) rotate(-9.000000) translate(-70.500000, -144.000000) "></path>
                    <path d="M37.4950036,121.238003 C34.9456141,119.987146 28.8846052,120.460381 26.3063372,108.071649 C23.7280692,95.6829181 38.0309876,84.4654055 46.4696556,79.3945906 C54.9083235,74.3237756 63.6916076,73.0694726 67.1662627,74.6273966 C70.6409177,76.1853207 71.9445736,81.3152518 65.0264016,82.678102 C58.1082296,84.0409522 44.3784708,85.1488399 36.4747113,93.6484758 C28.5709519,102.148112 27.9238253,114.238658 34.576355,118.070084 C39.0113748,120.624367 42.9758083,122.267673 46.4696556,123 C42.1861473,122.65924 39.1945966,122.071908 37.4950036,121.238003 Z" id="Path-42" fill="url(#linearGradient-2)" transform="translate(48.000000, 98.500000) rotate(-17.000000) translate(-48.000000, -98.500000) "></path>
                    <path d="M38,117.570963 L42.2355683,126 L55,123.620648 C53.5829257,121.398425 52.7013717,120.287314 52.3553381,120.287314 C52.0093046,120.287314 49.6597986,118.858209 45.3068201,116 L38,117.570963 Z" id="Path-43" fill="#FFC9A8"></path>
                </g>
                <rect id="Rectangle-24-Copy-9" fill-opacity="0.0800000057" fill="url(#linearGradient-6)" transform="translate(283.201446, 79.587670) rotate(-151.000000) translate(-283.201446, -79.587670) " x="266.701446" y="15.0876702" width="33" height="129" rx="16.5"></rect>
                <rect id="Rectangle-24-Copy-13" fill-opacity="0.0800000057" fill="url(#linearGradient-6)" transform="translate(47.227241, 177.500000) rotate(-150.000000) translate(-47.227241, -177.500000) " x="30.7272413" y="113" width="33" height="129" rx="16.5"></rect>
                <rect id="Rectangle-24-Copy-10" fill-opacity="0.0800000057" fill="url(#linearGradient-6)" transform="translate(257.135227, 60.042173) rotate(-151.000000) translate(-257.135227, -60.042173) " x="250.135227" y="-4.45782654" width="14" height="129" rx="7"></rect>
                <rect id="Rectangle-24-Copy-14" fill-opacity="0.0800000057" fill="url(#linearGradient-6)" transform="translate(76.500000, 192.750000) rotate(-150.000000) translate(-76.500000, -192.750000) " x="69.5" y="128.25" width="14" height="129" rx="7"></rect>
            </g>
        </g>
    </g>
</svg>