<?xml version="1.0" encoding="UTF-8"?>
<svg width="228px" height="38px" viewBox="0 0 228 38" version="1.1" xmlns="http://www.w3.org/2000/svg" xmlns:xlink="http://www.w3.org/1999/xlink">
    <!-- Generator: Sketch 49.3 (51167) - http://www.bohemiancoding.com/sketch -->
    <title>banner_typeface@2x</title>
    <desc>Created with Sketch.</desc>
    <defs>
        <linearGradient x1="50%" y1="29.3585232%" x2="50%" y2="139.227589%" id="linearGradient-1">
            <stop stop-color="#FFF9F9" offset="0%"></stop>
            <stop stop-color="#C00000" offset="100%"></stop>
        </linearGradient>
    </defs>
    <g id="banner_typeface" stroke="none" stroke-width="1" fill="none" fill-rule="evenodd">
        <g id="Group-15">
            <g transform="translate(3.500000, 5.000000)" fill="#000000" fill-opacity="0.119999997">
                <path d="M29.1616913,11.7983563 L29.1790785,11.8016698 L29.0003715,12.2379789 L28.7119102,13.0240829 L28.6783928,13.0240829 L24.6410521,22.8811603 L29.3137378,27.7204169 L24.958269,31.3226842 L23.0447534,26.7784881 L20.9957749,31.7810236 L17.339015,31.0841486 L21.0463648,22.0327365 L18.8999102,16.9353593 L21.8730264,20.0144605 L24.7362013,13.0240829 L20.6396875,13.0240829 L20.6396875,12.9857721 L19.9035724,12.9857721 L21.1919166,4.10722666 L19.2148059,4.10722666 C19.2605666,4.92855364 19.7973186,15.5979391 17.1535048,21.3891503 C14.4026824,27.4147612 11.1278939,32.0429543 11.1278939,32.0429543 C11.1278939,32.0429543 12.9782804,27.5512544 14.3589313,20.5156987 C15.2088253,16.1853674 14.4832199,5.62798764 14.3725633,4.10722666 L13.2410233,4.10722666 L13.2410233,3.17247102 L21.3275567,3.17247102 L21.5925986,1.34595116 L25.5594611,2.04280613 L24.4622848,9.30156524 L30.07789,9.30156524 L29.1616913,11.7983563 Z M6.67415531,8.84859649 L6.67415531,0.998011431 L10.3964109,0.998011431 L10.3964109,8.84859649 L13.1684539,8.84859649 L13.1684539,9.78335213 L10.3964109,9.78335213 L10.3964109,30.9890488 L6.67415531,30.9890488 L6.67415531,9.78335213 L3.15467458,9.78335213 L3.15467458,8.84859649 L6.67415531,8.84859649 Z M210.612073,13.8705239 L208.977298,13.8705239 L208.977298,22.5460367 L205.50928,22.5460367 L205.50928,4.18844925 L201.322836,4.18844925 L201.322836,22.5460367 L197.854818,22.5460367 L197.854818,2.72234636 L201.322836,2.72234636 L201.322836,3.21305206 L205.50928,3.21305206 L205.50928,2.72234636 L208.977298,2.72234636 L208.977298,12.8951267 L210.612073,12.8951267 L210.612073,1.26444467 L214.080091,1.26444467 L214.080091,12.8951267 L222.476216,12.8951267 L222.476216,13.8705239 L214.080091,13.8705239 L214.080091,27.8408532 L216.28977,27.4159149 L214.080091,31.2995936 L214.080091,31.3825666 L210.612073,31.3825666 L210.612073,13.8705239 Z M135.929125,14.34182 L135.929125,13.3688832 L140.787248,13.3688832 L140.787248,30.5345615 L135.929125,30.5345615 L135.929125,29.714714 L119.453988,29.714714 L119.453988,28.7393168 L135.929125,28.7393168 L135.929125,21.8781849 L121.003197,21.8781849 L121.003197,20.9027877 L135.929125,20.9027877 L135.929125,15.3172172 L120.547483,15.3172172 L120.547483,14.34182 L128.001289,14.34182 L128.001289,0.0646077149 L132.859412,0.0646077149 L132.859412,14.34182 L135.929125,14.34182 Z M72.2844582,12.7926116 L74.2609497,12.7926116 L74.2609497,7.20704111 L72.2844582,7.20704111 L72.2844582,12.7926116 Z M67.4266084,12.7926116 L67.4266084,7.20704111 L65.3940753,7.20704111 L65.3940753,6.23164392 L67.4266084,6.23164392 L67.4266084,1.12830459 L72.2844582,1.12830459 L72.2844582,6.23164392 L74.2609497,6.23164392 L74.2609497,1.12830459 L79.1187994,1.12830459 L79.1187994,6.23164392 L82.0829899,6.23164392 L82.0829899,7.20704111 L79.1187994,7.20704111 L79.1187994,12.7926116 L82.0829899,12.7926116 L82.0829899,13.7680087 L65.4170387,13.7680087 L65.4170387,12.7926116 L67.4266084,12.7926116 Z M37.2529916,15.9421494 L37.2529916,27.8451116 L55.3905132,27.8451116 L55.3905132,31.7294778 L37.2529916,31.7294778 L37.2529916,31.8939698 L33.3686254,31.8939698 L33.3686254,15.9421494 L31.8986952,15.9421494 L31.8986952,12.0577832 L37.2529916,12.0577832 L37.2529916,15.9421494 Z M48.956391,8.53262994 L50.0895248,8.53262994 L50.0895248,8.00091819 L53.973891,8.00091819 L53.973891,16.9571858 L50.0895248,16.9571858 L50.0895248,15.6816243 L48.956391,15.6816243 L48.956391,18.1842836 L56.6052491,21.2764895 L52.9147048,25.194754 C52.9147048,25.194754 50.3699048,21.2795528 48.956391,19.1517861 L48.956391,26.0649023 L44.0985412,26.0649023 L44.0985412,19.5471812 L42.0710655,25.0125505 L38.2894878,20.5018852 L44.0985412,17.1769227 L44.0985412,15.6816243 L42.9025315,15.6816243 L42.9025315,16.9571858 L39.0181653,16.9571858 L39.0181653,8.00091819 L42.9025315,8.00091819 L42.9025315,8.53262994 L44.0985412,8.53262994 L44.0985412,5.47576577 L38.1709803,5.47576577 L38.1709803,4.50036858 L44.0985412,4.50036858 L44.0985412,0.591125368 L48.956391,0.591125368 L48.956391,4.50036858 L54.8369316,4.50036858 L54.8369316,5.47576577 L48.956391,5.47576577 L48.956391,8.53262994 Z M48.956391,9.50802713 L48.956391,14.7062271 L50.0895248,14.7062271 L50.0895248,9.50802713 L48.956391,9.50802713 Z M44.0985412,9.50802713 L42.9025315,9.50802713 L42.9025315,14.7062271 L44.0985412,14.7062271 L44.0985412,9.50802713 Z M181.305383,9.00899202 L180.580337,6.14976851 L186.45787,14.2599446 L182.995046,15.6721929 L182.262752,12.7843839 L173.013163,14.8931874 L172.154399,11.1435419 L172.139789,11.1359399 L172.148724,11.1187632 L172.146021,11.1069623 L172.156059,11.1046631 L176.073969,3.57335853 L171.907558,3.57335853 L171.907558,2.59796134 L186.208553,2.59796134 L186.208553,3.57335853 L180.483846,3.57335853 L177.137951,9.96355076 L181.305383,9.00899202 Z M176.479732,25.9242729 L176.479732,20.3174947 L172.249001,20.3174947 L172.249001,19.3420975 L176.479732,19.3420975 L176.479732,14.8267849 L181.337855,14.8267849 L181.337855,19.3420975 L185.740811,19.3420975 L185.740811,20.3174947 L181.337855,20.3174947 L181.337855,26.0356978 L186.389527,26.1515618 L171.764036,31.8240651 L171.490663,25.8098447 L176.479732,25.9242729 Z M159.066582,3.60753024 C159.032333,4.85776573 158.864781,9.05939986 158.099979,13.3962206 L168.682842,13.3962206 L168.682842,14.3716178 L157.917916,14.3716178 C157.483654,16.5718149 156.887061,18.7525657 156.067742,20.5472652 C153.197318,26.8348592 145.397968,31.6544367 145.397968,31.6544367 C145.397968,31.6544367 150.571838,27.0229403 152.01279,19.6817643 C152.2825,18.3074771 152.544976,16.4010215 152.782866,14.3716178 L144.775223,14.3716178 L144.775223,13.3962206 L152.894371,13.3962206 C153.355863,9.26001913 153.706916,4.88996303 153.806683,3.60753024 L147.064727,3.60753024 L147.064727,2.63213305 L166.583059,2.63213305 L166.583059,3.60753024 L159.066582,3.60753024 Z M100.177938,26.0577806 L95.1509339,28.885435 L99.7741175,24.0348835 L98.2505427,16.4026888 L93.8709985,17.4336214 L93.6473788,16.4839213 L98.0594351,15.4453548 L96.9387382,9.83133659 L94.2879206,10.3246762 L94.1094076,9.36568147 L96.7477622,8.87466131 L95.1863358,1.05285347 L99.9504184,0.102059905 L101.51842,7.98680143 L107.137029,6.94113056 L107.315542,7.90012533 L101.708695,8.94360711 L102.78066,14.3340123 L108.305947,13.0333991 L108.529294,13.9830991 L102.971069,15.29149 L103.857787,19.7503795 L106.26822,17.2214014 L109.731044,20.6842254 L104.615701,23.5615703 L105.100386,25.9988236 L110.391515,25.9807033 L101.415838,32.0290953 L101.197017,30.7162916 L101.119638,30.7751304 L100.177938,26.0577806 Z M91.671024,26.8430474 L95.469961,26.4932788 L86.6309707,31.5506914 L84.831352,27.4727766 L86.8131742,27.2903101 L86.8131742,20.1695995 L83.8238334,20.1695995 L83.8238334,19.1942024 L86.8131742,19.1942024 L86.8131742,12.4011405 L84.7843813,12.4011405 L82.4847125,15.6721929 L86.5853173,0.272235003 L93.0552515,0.636642081 L89.506145,5.68489662 L95.2082057,5.68489662 L95.2082057,6.66029381 L88.8204053,6.66029381 L85.470121,11.4257433 L93.9922397,11.4257433 L93.9922397,12.4011405 L91.671024,12.4011405 L91.671024,19.1942024 L94.5474616,19.1942024 L94.5474616,20.1695995 L91.671024,20.1695995 L91.671024,26.8430474 Z M60.29593,9.93640942 L56.240842,16.2189402 L60.3414468,0.818982306 L65.9456066,1.18338938 L63.5701449,4.86368217 L64.1802963,4.86368217 L64.1802963,31.5941578 L60.29593,31.5941578 L60.29593,9.93640942 Z M191.925343,27.8451116 L191.925343,0.730272556 L195.809709,0.730272556 L195.809709,27.8451116 L195.819278,27.8451116 L195.819278,31.7294778 L190.328294,31.7294778 L190.328294,27.8451116 L191.925343,27.8451116 Z M75.3314809,17.3032768 L75.3314809,16.5285359 L80.1893307,16.5285359 L80.1893307,31.7292044 L75.3314809,31.7292044 L75.3314809,30.5121449 L71.4413738,30.5121449 L71.4413738,32.5362034 L66.583524,32.5362034 L66.583524,15.3705251 L71.4413738,15.3705251 L71.4413738,17.3032768 L75.3314809,17.3032768 Z M75.3314809,18.278674 L71.4413738,18.278674 L71.4413738,23.454184 L75.3314809,23.454184 L75.3314809,18.278674 Z M75.3314809,24.4295812 L71.4413738,24.4295812 L71.4413738,29.5367477 L75.3314809,29.5367477 L75.3314809,24.4295812 Z M203.543723,26.7438258 C201.696538,30.5658628 198.315452,31.7214132 198.315452,31.7214132 C198.315452,31.7214132 201.128467,28.2143027 201.447768,25.467991 C201.767068,22.7219526 201.851541,9.38459893 201.851541,9.38459893 L204.980849,9.38459893 C204.980849,9.38459893 205.390909,22.9217888 203.543723,26.7438258 Z M187.072961,24.5577934 L187.072961,4.86368217 L190.957327,4.86368217 L190.957327,24.5577934 L187.072961,24.5577934 Z M30.0456866,4.79424526 L38.2058901,7.988343 L34.6708954,11.4139882 L30.0456866,4.79424526 Z M102.737189,0.249408303 L107.521228,4.82841697 L102.94222,7.24312643 L102.737189,0.249408303 Z M136.703866,5.19296073 L141.624591,8.2000709 L134.79025,13.3941703 L136.703866,5.19296073 Z M124.037508,5.37516427 L127.044618,13.3940336 L119.116782,8.38227444 L124.037508,5.37516427 Z M159.120505,16.6746541 L169.987108,27.9286272 L165.442271,31.6875149 L159.120505,16.6746541 Z M204.568875,24.4088048 L209.250398,28.3043793 C209.250398,28.3043793 207.165924,30.8672573 207.063409,30.9356007 C206.960894,31.0039441 204.568875,24.4088048 204.568875,24.4088048 Z M214.868965,15.3591801 L223.454265,27.3362265 L219.125393,30.6697448 L214.868965,15.3591801 Z M216.346632,3.27934517 L220.777198,5.60739519 L214.433016,12.3006757 L216.346632,3.27934517 Z M11.2587807,10.3639066 L14.3370819,19.7298018 L11.2587807,19.6643061 L11.2587807,10.3639066 Z M2.87532202,12.5252671 L6.54308517,12.5252671 L0.866697721,24.1397631 L2.87532202,12.5252671 Z" id="Combined-Shape"></path>
            </g>
            <g transform="translate(0.000000, 0.500000)" fill="url(#linearGradient-1)">
                <polygon id="Fill-6" points="37.6709803 5.97576577 54.3369316 5.97576577 54.3369316 5.00036858 37.6709803 5.00036858"></polygon>
                <polygon id="Fill-7" points="64.8940753 7.70704111 81.5829899 7.70704111 81.5829899 6.73164392 64.8940753 6.73164392"></polygon>
                <polygon id="Fill-8" points="106.815542 8.40012533 93.7879206 10.8246762 93.6094076 9.86568147 106.637029 7.44113056"></polygon>
                <polygon id="Fill-9" points="108.029294 14.4830991 93.3709985 17.9336214 93.1473788 16.9839213 107.805947 13.5333991"></polygon>
                <polygon id="Fill-10" points="86.4905937 7.16029381 94.7082057 7.16029381 94.7082057 6.18489662 86.4905937 6.18489662"></polygon>
                <polygon id="Fill-11" points="83.3238334 20.6695995 94.0474616 20.6695995 94.0474616 19.6942024 83.3238334 19.6942024"></polygon>
                <polygon id="Fill-12" points="84.2352611 12.9011405 93.4922397 12.9011405 93.4922397 11.9257433 84.2352611 11.9257433"></polygon>
                <polygon id="Fill-15" points="120.503197 22.3781849 137.169148 22.3781849 137.169148 21.4027877 120.503197 21.4027877"></polygon>
                <polygon id="Fill-16" points="118.953988 30.214714 135.61994 30.214714 135.61994 29.2393168 118.953988 29.2393168"></polygon>
                <polygon id="Fill-17" points="146.564727 4.10753024 166.083059 4.10753024 166.083059 3.13213305 146.564727 3.13213305"></polygon>
                <polygon id="Fill-18" points="144.275223 14.8716178 168.182842 14.8716178 168.182842 13.8962206 144.275223 13.8962206"></polygon>
                <polygon id="Fill-19" points="171.749001 20.8174947 185.240811 20.8174947 185.240811 19.8420975 171.749001 19.8420975"></polygon>
                <polygon id="Fill-20" points="198.812993 4.68844925 206.081725 4.68844925 206.081725 3.71305206 198.812993 3.71305206"></polygon>
                <polygon id="Fill-21" points="171.407558 4.07335853 185.708553 4.07335853 185.708553 3.09796134 171.407558 3.09796134"></polygon>
                <polygon id="Fill-22" points="207.67522 14.3705239 221.976216 14.3705239 221.976216 13.3951267 207.67522 13.3951267"></polygon>
                <polygon id="Fill-23" points="67.1040279 18.778674 77.5665843 18.778674 77.5665843 17.8032768 67.1040279 17.8032768"></polygon>
                <polygon id="Fill-24" points="67.1040279 24.9295812 77.5665843 24.9295812 77.5665843 23.954184 67.1040279 23.954184"></polygon>
                <polygon id="Fill-25" points="67.1040279 31.0121449 77.5665843 31.0121449 77.5665843 30.0367477 67.1040279 30.0367477"></polygon>
                <polygon id="Fill-26" points="39.8123161 10.0080271 51.4719757 10.0080271 51.4719757 9.03262994 39.8123161 9.03262994"></polygon>
                <polygon id="Fill-27" points="39.8123161 16.1816243 51.4719757 16.1816243 51.4719757 15.2062271 39.8123161 15.2062271"></polygon>
                <polygon id="Fill-31" points="104.902583 28.01843 100.619638 31.2751304 94.6863358 1.55285347 99.4504184 0.602059905"></polygon>
                <polygon id="Fill-32" points="66.9266084 13.8221363 71.7844582 13.8221363 71.7844582 1.62830459 66.9266084 1.62830459"></polygon>
                <polygon id="Fill-33" points="66.083524 33.0362034 70.9413738 33.0362034 70.9413738 15.8705251 66.083524 15.8705251"></polygon>
                <polygon id="Fill-34" points="74.8314809 32.2292044 79.6893307 32.2292044 79.6893307 17.0285359 74.8314809 17.0285359"></polygon>
                <polygon id="Fill-35" points="86.3131742 28.0471343 91.171024 28.0471343 91.171024 12.312567 86.3131742 12.312567"></polygon>
                <polygon id="Fill-36" points="127.501289 15.0165058 132.359412 15.0165058 132.359412 0.564607715 127.501289 0.564607715"></polygon>
                <polygon id="Fill-37" points="135.429125 31.0345615 140.287248 31.0345615 140.287248 13.8688832 135.429125 13.8688832"></polygon>
                <polygon id="Fill-38" points="175.979732 28.0290916 180.837855 28.0290916 180.837855 15.3267849 175.979732 15.3267849"></polygon>
                <polygon id="Fill-39" points="73.7609497 13.8221363 78.6187994 13.8221363 78.6187994 1.62830459 73.7609497 1.62830459"></polygon>
                <polygon id="Fill-42" points="59.79593 32.0941578 63.6802963 32.0941578 63.6802963 5.36368217 59.79593 5.36368217"></polygon>
                <polygon id="Fill-43" points="197.354818 23.0460367 200.822836 23.0460367 200.822836 3.22234636 197.354818 3.22234636"></polygon>
                <polygon id="Fill-45" points="205.00928 23.0460367 208.477298 23.0460367 208.477298 3.22234636 205.00928 3.22234636"></polygon>
                <path d="M203.043723,27.2438258 C201.196538,31.0658628 197.815452,32.2214132 197.815452,32.2214132 C197.815452,32.2214132 200.628467,28.7143027 200.947768,25.967991 C201.267068,23.2219526 201.351541,9.88459893 201.351541,9.88459893 L204.480849,9.88459893 C204.480849,9.88459893 204.890909,23.4217888 203.043723,27.2438258" id="Fill-46"></path>
                <polygon id="Fill-48" points="186.572961 25.0577934 190.457327 25.0577934 190.457327 5.36368217 186.572961 5.36368217"></polygon>
                <polygon id="Fill-50" points="191.425343 32.1026324 195.309709 32.1026324 195.309709 1.23027256 191.425343 1.23027256"></polygon>
                <polygon id="Fill-51" points="175.08539 13.4287243 171.639789 11.6359399 175.920273 3.40766635 180.125853 3.80214453"></polygon>
                <polygon id="Fill-52" points="172.513163 15.3931874 171.646021 11.6069623 181.234602 9.41067837 183.132089 12.9721903"></polygon>
                <polygon id="Fill-53" points="38.5181653 17.4571858 42.4025315 17.4571858 42.4025315 8.50091819 38.5181653 8.50091819"></polygon>
                <polygon id="Fill-54" points="49.5895248 17.4571858 53.473891 17.4571858 53.473891 8.50091819 49.5895248 8.50091819"></polygon>
                <polygon id="Fill-57" points="31.3986952 16.4421494 36.7529916 16.4421494 36.7529916 12.5577832 31.3986952 12.5577832"></polygon>
                <polygon id="Fill-58" points="32.8842077 32.2294778 54.8905132 32.2294778 54.8905132 28.3451116 32.8842077 28.3451116"></polygon>
                <polygon id="Fill-59" points="189.828294 32.2294778 195.319278 32.2294778 195.319278 28.3451116 189.828294 28.3451116"></polygon>
                <polygon id="Fill-60" points="100.915838 32.5290953 99.9133767 26.514875 109.891515 26.4807033"></polygon>
                <polygon id="Fill-64" points="29.5456866 5.29424526 34.1708954 11.9139882 37.7058901 8.488343"></polygon>
                <path d="M47.5396324,18.3136654 C47.6763193,18.4046988 52.4147048,25.694754 52.4147048,25.694754 L56.1052491,21.7764895 L47.5396324,18.3136654 Z" id="Fill-65"></path>
                <polygon id="Fill-66" points="44.7148625 17.0379673 37.7894878 21.0018852 41.5710655 25.5125505"></polygon>
                <polygon id="Fill-67" points="59.8414468 1.31898231 65.4456066 1.68338938 55.740842 16.7189402"></polygon>
                <polygon id="Fill-68" points="86.0853173 0.772235003 92.5552515 1.13664208 81.9847125 16.1721929"></polygon>
                <polygon id="Fill-69" points="86.1309707 32.0506914 94.969961 26.9932788 84.331352 27.9727766"></polygon>
                <polygon id="Fill-70" points="105.76822 17.7214014 109.231044 21.1842254 94.6509339 29.385435"></polygon>
                <polygon id="Fill-71" points="102.237189 0.749408303 102.44222 7.74312643 107.021228 5.32841697"></polygon>
                <polygon id="Fill-72" points="136.203866 5.69296073 141.124591 8.7000709 134.29025 13.8941703"></polygon>
                <polygon id="Fill-73" points="123.537508 5.87516427 118.616782 8.88227444 126.544618 13.8940336"></polygon>
                <path d="M158.574852,3.73369177 C158.574852,3.73369177 158.438165,14.7596713 155.567742,21.0472652 C152.697318,27.3348592 144.897968,32.1544367 144.897968,32.1544367 C144.897968,32.1544367 150.071838,27.5229403 151.51279,20.1817643 C152.469598,15.3064186 153.335372,3.73369177 153.335372,3.73369177 L158.574852,3.73369177 Z" id="Fill-74"></path>
                <polygon id="Fill-75" points="158.620505 17.1746541 164.942271 32.1875149 169.487108 28.4286272"></polygon>
                <polygon id="Fill-76" points="185.889527 26.6515618 171.264036 32.3240651 170.990663 26.3098447"></polygon>
                <polygon id="Fill-77" points="180.080337 6.64976851 185.95787 14.7599446 182.495046 16.1721929"></polygon>
                <path d="M204.068875,24.9088048 C204.068875,24.9088048 206.460894,31.5039441 206.563409,31.4356007 C206.665924,31.3672573 208.750398,28.8043793 208.750398,28.8043793 L204.068875,24.9088048 Z" id="Fill-78"></path>
                <polygon id="Fill-79" points="213.534437 31.8798329 215.78977 27.9159149 210.458984 28.9410661"></polygon>
                <polygon id="Fill-80" points="214.368965 15.8591801 218.625393 31.1697448 222.954265 27.8362265"></polygon>
                <polygon id="Fill-81" points="215.846632 3.77934517 220.277198 6.10739519 213.933016 12.8006757"></polygon>
                <polygon id="Fill-30" points="43.5985412 26.5649023 48.456391 26.5649023 48.456391 1.09112537 43.5985412 1.09112537"></polygon>
                <polygon id="Fill-41" points="32.8686254 32.3939698 36.7529916 32.3939698 36.7529916 12.5728187 32.8686254 12.5728187"></polygon>
                <polygon id="Fill-13" points="64.9170387 14.2680087 81.5829899 14.2680087 81.5829899 13.2926116 64.9170387 13.2926116"></polygon>
                <polygon id="Fill-14" points="120.047483 15.8172172 136.713434 15.8172172 136.713434 14.84182 120.047483 14.84182"></polygon>
                <polygon id="Fill-44" points="210.112073 31.8825666 213.580091 31.8825666 213.580091 1.76444467 210.112073 1.76444467"></polygon>
                <polygon id="Fill-1" points="12.7410233 4.60722666 22.7548026 4.60722666 22.7548026 3.67247102 12.7410233 3.67247102"></polygon>
                <polygon id="Fill-2" points="2.65467458 10.2833521 12.6684539 10.2833521 12.6684539 9.34859649 2.65467458 9.34859649"></polygon>
                <polygon id="Fill-3" points="6.17415531 31.4890488 9.89641095 31.4890488 9.89641095 1.49801143 6.17415531 1.49801143"></polygon>
                <polygon id="Fill-14" points="10.7587807 10.8639066 13.8370819 20.2298018 10.7587807 20.1643061"></polygon>
                <polygon id="Fill-11" points="2.37532202 13.0252671 6.04308517 13.0252671 0.366697721 24.6397631"></polygon>
                <path d="M18.7119059,4.55687351 C18.7119059,4.55687351 19.4043272,15.8635394 16.6535048,21.8891503 C13.9026824,27.9147612 10.6278939,32.5429543 10.6278939,32.5429543 C10.6278939,32.5429543 12.4782804,28.0512544 13.8589313,21.0156987 C14.7758721,16.3437544 13.8589313,4.42352412 13.8589313,4.42352412 L18.7119059,4.55687351 Z" id="Fill-7"></path>
                <polygon id="Fill-9" points="18.3999102 17.4353593 24.458269 31.8226842 28.8137378 28.2204169"></polygon>
                <polygon id="Fill-6" points="20.1396875 9.80156524 20.1396875 13.5240829 28.2119102 13.5240829 29.57789 9.80156524"></polygon>
                <polygon id="Fill-4" points="23.4054094 13.4857721 19.4035724 13.4857721 21.0925986 1.84595116 25.0594611 2.54280613"></polygon>
                <polygon id="Fill-5" points="20.4957749 32.2810236 16.839015 31.5841486 25.0223186 11.6047948 28.6790785 12.3016698"></polygon>
            </g>
        </g>
    </g>
</svg>