<?xml version="1.0" encoding="UTF-8"?>
<svg width="28px" height="28px" viewBox="0 0 28 28" version="1.1" xmlns="http://www.w3.org/2000/svg" xmlns:xlink="http://www.w3.org/1999/xlink">
    <!-- Generator: Sketch 49.3 (51167) - http://www.bohemiancoding.com/sketch -->
    <title>icon_extremespeed@2x</title>
    <desc>Created with Sketch.</desc>
    <defs>
        <rect id="path-1" x="0.5" y="0.5" width="27" height="27"></rect>
        <rect id="path-3" x="0" y="0" width="24" height="25.8461538"></rect>
    </defs>
    <g id="icon_extremespeed" stroke="none" stroke-width="1" fill="none" fill-rule="evenodd">
        <g>
            <mask id="mask-2" fill="white">
                <use xlink:href="#path-1"></use>
            </mask>
            <g id="Mask"></g>
            <g id="Group-11" mask="url(#mask-2)">
                <g transform="translate(2.000000, 1.000000)">
                    <mask id="mask-4" fill="white">
                        <use xlink:href="#path-3"></use>
                    </mask>
                    <g id="Mask" stroke="none" fill="none"></g>
                    <g id="Group-10" stroke="none" stroke-width="1" fill="none" fill-rule="evenodd" mask="url(#mask-4)">
                        <g transform="translate(-3.665934, -3.400810)" id="Group-7">
                            <g transform="translate(15.592698, 17.057826) rotate(34.000000) translate(-15.592698, -17.057826) translate(7.592698, 2.057826)">
                                <path d="M2.72967033,19.5646469 L0.303296703,22.20339 L0.303296703,17.0841045 L2.72967033,14.4917327 L2.72967033,13.9406344 C2.72967033,8.82735345 4.558492,3.88268379 7.88571429,5.68434189e-14 C11.2129366,3.88268379 13.0417582,8.82735345 13.0417582,13.9406344 L13.0417582,14.2091372 L15.7326318,17.0841045 L15.7326318,22.20339 L13.0417582,19.2769965 L13.0417582,22.8639053 L2.72967033,22.8639053 L2.72967033,19.5646469 Z" id="Combined-Shape" stroke="#352424"></path>
                                <ellipse id="Oval-3" fill="#C00000" cx="7.88571429" cy="10.8302709" rx="2.12307692" ry="2.10588602"></ellipse>
                                <path d="M5.49578287,24.150067 C6.29242667,24.4959893 7.08907048,24.6689505 7.88571429,24.6689505 C8.68235809,24.6689505 9.4790019,24.4959893 10.2756457,24.150067 L10.2756395,24.1500528 C10.7283686,23.9534667 11.2547426,24.1611116 11.4513287,24.6138407 C11.5001053,24.7261712 11.5252747,24.8473279 11.5252747,24.9697913 L11.5252764,25.0293573 C11.5252764,25.5315666 11.1527956,25.9558749 10.654818,26.0209327 C10.3796167,26.0568861 10.0631755,26.2079071 9.70549451,26.4739956 C9.2922459,26.7814225 8.93404606,27.1605423 8.63089499,27.6113551 L8.63092347,27.6113742 C8.32272649,28.0696907 7.70134455,28.1913866 7.24302806,27.8831896 C7.12964165,27.8069424 7.0330833,27.708268 6.95931174,27.5932555 C6.58745767,27.0135218 6.28966511,26.6404352 6.06593407,26.4739956 C5.86238655,26.3225711 5.59753744,26.2509829 5.27138674,26.2592311 L5.27138551,26.2591827 C4.71930404,26.2731445 4.26043528,25.8369123 4.24647346,25.2848309 C4.24626039,25.2764058 4.24615385,25.2679785 4.24615385,25.2595507 L4.24615385,24.9697913 C4.24615385,24.476223 4.64627007,24.0761067 5.13983845,24.0761067 C5.2623019,24.0761067 5.38345859,24.1012761 5.49578906,24.1500528 Z" id="Rectangle-3" fill="#C00000"></path>
                            </g>
                        </g>
                    </g>
                </g>
            </g>
        </g>
    </g>
</svg>