<?xml version="1.0" encoding="UTF-8"?>
<svg width="89px" height="21px" viewBox="0 0 89 21" version="1.1" xmlns="http://www.w3.org/2000/svg" xmlns:xlink="http://www.w3.org/1999/xlink">
    <!-- Generator: Sketch 49.3 (51167) - http://www.bohemiancoding.com/sketch -->
    <title>logo@2x</title>
    <desc>Created with Sketch.</desc>
    <defs>
        <polygon id="path-1" points="0.0937314652 0.032977822 64.6264612 0.032977822 64.6264612 4.05660618 0.0937314652 4.05660618"></polygon>
    </defs>
    <g id="logo" stroke="none" stroke-width="1" fill="none" fill-rule="evenodd">
        <g>
            <rect id="Rectangle-14" x="0" y="0" width="89" height="21"></rect>
            <g id="Page-1-Copy" transform="translate(3.000000, 2.274775)">
                <polygon id="Fill-1" fill="#EF8707" points="0.238600031 0.477247786 0.238600031 15.8925899 4.98029541 15.8925899 4.98029541 5.84437639 10.3140167 5.84437639 10.3140167 0.477247786"></polygon>
                <path d="M0,0.238647755 L0,0.715895541 L0,5.60577636 L0,15.6539899 L0,16.1312377 L0.477247786,16.1312377 L4.74169538,16.1312377 L5.21894316,16.1312377 L5.21894316,15.6539899 L5.21894316,6.08302414 L10.0754166,6.08302414 L10.5524258,6.08302414 L10.5524258,5.60577636 L10.5524258,0.715895541 L10.5524258,0.238647755 L0,0.238647755 Z M0.477247786,5.60577636 L0.477247786,0.715895541 L5.19269454,0.715895541 L10.0754166,0.715895541 L10.0754166,5.60577636 L4.74169538,5.60577636 L4.74169538,15.6539899 L0.477247786,15.6539899 L0.477247786,5.60577636 Z" id="Fill-2" fill="#FEFEFE"></path>
                <polygon id="Fill-3" fill="#E62A10" points="5.57036457 15.8925899 5.57036457 10.5256999 10.9024155 10.5256999 10.9024155 0.479634025 15.6529399 0.479634025 15.6529399 15.8925899"></polygon>
                <path d="M15.4142922,0.241010132 L11.1410155,0.241010132 L10.6637677,0.241010132 L10.6637677,0.718257918 L10.6637677,10.287076 L5.8089646,10.287076 L5.33171682,10.287076 L5.33171682,10.7643238 L5.33171682,15.653966 L5.33171682,16.1312138 L5.8089646,16.1312138 L10.699084,16.1312138 L15.4142922,16.1312138 L15.89154,16.1312138 L15.89154,15.653966 L15.89154,10.7643238 L15.89154,0.718257918 L15.89154,0.241010132 L15.4142922,0.241010132 Z M5.8089646,10.7643238 L11.1410155,10.7643238 L11.1410155,0.718257918 L15.4142922,0.718257918 L15.4142922,10.7643238 L15.4142922,15.653966 L10.699084,15.653966 L5.8089646,15.653966 L5.8089646,10.7643238 Z" id="Fill-4" fill="#FEFEFE"></path>
                <g id="Group-14" transform="translate(19.567159, 0.229103)">
                    <path d="M16.4226213,3.16625271 L16.4145081,0.624431003 L22.3192563,0.624431003 L22.3192563,0.250268739 L25.0765554,0.250268739 L25.0934977,0.488892632 L25.0934977,0.629919353 L31.3063094,0.629919353 L30.6935232,3.09037031 L27.8944649,3.09037031 L28.082262,2.41387158 L19.2596208,2.41387158 L19.2596208,3.16625271 L16.4226213,3.16625271 Z M37.0640653,4.65144782 L47.230159,4.65144782 L47.230159,2.90710716 L37.0640653,2.90710716 L37.0640653,4.65144782 Z M37.0640653,6.41917362 L47.2914853,6.41917362 L47.2914853,4.76383968 L37.0640653,4.76383968 L37.0640653,6.41917362 Z M60.4136518,7.85759845 L60.4136518,6.11707577 L61.2175757,6.11707577 C61.2335635,6.11707577 61.2984692,6.11421229 61.3473871,6.06481714 C61.4034637,6.00826328 61.4325759,5.90088253 61.4316214,5.75436746 L61.4328145,5.72859607 L61.9081533,1.0568175 L61.931777,0.844442233 L64.3970005,0.844442233 L63.8025884,6.5368152 C63.7703741,6.98853023 63.4181653,7.85783707 62.3200181,7.85783707 L60.4136518,7.85759845 Z M51.8403726,7.90914121 C51.6201228,7.90914121 51.2053944,7.86189368 50.8997172,7.54476252 C50.649878,7.28513973 50.5308047,6.90859123 50.5465539,6.42537784 L50.10677,1.22814945 L50.0588066,0.866872879 L52.5588692,0.866872879 L52.9471102,5.98058291 L52.937088,6.01971722 C52.924441,6.07102136 52.9275431,6.13950642 52.938997,6.15692596 L52.9392356,6.15692596 C52.9406674,6.15692596 52.9566552,6.16360743 52.994835,6.16360743 C53.0234699,6.16360743 53.0561613,6.15978945 53.0929094,6.15286936 L53.1165332,6.14809688 L53.75175,6.1543011 L53.75175,7.90031213 L52.0023982,7.90031213 C51.9735247,7.90389148 51.916255,7.90914121 51.8403726,7.90914121 Z M44.7071886,8.7569719 L44.70695,8.27351989 L39.7903433,8.27351989 L39.7903433,8.7569719 L44.7071886,8.7569719 Z M37.0053638,10.5051305 L37.0053638,6.61078861 L47.3575842,6.61078861 L47.3575842,9.79069061 L47.2836107,9.79355409 C47.1029725,10.2206909 46.631213,10.4826999 45.9804857,10.5048919 L45.9766677,10.5051305 L37.0053638,10.5051305 Z M11.8090669,7.88146084 L11.8176574,7.8831312 C11.8183733,7.87120001 11.8183733,7.85688258 11.8186119,7.84781487 L11.8186119,3.06841692 L8.87733379,3.06841692 L8.87733379,7.88146084 L11.8090669,7.88146084 Z M3.10263558,7.91797029 L6.04415231,7.91797029 L6.04415231,3.06841692 L3.10263558,3.06841692 L3.10263558,7.91797029 Z M6.09712682,10.5056078 L6.09712682,9.71552408 L0.332212184,9.71552408 L0.332212184,1.21574101 L5.98545083,1.21574101 L5.98545083,0.250030115 L8.94343261,0.250030115 L8.94343261,1.21597963 L14.607648,1.21597963 L14.607648,8.18880841 C14.6186247,8.29666641 14.6494071,8.80159457 14.3048342,9.19866473 C14.0325644,9.51245515 13.6099615,9.67137866 13.0482408,9.67161728 C12.961859,9.67161728 12.8699888,9.6677993 12.7726302,9.65968609 L8.86850471,9.66040196 L8.86850471,10.5056078 L6.09712682,10.5056078 Z M33.7822709,10.5056078 L33.7822709,4.17944976 L32.9098619,4.17944976 L32.9098619,2.29837761 L33.2372539,2.4520514 C33.2601618,2.45419901 33.2809221,2.45515351 33.3002506,2.45515351 C33.3689743,2.45515351 33.4011885,2.44274507 33.4014271,2.44274507 L33.4276758,2.42818901 L33.4424705,2.42747314 C33.5803951,2.39096368 33.683242,2.22583595 33.7030478,2.18359952 L34.7203014,0.248121124 L37.6205362,0.248121124 L37.2029444,1.05204502 L40.9772585,1.05204502 L40.9772585,0.251223235 L43.818076,0.251223235 L43.818076,1.05204502 L47.6012192,1.05204502 L47.6012192,2.75009264 L36.879609,2.75009264 L36.879609,1.67437613 L36.4364844,2.52769517 L36.4364844,10.5056078 L33.7822709,10.5056078 Z M50.1093949,10.5056078 L50.1093949,8.63861445 L54.0827213,8.63861445 L54.0827213,0.250984611 L56.7350259,0.250984611 L56.7350259,8.63861445 L57.5088832,8.63861445 L57.5088832,0.250984611 L60.1607105,0.250984611 L60.1607105,8.63861445 L64.3874555,8.63861445 L64.3874555,10.5056078 L50.1093949,10.5056078 Z M20.4964084,6.59551668 L20.4904428,6.62152668 C20.4999877,6.6556499 20.5961532,6.71435138 20.6701266,6.73487303 L23.4966266,7.74496797 L26.6994365,6.822448 C27.1146421,6.74537248 27.1869451,6.6167542 27.1814568,6.57738126 L27.1552081,6.52607713 L27.1738208,6.51820254 L27.1738208,5.39738611 L20.4964084,5.39738611 L20.4964084,6.59551668 Z M16.4789365,10.5039374 L16.4789365,8.88988541 L19.3739216,8.88988541 C19.3693877,8.88940816 19.8008197,8.84645586 20.0752372,8.77319833 L18.2041873,8.14060639 C18.1903471,8.13869739 17.8665345,8.05661078 17.6932935,7.7771822 C17.5968895,7.62159942 17.5675387,7.43547278 17.6081048,7.2369377 L17.6081048,5.40645382 L16.4829931,5.40645382 L16.4829931,3.70601996 L17.6641814,3.70601996 L17.6641814,3.2010918 L20.4964084,3.2010918 L20.4964084,3.70792895 L27.1649917,3.70792895 L27.1649917,3.11757344 L29.9931621,3.11757344 L29.9931621,3.70506546 L31.1712482,3.70506546 L31.1712482,5.39738611 L29.9907758,5.39738611 L29.9907758,7.27511753 C30.021797,7.47532297 29.9833785,7.83373606 29.6609976,8.0449182 C29.5870242,8.10600592 29.4235669,8.19644438 29.0689717,8.26731567 L27.2411127,8.7669941 L27.2986211,8.78226603 C27.3010073,8.78202741 27.4234214,8.81376439 27.7560631,8.81376439 C27.8371952,8.81376439 27.9297813,8.81209402 28.035253,8.80756017 L31.1762593,8.80732154 L31.1762593,10.4213736 L26.9707519,10.4213736 C26.9664566,10.4218508 26.9485598,10.4225667 26.9225498,10.4225667 C26.7772279,10.4225667 26.356534,10.3984657 25.591983,10.1763068 L23.5531805,9.6238925 L21.0008593,10.3750805 C20.995371,10.3772281 20.6157203,10.5056078 20.0136723,10.5056078 C19.9735834,10.5056078 19.9323015,10.5051305 19.8903037,10.5039374 L16.4789365,10.5039374 Z" id="Fill-5" fill="#005C4C"></path>
                    <path d="M60.3993344,0.0124084424 L59.9220866,0.0124084424 L57.7475071,0.0124084424 L57.2702593,0.0124084424 L57.2702593,0.489656228 L57.2702593,8.39979966 L56.9736498,8.39979966 L56.9736498,0.489656228 L56.9736498,0.0124084424 L56.496402,0.0124084424 L54.3213452,0.0124084424 L53.8440974,0.0124084424 L53.8440974,0.489656228 L53.8440974,5.91667943 L53.51766,5.91333869 L53.1814389,5.91023658 L52.8134808,1.06951229 L52.7798349,0.62829671 L52.3376648,0.62829671 L50.3310765,0.62829671 L49.7862981,0.62829671 L49.8576467,1.16806396 L49.8698165,1.25945691 L50.3076913,6.43210704 C50.292658,6.97521502 50.434162,7.40497665 50.727908,7.71017661 C51.0949116,8.09102034 51.5824202,8.14805145 51.8403726,8.14805145 C51.916255,8.14805145 51.9768655,8.14327897 52.0159998,8.13922237 L53.5131261,8.13922237 L53.8440974,8.13922237 L53.8440974,8.39979966 L50.3480188,8.39979966 L49.870771,8.39979966 L49.870771,8.87704744 L49.870771,10.2670316 L49.870771,10.7442794 L50.3480188,10.7442794 L64.1488316,10.7442794 L64.6260794,10.7442794 L64.6260794,10.2670316 L64.6260794,8.87704744 L64.6260794,8.39979966 L64.1488316,8.39979966 L60.3993344,8.39979966 L60.3993344,8.09603144 L60.6522757,8.09603144 L62.2835087,8.09603144 L62.3200181,8.09650869 C63.587111,8.09650869 63.9987372,7.09333384 64.0409736,6.55475972 L64.6067509,1.132509 L64.6616344,0.605866064 L64.1323666,0.605866064 L62.1453454,0.605866064 L61.7170155,0.605866064 L61.6707225,1.03157109 L61.662132,1.11127147 L61.1956223,5.70454279 L61.1927588,5.73007554 L61.1929975,5.75608555 C61.1934747,5.81741189 61.1870319,5.85606896 61.1810663,5.8784996 L60.6522757,5.8784996 L60.3993344,5.8784996 L60.3993344,0.489656228 L60.3993344,0.0124084424 Z M20.7350323,5.63581911 L26.9351969,5.63581911 L26.9351969,6.50608044 C26.8936763,6.52707935 26.8156463,6.55738458 26.6793921,6.58244009 L26.6562456,6.58649669 L26.6333377,6.59317816 L23.5045012,7.49446061 L20.766292,6.51538677 L20.7507815,6.50989843 L20.7350323,6.50536457 L20.7350323,5.63581911 Z M19.4982446,2.65230457 L27.7684715,2.65230457 L27.7486657,2.72413036 L27.7054748,2.87899727 L27.4036156,2.87899727 L26.9263678,2.87899727 L26.9263678,3.35624506 L26.9263678,3.46911416 L20.7350323,3.46911416 L20.7350323,3.43976342 L20.7350323,2.96251563 L20.2577845,2.96251563 L19.4982446,2.96251563 L19.4982446,2.92767654 L19.4982446,2.65230457 Z M25.3321216,0.0116925708 L24.8548738,0.0116925708 L24.8379315,0.0116925708 L22.5578802,0.0116925708 L22.0806324,0.0116925708 L22.0806324,0.385616211 L16.6538478,0.385616211 L16.1749297,0.385616211 L16.1766001,0.864534364 L16.1832815,2.92934691 L16.1849519,3.40492433 L16.6605293,3.40492433 L17.4255575,3.40492433 L17.4255575,3.43976342 L17.4255575,3.46744379 L16.721617,3.46744379 L16.2443692,3.46744379 L16.2443692,3.94469158 L16.2443692,5.16763903 L16.2443692,5.64488681 L16.721617,5.64488681 L17.3694809,5.64488681 L17.3694809,7.21383891 C17.3122112,7.52715208 17.4019337,7.75981038 17.4907018,7.90298471 C17.6897142,8.22417247 18.0271283,8.34038231 18.1442927,8.37235791 L18.9694541,8.65130924 L16.7175604,8.65130924 L16.2403126,8.65130924 L16.2403126,9.12855703 L16.2403126,10.2653613 L16.2403126,10.742609 L16.7175604,10.742609 L19.8903037,10.742609 C19.9325401,10.7438022 19.9738221,10.7442794 20.0139109,10.7442794 C20.6033119,10.7442794 20.991553,10.6292627 21.0757872,10.6015823 L23.5560439,9.87187045 L25.5339974,10.4075811 C26.2906738,10.6278309 26.7290259,10.6609997 26.9225498,10.6609997 C26.9466508,10.6609997 26.9652635,10.6605224 26.9781492,10.6600452 L30.9376355,10.6600452 L31.4148832,10.6600452 L31.4148832,10.1827974 L31.4148832,9.04599316 L31.4148832,8.56874537 L30.9376355,8.56874537 L28.8730615,8.56874537 L29.1326843,8.49787408 C29.4381229,8.43535462 29.6624294,8.34801827 29.8017857,8.23753541 C30.2050601,7.96717454 30.2632843,7.52190236 30.2293997,7.25893883 L30.2293997,5.63581911 L30.9326244,5.63581911 L31.4098721,5.63581911 L31.4098721,5.15857132 L31.4098721,3.94373708 L31.4098721,3.46648929 L30.9326244,3.46648929 L30.231786,3.46648929 L30.231786,3.35624506 L30.231786,3.32880331 L30.5069193,3.32880331 L30.8798885,3.32880331 L30.9700883,2.96704949 L31.4640398,0.983846311 L31.611748,0.391104561 L31.0011094,0.391104561 L25.3321216,0.391104561 L25.3321216,0.0116925708 Z M3.34125947,7.67939413 L5.80552842,7.67939413 L5.80552842,3.30708853 L3.34125947,3.30708853 L3.34125947,7.67939413 Z M9.11595769,7.64288467 L11.579988,7.64288467 L11.579988,3.30708853 L9.11595769,3.30708853 L9.11595769,7.64288467 Z M9.1820565,0.0114539469 L8.70480872,0.0114539469 L6.22407473,0.0114539469 L5.74682694,0.0114539469 L5.74682694,0.488701733 L5.74682694,0.977164842 L0.570836077,0.977164842 L0.0935882908,0.977164842 L0.0935882908,1.45441263 L0.0935882908,9.47694791 L0.0935882908,9.9541957 L0.570836077,9.9541957 L5.85874155,9.9541957 L5.85874155,10.2670316 L5.85874155,10.7442794 L6.33598933,10.7442794 L8.62988082,10.7442794 L9.1071286,10.7442794 L9.1071286,10.2670316 L9.1071286,9.89907358 L12.7733461,9.89907358 C12.8678412,9.90647092 12.95995,9.9102889 13.0482408,9.9102889 C13.6822645,9.9102889 14.1657165,9.72344639 14.4852339,9.3550111 C14.8806337,8.89923947 14.8617824,8.34062093 14.8462719,8.17620907 L14.8462719,1.45441263 L14.8462719,0.977164842 L14.3690241,0.977164842 L9.1820565,0.977164842 L9.1820565,0.488701733 L9.1820565,0.0114539469 Z M40.0289672,8.51839573 L44.4683261,8.51839573 L44.4683261,8.51219151 L40.0289672,8.51219151 L40.0289672,8.51839573 Z M38.0133111,0.00954495572 L37.2277613,0.00954495572 L34.8644302,0.00954495572 L34.5761726,0.00954495572 L34.4420659,0.264633897 L33.4963995,2.0633808 L33.491627,2.07244851 L33.4873318,2.08151622 C33.4625149,2.12947962 33.4052451,2.18985147 33.3811441,2.19677156 L33.3233971,2.21228211 L33.3167157,2.21586147 C33.3121818,2.21610009 33.3066935,2.21633872 33.3002506,2.21633872 L33.2966713,2.21633872 L32.671238,1.92306995 L32.671238,2.67401935 L32.671238,3.94063497 L32.671238,4.41788276 L33.1484858,4.41788276 L33.543647,4.41788276 L33.543647,10.2670316 L33.543647,10.7442794 L34.0208948,10.7442794 L36.1978606,10.7442794 L36.6751083,10.7442794 L36.6751083,10.2670316 L36.6751083,2.98876426 L36.8254414,2.98876426 L36.8254414,3.14554016 L36.8254414,4.41263303 L36.8254414,4.88988082 L36.8254414,5.00251129 L36.8254414,6.18083608 L36.8254414,6.37197382 L36.7667399,6.37197382 L36.7667399,6.8492216 L36.7667399,7.91897251 L36.7667399,8.03494373 L36.7667399,8.99564352 L36.7667399,9.10493326 L36.7667399,10.2665544 L36.7667399,10.7438022 L37.2439877,10.7438022 L45.8478108,10.7438022 L45.9723725,10.7438022 L45.9804857,10.7438022 L45.9885989,10.7435635 C46.668677,10.7201784 47.1824342,10.4596011 47.4337052,10.0279305 L47.5845155,10.0226808 L47.596208,9.56142077 L47.596208,8.99564352 L47.596208,8.03494373 L47.596208,7.45484904 L47.596208,6.8492216 L47.596208,6.37197382 L47.5301092,6.37197382 L47.5301092,6.18083608 L47.5301092,5.00251129 L47.5301092,4.52526351 L47.4687829,4.52526351 L47.4687829,4.41263303 L47.4687829,3.14554016 L47.4687829,2.98876426 L47.839843,2.98876426 L47.839843,2.51151647 L47.839843,1.29047801 L47.839843,0.813230227 L47.3625953,0.813230227 L44.0566998,0.813230227 L44.0566998,0.489656228 L44.0566998,0.0124084424 L43.5794521,0.0124084424 L41.2158824,0.0124084424 L40.7386346,0.0124084424 L40.7386346,0.489656228 L40.7386346,0.813230227 L37.5957193,0.813230227 L37.6513187,0.706803971 L38.0133111,0.00954495572 Z M39.5517194,8.99564352 L44.8012064,8.99564352 C44.9369834,8.99564352 44.9453352,8.87728607 44.9453352,8.87728607 L44.9453352,8.03494373 L39.5517194,8.03494373 L39.5517194,8.99564352 Z M47.1189603,6.8492216 L47.1189603,7.45484904 L47.1189603,8.03494373 L47.1189603,8.99564352 L47.1189603,9.56142077 L47.1072677,9.56189802 C46.9786494,10.1691958 46.2644481,10.2565322 45.9723725,10.2665544 L45.8478108,10.2665544 L37.2439877,10.2665544 L37.2439877,9.10493326 L37.2439877,8.99564352 L37.2439877,8.03494373 L37.2439877,7.91897251 L37.2439877,6.8492216 L47.1189603,6.8492216 Z M37.3026892,6.18083608 L47.0528614,6.18083608 L47.0528614,5.00251129 L37.3026892,5.00251129 L37.3026892,6.18083608 Z M23.4885134,7.99580941 L26.7655353,7.05181329 C27.5405857,6.90983207 27.4124447,6.51825026 27.4124447,6.51825026 L27.4124447,5.15857132 L20.2594549,5.15857132 L20.2577845,5.28193987 L20.2577845,6.5685999 C20.1938333,6.84898298 20.6054595,6.96471557 20.6054595,6.96471557 L23.4885134,7.99580941 Z M29.7545382,3.35624506 L29.7545382,3.94373708 L30.9326244,3.94373708 L30.9326244,5.15857132 L29.752152,5.15857132 L29.752152,7.29544828 C29.752152,7.29544828 29.8254095,7.66388357 29.5166302,7.85382819 C29.5166302,7.85382819 29.4245213,7.95285711 29.0222015,8.03327336 L26.2214728,8.79806294 L27.2127165,9.00471123 C27.2127165,9.00471123 27.3358464,9.05243601 27.7565403,9.05243601 C27.8405359,9.05243601 27.9362241,9.05052701 28.0452752,9.04599316 L30.9376355,9.04599316 L30.9376355,10.1827974 L26.9647863,10.1827974 C26.9647863,10.1827974 26.9509461,10.1837519 26.9225498,10.1837519 C26.7994199,10.1837519 26.402827,10.1634689 25.6585591,9.94703698 L23.5505556,9.37601 L20.9333287,10.1460493 C20.9333287,10.1460493 20.5830289,10.2670316 20.0139109,10.2670316 C19.9759697,10.2670316 19.937074,10.2665544 19.8972238,10.2653613 L16.7175604,10.2653613 L16.7175604,9.12855703 L19.3743988,9.12855703 C19.3743988,9.12855703 19.8483059,9.08297986 20.1494493,9.00017737 C20.4505926,8.91737488 20.8801156,8.79329046 20.8801156,8.79329046 L18.2805469,7.91467728 C18.2805469,7.91467728 17.7226443,7.78534313 17.8467287,7.26275681 L17.8467287,5.16763903 L16.721617,5.16763903 L16.721617,3.94469158 L17.9028053,3.94469158 L17.9028053,3.43976342 L20.2577845,3.43976342 L20.2577845,3.94636194 L27.4036156,3.94636194 L27.4036156,3.35624506 L29.7545382,3.35624506 Z M37.3026892,4.41263303 L46.9915351,4.41263303 L46.9915351,3.14554016 L37.3026892,3.14554016 L37.3026892,4.41263303 Z M52.3376648,1.1055445 L52.7063387,5.95843861 C52.7063387,5.95843861 52.5882199,6.40227905 52.994835,6.40227905 C53.0368328,6.40227905 53.084319,6.39750657 53.138248,6.38700712 L53.5131261,6.39058648 L53.5131261,7.66197458 L51.9868877,7.66197458 C51.9868877,7.66197458 51.9298566,7.67080366 51.8403726,7.67080366 C51.510833,7.67080366 50.7429413,7.55005997 50.7854164,6.41945997 L50.3444394,1.20791415 L50.3310765,1.1055445 L52.3376648,1.1055445 Z M64.1323666,1.08311385 L63.5656348,6.51204604 C63.5656348,6.51204604 63.4864117,7.6192609 62.3200181,7.6192609 C62.3080869,7.6192609 62.2959171,7.61902228 62.2835087,7.61878366 L60.6522757,7.61878366 L60.6522757,6.35574739 L61.2154281,6.35574739 C61.2154281,6.35574739 61.2185302,6.35574739 61.2240186,6.35574739 C61.2874925,6.35574739 61.6743019,6.33212363 61.6702453,5.75274481 L62.1365163,1.16281423 L62.1453454,1.08311385 L64.1323666,1.08311385 Z M43.5794521,0.489656228 L43.5794521,1.29047801 L47.3625953,1.29047801 L47.3625953,2.51151647 L37.1184715,2.51151647 L37.1184715,1.29047801 L41.2158824,1.29047801 L41.2158824,0.489656228 L43.5794521,0.489656228 Z M59.9220866,0.489656228 L59.9220866,8.87704744 L64.1488316,8.87704744 L64.1488316,10.2670316 L50.3480188,10.2670316 L50.3480188,8.87704744 L54.3213452,8.87704744 L54.3213452,0.489656228 L56.496402,0.489656228 L56.496402,8.87704744 L57.7475071,8.87704744 L57.7475071,0.489656228 L59.9220866,0.489656228 Z M24.8548738,0.488940357 L24.8548738,0.868352347 L31.0011094,0.868352347 L30.5069193,2.85155552 L28.208494,2.85155552 L28.396291,2.17505678 L19.0209969,2.17505678 L19.0209969,2.92767654 L16.6605293,2.92767654 L16.6538478,0.862863997 L22.5578802,0.862863997 L22.5578802,0.488940357 L24.8379315,0.488940357 L24.8548738,0.488940357 Z M2.86401169,8.15664191 L6.2827762,8.15664191 L6.2827762,2.82984075 L2.86401169,2.82984075 L2.86401169,8.15664191 Z M8.6387099,8.12013246 L11.7863977,8.12013246 C11.7863977,8.12013246 11.8088283,8.12442769 11.8408039,8.12442769 C11.8565531,8.12442769 11.8746885,8.12323457 11.894017,8.12013246 L11.8942557,8.12013246 L11.8942557,8.11989383 C11.9698994,8.10676952 12.0572358,8.05976061 12.0572358,7.91109793 L12.0550882,7.90918893 C12.0569972,7.88699691 12.0569972,7.85263507 12.0572358,7.84141975 L12.0572358,7.84118112 L12.0572358,7.83736314 L12.0572358,2.82984075 L8.6387099,2.82984075 L8.6387099,8.12013246 Z M8.70480872,0.488701733 L8.70480872,1.45441263 L14.3690241,1.45441263 L14.3690241,8.2024577 C14.3690241,8.2024577 14.5444126,9.43304111 13.0482408,9.43304111 C12.9678246,9.43304111 12.8826358,9.42946176 12.792436,9.42182579 L8.62988082,9.42182579 L8.62988082,10.2670316 L6.33598933,10.2670316 L6.33598933,9.47694791 L0.570836077,9.47694791 L0.570836077,1.45441263 L6.22407473,1.45441263 L6.22407473,0.488701733 L8.70480872,0.488701733 Z M37.2277613,0.486792742 L36.1978606,2.46928004 L36.1978606,10.2670316 L34.0208948,10.2670316 L34.0208948,3.94063497 L33.1484858,3.94063497 L33.1484858,2.67401935 L33.1635191,2.68117806 L33.1888133,2.68690504 C33.2300952,2.69167751 33.2673205,2.6935865 33.3002506,2.6935865 C33.4398456,2.6935865 33.5035582,2.65827017 33.5035582,2.65827017 C33.7770212,2.5857285 33.9187637,2.28553965 33.9187637,2.28553965 L34.8644302,0.486792742 L37.2277613,0.486792742 Z" id="Fill-7" fill="#FEFEFE"></path>
                    <path d="M41.2255228,15.6940071 C40.3912937,15.6940071 39.9254998,15.4744731 39.9061713,15.4651668 C39.539645,15.3236628 39.0528523,14.9969867 38.9120642,14.2866034 C38.8815203,14.143429 38.8762706,13.9933346 38.8755547,13.9766309 C38.9106324,13.3070523 39.1721642,12.8589166 39.6988071,12.5463193 C40.1999173,12.2487553 40.8883472,12.2043713 41.2541577,12.2043713 C41.4488748,12.2043713 41.6426374,12.2163025 41.8301957,12.2401649 C42.5152849,12.327024 42.8777546,12.4666189 43.214453,12.7739665 C43.5485264,13.0786892 43.5580714,13.5468693 43.5580714,13.5993666 L43.5580714,13.8377518 L41.802754,13.838945 L41.7683922,13.5323132 C41.7669604,13.5079736 41.7609948,13.4898382 41.7571768,13.4812477 C41.7225764,13.4192055 41.5961057,13.3710035 41.3641633,13.3399824 C41.3023597,13.3318692 41.2493852,13.3287671 41.2042853,13.3287671 C41.1102675,13.3287671 41.0630199,13.3426073 41.0625427,13.3428459 L41.0374872,13.3500046 C40.8193849,13.397968 40.700073,13.5666751 40.6618932,13.8802269 C40.649962,13.9704267 40.6573593,14.2625024 40.7862162,14.428346 C40.8759388,14.5436013 41.0098068,14.5972917 41.2078646,14.5970531 C41.2283863,14.5970531 41.2486693,14.5965758 41.2679979,14.5956213 C41.471544,14.5848832 41.5724819,14.5617367 41.7180425,14.4925358 C41.7660059,14.4698665 41.7693467,14.3939841 41.7693467,14.3932683 L41.771017,14.3689286 L41.8039471,14.0883069 L43.5678549,14.0883069 L43.556401,14.3381461 C43.50629,15.411715 42.4198354,15.6178861 41.6070824,15.6792124 C41.4720213,15.6894732 41.3448347,15.6940071 41.2255228,15.6940071 Z M55.0308695,14.5319087 C55.0315854,14.5319087 55.3632726,14.5273749 55.5992716,14.4326412 C55.790648,14.3558043 55.8624738,14.1904379 55.8641441,14.0980905 L55.8653373,14.0520361 C55.8715415,13.8391836 55.861042,13.6800214 55.6653704,13.5678682 C55.439155,13.4385341 55.1606809,13.4235008 54.9712135,13.4235008 L54.6497872,13.4237394 L54.6545596,14.5319087 L55.0308695,14.5319087 Z M54.9089327,15.6942457 C54.7741102,15.6942457 54.6920236,15.6901891 54.6920236,15.6901891 L52.9500692,15.6918595 L52.9503078,12.2046099 L53.4297032,12.2062803 C53.4311349,12.2062803 53.8348866,12.209621 54.2157303,12.209621 C54.4156971,12.209621 54.6096983,12.2086665 54.7340214,12.205803 C54.7690991,12.2050872 54.8044154,12.2046099 54.8406863,12.2046099 C55.1885999,12.2046099 55.565387,12.2377786 55.5813748,12.2392104 C56.4533065,12.3401483 57.0999773,12.6701651 57.408518,13.1688891 C57.7533295,13.7260758 57.6239954,14.2916145 57.5521696,14.5087622 C57.4657877,14.7719644 57.2841949,14.9647725 57.2636733,14.9857714 C56.9076464,15.389523 56.3390057,15.5207661 56.3149047,15.5262545 C55.8192829,15.6720537 55.2203369,15.6942457 54.9089327,15.6942457 Z M11.6886573,13.6337284 C11.6667039,13.6721468 11.6440347,13.7628239 11.6371146,13.8401381 C11.6313876,13.9031348 11.633058,13.9952436 11.633058,13.9976298 C11.6313876,14.0544223 11.6366373,14.0937953 11.6406939,14.1267254 L11.6461823,14.1816089 C11.6511934,14.2152548 11.6767261,14.2875579 11.6776806,14.2901827 C11.7127583,14.3737011 11.8084465,14.6054049 12.4417543,14.6054049 L12.4913881,14.6049276 C13.0519156,14.5946668 13.1705117,14.4228576 13.2273042,14.3405324 C13.2757448,14.2639341 13.380978,13.9181681 13.2480645,13.6361146 C13.1571488,13.4437838 12.9328423,13.3411755 12.5813493,13.3313919 C12.5455557,13.3301988 12.5088076,13.3297216 12.4718209,13.3297216 C12.3183858,13.3297216 12.118419,13.3399824 11.9272812,13.4199214 C11.7748006,13.4838726 11.7306551,13.5580846 11.7289848,13.5611867 L11.6886573,13.6337284 Z M12.4961606,15.6942457 C11.8697729,15.6942457 11.3302442,15.6040459 10.8918921,15.4260325 C10.1595554,15.1287071 9.87845647,14.5166368 9.85984381,14.043207 C9.84146977,13.5712089 10.0321303,13.1135283 10.3702603,12.8188278 C10.7174581,12.5164913 11.106415,12.4045767 11.2529301,12.3623403 C11.4106605,12.3170018 11.5621867,12.2902759 11.6526251,12.2742881 C11.749745,12.2571072 11.8857607,12.241358 11.9132024,12.2384945 L12.1539739,12.217257 L12.2436965,12.2122459 C12.3472593,12.2060417 12.4739686,12.2050872 12.534579,12.2050872 L12.570134,12.2053258 C13.2955506,12.23754 13.8448628,12.3255922 14.3676878,12.665154 C14.7454294,12.910698 14.9926437,13.295837 15.0632764,13.749461 C15.0804573,13.8604211 15.0864229,13.9374966 15.0864229,13.9699495 C15.0864229,13.9888008 15.0747304,14.1188508 15.0685261,14.1660983 C15.0627992,14.208812 15.0119723,14.4123582 15.0119723,14.4123582 C14.855435,14.9354217 14.4516834,15.1938514 14.4347411,15.2045895 C13.8517829,15.6577363 12.8801064,15.6940071 12.5963826,15.6940071 L12.4961606,15.6942457 Z M18.4596103,15.6944843 L17.1118625,14.0329462 L17.1118625,15.6944843 L15.4610625,15.6944843 L15.4610625,12.2055644 L17.4881724,12.2055644 L18.7870023,13.811026 L18.7850933,12.2055644 L20.436132,12.2055644 L20.436132,15.6944843 L18.4596103,15.6944843 Z M23.5124712,13.3270967 C23.1881814,13.3270967 22.7741689,13.4082288 22.6312332,13.5864809 C22.4429589,13.8208095 22.5166937,14.1742115 22.5789746,14.2820695 C22.6448347,14.3954159 22.7424319,14.4798887 23.0256785,14.5512373 C23.0731646,14.5631685 23.1223212,14.5724748 23.1710004,14.5798721 L23.154774,13.5206207 L24.0854072,13.5191889 C24.0856458,13.494372 24.0861231,13.4542832 24.0861231,13.4344775 L24.0849299,13.4344775 L24.0861231,13.433523 L24.0861231,13.4304208 C24.0741919,13.42016 24.0496136,13.4070357 24.0426935,13.4046495 C23.8842473,13.3485729 23.8226823,13.3445162 23.6408509,13.332585 L23.5895467,13.3292443 C23.5685478,13.3278126 23.5425378,13.3270967 23.5124712,13.3270967 Z M23.4688031,15.6944843 C23.1822158,15.6944843 22.9350014,15.6784965 22.615484,15.638885 C21.6874757,15.5243455 21.0147949,15.0795506 20.8157826,14.4488676 C20.5762042,13.6890891 20.9210157,13.0870411 21.3240515,12.7765914 C21.6998841,12.4873792 22.1451563,12.3284557 22.812826,12.2449373 C23.0385642,12.2165411 23.2576209,12.2027009 23.4824046,12.2027009 C23.7916612,12.2027009 24.055102,12.2296654 24.2717725,12.255914 C24.7437705,12.3129452 25.1048085,12.423428 25.3761238,12.5938055 C25.6264403,12.7510586 25.7920453,12.9827624 25.8428722,13.2459646 C25.8641097,13.3562088 25.8629166,13.5163254 25.8624393,13.5471079 L25.8590986,13.7823911 L25.7875114,13.7823911 L25.7844093,15.4885519 L25.6216678,15.5427195 C25.5822949,15.5560825 25.5302749,15.5680137 25.4713348,15.5789904 C25.3959296,15.6348284 25.2350971,15.6398395 24.9136707,15.6501003 L24.7996085,15.6539183 C24.7996085,15.6539183 24.3934706,15.6679971 24.2335926,15.6739627 C23.9169387,15.6858939 23.6818942,15.6944843 23.4688031,15.6944843 Z M0.333739377,15.6942457 L0.333978001,14.7127856 L2.00529975,13.4237394 L0.33206901,13.4235008 L0.333023505,12.2034168 L4.61441339,12.207712 L4.62037899,13.2435783 L2.96122706,14.5335791 L4.6673879,14.5393061 L4.66834239,15.6944843 L0.333739377,15.6942457 Z M4.96733813,15.6942457 L4.96733813,12.2050872 L6.66753337,12.2053258 L6.66777199,13.3390279 L7.75494245,13.3387893 L7.75494245,12.2053258 L9.48043182,12.2055644 L9.48067044,15.6944843 L7.78023658,15.6944843 L7.78023658,14.5004104 L6.66777199,14.5004104 L6.66777199,15.6944843 L4.96733813,15.6942457 Z M61.2458288,15.6935298 L61.2474992,13.4227849 L59.8415272,13.416342 L59.8415272,12.2043713 L64.3870737,12.2053258 L64.3877896,13.4232621 L62.972034,13.4230235 L62.9725113,15.6949616 L61.2458288,15.6935298 Z M46.0266355,13.4425907 C46.0426233,13.442352 46.1323459,13.4387727 46.1325845,13.4387727 C46.1645601,13.4385341 46.1936723,13.4363864 46.2201595,13.4325685 C46.1776845,13.4270801 46.1275734,13.4235008 46.0703037,13.4235008 L45.5133555,13.4242166 L45.5135942,13.4418748 L46.0266355,13.4425907 Z M48.5462652,15.6961547 L48.5462652,15.6930526 L46.6363196,15.6956775 L46.5697435,15.5649116 C46.3661973,15.1652165 46.3301651,14.7535903 46.3241995,14.6548 C46.3172794,14.6233017 46.304871,14.6025414 46.2538055,14.6025414 L45.5157418,14.6030187 L45.5157418,15.6944843 L43.7900138,15.6930526 L43.7892979,12.2072348 L46.1060973,12.2050872 C46.4707146,12.2050872 46.9923464,12.2528119 47.3357262,12.3594768 C47.6552436,12.4587444 47.8955379,12.6534615 48.0504048,12.9383784 C48.1649442,13.1495605 48.1475247,13.3574019 48.1451385,13.3803098 C48.1215147,13.6972024 47.9382515,13.9052824 47.7540339,14.0358097 C47.9480351,14.2481849 48.0181905,14.5116257 48.0597111,14.7738734 C48.0964592,15.0055772 48.1563538,15.0540178 48.1818865,15.0747781 C48.2334293,15.1170145 48.4388845,15.2585185 48.4388845,15.2585185 L48.5462652,15.3322533 L48.5462652,12.2053258 L52.4224717,12.205803 L52.4224717,13.4237394 L52.2678435,13.4237394 L52.2678435,14.5128188 L50.2693683,14.5128188 L50.2693683,14.5321474 L52.4983541,14.5321474 L52.4983541,15.6937685 L50.2693683,15.6937685 L50.0307445,15.6961547 L48.5462652,15.6961547 Z M57.9972031,15.6959161 L59.723647,15.6959161 L59.723647,12.2048485 L57.9972031,12.2048485 L57.9972031,15.6959161 Z M29.7670421,13.9580183 L29.9121254,13.9577796 L29.8424472,13.8310704 L29.7670421,13.9580183 Z M30.9248452,15.748652 L30.5664321,15.173807 L29.0900661,15.1735684 L28.7323689,15.748652 L26.9329061,15.748652 L29.0833846,12.2594934 L30.678824,12.259732 L32.6393579,15.5393788 L32.6395965,12.2055644 L34.6667065,12.2055644 L35.9652977,13.811026 L35.9633887,12.2053258 L37.6146661,12.2053258 L37.6146661,15.6944843 L35.6379057,15.6944843 L34.290158,14.0327076 L34.290158,15.6944843 L32.731944,15.6944843 L32.7648741,15.7491292 L30.9248452,15.748652 Z" id="Fill-9" fill="#EF8200"></path>
                    <g id="Group-13" transform="translate(0.000000, 11.931195)">
                        <mask id="mask-2" fill="white">
                            <use xlink:href="#path-1"></use>
                        </mask>
                        <g id="Clip-12"></g>
                        <path d="M37.8533377,0.0356026848 L37.3760899,0.0356026848 L36.202299,0.0356026848 L35.7243353,0.0356026848 L35.7250512,0.513327719 L35.725767,1.20438251 L34.9237521,0.212900237 L34.7805778,0.0356026848 L34.552692,0.0356026848 L32.8780295,0.0356026848 L32.4007817,0.0356026848 L32.4007817,0.512850471 L32.4005431,2.74398387 L30.9528119,0.322428604 L30.8139328,0.0902475563 L30.5433333,0.0900089324 L29.2168231,0.0897703086 L28.9502802,0.0897703086 L28.8104466,0.316701631 L26.9541914,3.32861241 L26.5055784,4.05617666 L27.3603292,4.05617666 L28.5997417,4.05617666 L28.8646142,4.05617666 L29.0046865,3.83115433 L29.2225501,3.48109308 L30.433805,3.48109308 L30.6521458,3.83139295 L30.7924567,4.05593803 L31.0573292,4.05593803 L32.3439892,4.05641528 L33.1853771,4.05665391 L33.1529242,4.00200903 L34.0515818,4.00200903 L34.5288296,4.00200903 L34.528591,3.52476125 L34.528591,2.77476635 L35.3809555,3.82518873 L35.5241299,4.00200903 L35.7515384,4.00200903 L37.3760899,4.00200903 L37.8533377,4.00200903 L37.8533377,3.52476125 L37.8533377,0.512850471 L37.8533377,0.0356026848 Z M48.0776556,2.13859505 C48.1781163,2.03383916 48.2554304,1.91524309 48.307689,1.78686344 L48.307689,2.86973866 C48.3033938,2.85136462 48.2990986,2.82988847 48.2955192,2.80531021 C48.2702251,2.64590945 48.2294204,2.38819565 48.0776556,2.13859505 Z M54.8896519,1.73126407 L54.9135143,1.73126407 L54.9712613,1.73078682 C55.1337641,1.73078682 55.3697632,1.74271802 55.5465835,1.84389455 C55.6126823,1.88159712 55.6329653,1.90355052 55.6267611,2.11353955 L55.625568,2.16269607 C55.6253294,2.16269607 55.6107733,2.23977158 55.5105513,2.2798604 C55.3509119,2.3438116 55.1005954,2.36123115 55.0254289,2.36218564 L54.8920381,2.36218564 L54.8896519,1.73126407 Z M41.1470633,1.63891662 C41.1601876,1.63748488 41.1792775,1.63629176 41.204333,1.63629176 C41.2432287,1.63629176 41.2866582,1.63939387 41.3329513,1.64559809 C41.4405707,1.65991552 41.5030901,1.6756647 41.5379292,1.68735727 L41.5405541,1.71145829 L41.5770635,2.03980476 L41.5419858,2.34070949 L41.537452,2.37936656 C41.4591833,2.40847868 41.3871189,2.41921675 41.2556371,2.42613685 C41.239888,2.42685272 41.2241388,2.42732996 41.2079124,2.42732996 C41.0341942,2.42732996 40.992435,2.37363959 40.9745382,2.35073169 C40.9108256,2.26840645 40.8893495,2.07488247 40.8962696,1.99852283 L40.8988944,1.97776255 C40.9342108,1.68592553 41.03491,1.66373351 41.0890777,1.65156369 L41.1470633,1.63891662 Z M52.7117316,0.0339323176 L52.7117316,0.512850471 L52.711493,2.36242427 L52.5065151,2.36242427 L52.5065151,2.34309573 L52.5065151,1.73126407 L52.6611434,1.73126407 L52.6611434,1.25401628 L52.6611434,0.513327719 L52.6611434,0.0360799326 L52.1838956,0.0360799326 L50.50804,0.0360799326 L50.0307922,0.0356026848 L48.7849368,0.0356026848 L48.307689,0.0356026848 L48.307689,0.512850471 L48.307689,0.993677615 C48.2940875,0.960508894 48.2783383,0.926862925 48.2599643,0.892978332 C48.0745535,0.551746165 47.787489,0.318849246 47.4066452,0.200491795 C47.0145862,0.0785549856 46.461456,0.0353640609 46.1070995,0.0353640609 L46.0572271,0.0356026848 L44.0277309,0.0370344282 L43.5507217,0.037511676 L43.5507217,0.514520838 L43.5509604,0.869115943 C43.5025197,0.798244647 43.4447727,0.72975959 43.3753332,0.666524258 C43.0018868,0.326007963 42.5912151,0.164936835 41.8603101,0.0721121405 C41.6629681,0.0470566317 41.4589447,0.0346481893 41.254444,0.0346481893 C40.8640553,0.0346481893 40.1271847,0.0833274634 39.5771567,0.409764949 C38.9834604,0.761973815 38.6763515,1.28646913 38.6376944,2.01307889 L38.6367399,2.03264605 L38.6372172,2.0522132 C38.6381717,2.08323431 38.6441373,2.24454406 38.675397,2.38962739 L38.6777832,2.40179721 C38.8462517,3.25082102 39.4614241,3.61496108 39.8231779,3.75837404 C39.936047,3.80872368 40.4204535,4.00153179 41.2258092,4.00153179 C41.3563364,4.00153179 41.490443,3.99628206 41.6250269,3.98602123 C42.0287786,3.95547738 43.0732353,3.87625424 43.5514376,3.18400633 L43.5514376,3.52380675 L43.5514376,4.00057729 L44.0282082,4.00081592 L45.276927,4.00177041 L45.754652,4.00200903 L45.7544134,3.524284 L45.7544134,2.91054335 L46.1044746,2.91054335 C46.1550629,3.30522727 46.3540752,3.73570477 46.3571773,3.74214762 L46.4900909,4.00320215 L46.783121,4.00272491 L48.3036324,4.00081592 L48.307689,4.00081592 L48.307689,4.00344078 L48.7849368,4.00344078 L50.0307922,4.00344078 L50.50804,4.00344078 L50.50804,4.00129316 L52.259778,4.00129316 L52.7370258,4.00129316 L52.7370258,3.99938417 L53.189218,3.99914555 L54.6932644,3.99795243 C54.7226152,3.99914555 54.7999293,4.00177041 54.9099349,4.00177041 C55.2313613,4.00177041 55.8484427,3.97862389 56.384392,3.82375699 C56.5041811,3.7948835 57.0601748,3.64073246 57.4434048,3.21192532 C57.4942317,3.15799632 57.6593594,2.96972207 57.758627,2.70938341 L57.758627,3.52619299 L57.758627,4.00344078 L58.2358747,4.00344078 L59.4850708,4.00344078 L59.9623186,4.00344078 L59.9623186,3.52619299 L59.9623186,1.72434398 L60.0778126,1.72482122 L61.008923,1.72911645 L61.0074913,3.52356813 L61.0072526,4.00081592 L61.4845004,4.00129316 L62.7334579,4.00224766 L63.2111829,4.00272491 L63.2111829,3.52499987 L63.2109443,1.7305482 L64.1489748,1.73078682 L64.6264612,1.73078682 L64.6262226,1.25306179 L64.6257453,0.512611847 L64.6255067,0.0356026848 L64.1484976,0.0356026848 L60.0801988,0.0346481893 L59.6027124,0.0346481893 L59.6027124,0.0351254371 L59.4850708,0.0351254371 L58.2358747,0.0351254371 L57.758627,0.0351254371 L57.758627,0.512373223 L57.758627,1.40840594 C57.721163,1.31057015 57.6727224,1.21130261 57.6116346,1.11227369 C57.263721,0.550314422 56.5547694,0.180686012 55.6153071,0.0716348927 L55.6086257,0.070919021 L55.6024215,0.0704417732 C55.586195,0.068771406 55.1991471,0.0348868132 54.8409726,0.0348868132 C54.8030314,0.0348868132 54.7653288,0.0353640609 54.7288194,0.0360799326 C54.6061667,0.0389434193 54.4157448,0.0398979149 54.2186415,0.0398979149 C53.8380364,0.0398979149 53.4333303,0.0363185565 53.432853,0.0363185565 L53.1904111,0.0356026848 L52.7117316,0.0339323176 Z M22.9276518,2.33951637 C22.8238504,2.29727994 22.8016584,2.2588615 22.7854319,2.23118112 C22.7563198,2.17605901 22.7085951,1.93982135 22.8171689,1.8045216 C22.8348271,1.78256821 22.8701434,1.76013756 22.9185841,1.73866141 L22.9200158,1.83482684 L22.9276518,2.33951637 Z M11.9294766,1.76133068 C11.939976,1.75202435 11.9669405,1.73078682 12.0194378,1.70883342 C12.1375566,1.65919965 12.2771516,1.63700763 12.47163,1.63700763 C12.5064691,1.63700763 12.540831,1.6377235 12.5744769,1.638678 C12.7176513,1.6427346 12.9674905,1.66993773 13.0321576,1.80714647 C13.1137669,1.97943292 13.0584062,2.20851185 13.0309644,2.27365618 C13.0018523,2.31589261 12.9247768,2.42709134 12.486902,2.43520455 L12.4415634,2.4356818 C12.0070293,2.4356818 11.9249427,2.32352857 11.8984555,2.26649746 C11.8920126,2.24621443 11.8855698,2.22378378 11.882229,2.21042085 C11.8807973,2.19729653 11.8791269,2.18321772 11.8776952,2.16818442 C11.8738772,2.13644744 11.8707751,2.10900569 11.871491,2.08442743 L11.8717296,2.07368936 L11.871491,2.06271266 C11.8710137,2.02811219 11.8717296,1.96344512 11.8748317,1.92956052 C11.8781724,1.89066483 11.8893877,1.84031519 11.8977396,1.81812317 L11.9201702,1.77779573 L11.9294766,1.76133068 Z M3.65376133,2.36600362 L4.67387847,1.57305643 L4.72876196,1.53034275 L4.72876196,2.36982161 L4.43072072,2.36862849 L3.65376133,2.36600362 Z M23.4822137,0.032977822 C23.2476464,0.032977822 23.0190447,0.0472952556 22.7832843,0.0768846183 C22.0702761,0.16589133 21.5904035,0.339370901 21.1785387,0.656502054 C20.9590047,0.825447771 20.7893431,1.03734579 20.6748036,1.27429931 L20.6748036,0.512850471 L20.6748036,0.0356026848 L20.1975558,0.0356026848 L19.0240035,0.0356026848 L18.5462785,0.0356026848 L18.5467557,0.513566343 L18.5477102,1.20462114 L17.7452181,0.212900237 L17.6020437,0.0358413087 L17.3743965,0.0358413087 L15.6997341,0.0358413087 L15.2224863,0.0358413087 L15.2224863,0.513089095 L15.2224863,1.46663017 C15.0931521,1.08220708 14.8428357,0.757917209 14.4977855,0.533849373 C13.8680571,0.125086645 13.1824906,0.0623285609 12.5892716,0.0358413087 L12.5806812,0.0356026848 L12.5720907,0.0356026848 L12.5336723,0.0353640609 C12.4668576,0.0353640609 12.3389552,0.0363185565 12.2270406,0.0430000255 C12.2263247,0.0430000255 12.1831338,0.0451476406 12.1583169,0.0468180078 L12.1428063,0.0477725034 L12.1129783,0.0499201184 L12.0769461,0.0523063573 L12.0299372,0.0561243396 C12.0106087,0.057556083 11.941885,0.0644761759 11.9051369,0.0680555343 L11.8912967,0.0694872776 C11.8867629,0.0699645254 11.7304642,0.0871454457 11.6111523,0.108144348 C11.5154641,0.125086645 11.3553475,0.153244264 11.1928446,0.200014547 C11.0267624,0.24797795 10.6008187,0.370630631 10.2137708,0.707567568 C9.98755532,0.904670903 9.81813235,1.16405507 9.71934206,1.45231274 L9.71910344,0.512850471 L9.71910344,0.0356026848 L9.24209428,0.0356026848 L7.99361407,0.0356026848 L7.51636628,0.0356026848 L7.51636628,0.512850471 L7.51636628,1.16906618 L6.90620499,1.16906618 L6.90620499,0.512611847 L6.90596636,0.0356026848 L6.4289572,0.0356026848 L5.20624837,0.0353640609 L4.72876196,0.0353640609 L4.72876196,0.0379889238 L4.37774622,0.0377502999 L0.571933747,0.0339323176 L0.094208713,0.0334550698 L0.094208713,0.51094148 L0.0937314652,1.25353903 L0.0937314652,1.73078682 L0.570979251,1.73102544 L1.30522497,1.73102544 L0.281051221,2.52087053 L0.0954018324,2.66404487 L0.0954018324,2.89861215 L0.0951632085,3.524284 L0.0949245846,4.00177041 L0.572410995,4.00177041 L4.4295276,4.00200903 L4.90701401,4.00200903 L4.90701401,4.00153179 L5.20577113,4.00177041 L6.4289572,4.00200903 L6.90644361,4.00224766 L6.90644361,3.52476125 L6.90644361,2.80793507 L7.54166041,2.80793507 L7.54166041,3.52476125 L7.54166041,4.00200903 L8.0189082,4.00200903 L9.24209428,4.00200903 L9.71934206,4.00200903 L9.71934206,3.52476125 L9.71934206,2.62013807 C9.86991374,3.0448886 10.2049417,3.47345711 10.8022173,3.71589899 C11.2692042,3.90560498 11.8390381,4.00177041 12.4962083,4.00177041 L12.5625457,4.00153179 L12.5964303,4.00153179 C12.8968578,4.00153179 13.9234178,3.96215884 14.5853605,3.45985555 C14.6901164,3.38826838 15.0542564,3.11098742 15.2224863,2.6084455 L15.2224863,3.52476125 L15.2224863,4.00200903 L15.6997341,4.00200903 L16.8732864,4.00200903 L17.3502955,4.00200903 L17.3502955,3.52476125 L17.3502955,2.77476635 L18.2024215,3.82518873 L18.3458344,4.00200903 L18.573243,4.00200903 L20.1975558,4.00200903 L20.6748036,4.00200903 L20.6748036,3.52476125 L20.6748036,2.80531021 C20.9728449,3.41189215 21.6684335,3.83139295 22.5864196,3.94450068 C22.9159592,3.98530536 23.171764,4.00200903 23.4688508,4.00200903 C23.6886234,4.00200903 23.9210431,3.99317995 24.2429467,3.98124876 C24.4037792,3.97528316 24.5856106,3.96836307 24.79727,3.9616816 L24.7977472,3.9616816 L24.8022811,3.9616816 L24.8027583,3.9616816 L24.8113488,3.96120435 L24.8139737,3.96120435 L24.8149282,3.96120435 C24.8165985,3.96120435 24.8182689,3.96096572 24.8199393,3.96096572 L24.8220869,3.96096572 C24.8235186,3.96096572 24.825189,3.9607271 24.8268594,3.9607271 L24.8278138,3.9607271 L24.8354498,3.96048848 L24.8402223,3.96024985 L24.8423699,3.96024985 L24.8428472,3.96024985 L24.8430858,3.96024985 C24.8445175,3.96024985 24.8464265,3.96001123 24.8480969,3.96001123 L24.8526307,3.96001123 C24.853108,3.96001123 24.8533466,3.95977261 24.8535852,3.95977261 L24.8538239,3.95977261 L24.8557328,3.95977261 L24.8571646,3.95977261 C24.8585963,3.95977261 24.8597894,3.95977261 24.8612212,3.95953398 L24.8626529,3.95953398 L24.8631302,3.95953398 L24.8726751,3.95929536 L24.8738683,3.95929536 L25.0976975,3.95213664 L25.1587852,3.94998903 L25.3074479,3.94521655 L25.3064934,3.91395682 C25.4565878,3.89462828 25.6026256,3.86957277 25.6975979,3.8378358 L26.0226037,3.7290233 L26.0233196,3.38635939 L26.0257058,2.08991578 L26.0937136,2.08991578 L26.1008723,1.61982671 C26.1018268,1.57067019 26.1023041,1.39957686 26.0772486,1.26952684 C26.0140132,0.940941735 25.8099898,0.653638568 25.5033581,0.460830462 C25.2012602,0.271124467 24.8080081,0.149187658 24.300455,0.0876226935 C24.0766258,0.0606581936 23.804356,0.032977822 23.4822137,0.032977822 Z M24.7879637,3.48443381 C24.787725,3.48443381 24.787725,3.48443381 24.787725,3.48467243 C24.787725,3.48443381 24.7879637,3.48443381 24.7879637,3.48443381 Z M24.7882023,3.48443381 L24.7879637,3.48443381 L24.7882023,3.48443381 Z M24.7884409,3.48443381 L24.7882023,3.48443381 L24.7884409,3.48443381 Z M24.7886795,3.48443381 L24.7884409,3.48443381 L24.7886795,3.48443381 Z M24.7889182,3.48443381 L24.7886795,3.48443381 L24.7889182,3.48443381 Z M24.7891568,3.48443381 L24.7889182,3.48443381 L24.7891568,3.48443381 Z M24.7893954,3.48443381 L24.7891568,3.48443381 L24.7893954,3.48443381 Z M24.7927361,3.48443381 L24.7893954,3.48443381 L24.7927361,3.48443381 Z M24.7944065,3.48443381 L24.7927361,3.48443381 L24.7944065,3.48443381 Z M24.7951224,3.48419519 C24.7948838,3.48419519 24.7946451,3.48419519 24.7944065,3.48443381 C24.7946451,3.48443381 24.7948838,3.48419519 24.7951224,3.48419519 Z M24.7965541,3.48419519 L24.7951224,3.48419519 L24.7965541,3.48419519 Z M24.7970314,3.48419519 L24.7965541,3.48419519 L24.7970314,3.48419519 Z M24.7982245,3.48419519 L24.7970314,3.48419519 L24.7982245,3.48419519 Z M24.7987017,3.48419519 L24.7982245,3.48419519 L24.7987017,3.48419519 Z M24.799179,3.48419519 L24.7987017,3.48419519 L24.799179,3.48419519 Z M24.8013266,3.48419519 L24.799179,3.48419519 L24.8013266,3.48419519 Z M24.8018038,3.48419519 L24.8013266,3.48419519 L24.8018038,3.48419519 Z M24.8022811,3.48395656 C24.8020425,3.48419519 24.8020425,3.48419519 24.8018038,3.48419519 C24.8020425,3.48419519 24.8020425,3.48419519 24.8022811,3.48395656 Z M24.8027583,3.48395656 L24.8022811,3.48395656 L24.8027583,3.48395656 Z M24.804906,3.48395656 L24.8027583,3.48395656 L24.804906,3.48395656 Z M24.8082467,3.48395656 L24.804906,3.48395656 L24.8082467,3.48395656 Z M24.8089626,3.48395656 L24.8082467,3.48395656 L24.8089626,3.48395656 Z M24.8113488,3.48371794 C24.8106329,3.48371794 24.8096784,3.48371794 24.8089626,3.48395656 C24.8096784,3.48371794 24.8106329,3.48371794 24.8113488,3.48371794 Z M24.8115874,3.48371794 L24.8113488,3.48371794 L24.8115874,3.48371794 Z M24.8158827,3.48371794 L24.8115874,3.48371794 L24.8158827,3.48371794 Z M24.8185075,3.48347932 C24.817553,3.48347932 24.8168371,3.48347932 24.8158827,3.48371794 C24.8168371,3.48347932 24.817553,3.48347932 24.8185075,3.48347932 Z M24.8189848,3.48347932 L24.8185075,3.48347932 L24.8189848,3.48347932 Z M24.8197006,3.48347932 L24.8189848,3.48347932 L24.8197006,3.48347932 Z M24.8208938,3.48347932 L24.8197006,3.48347932 L24.8208938,3.48347932 Z M24.8218483,3.48347932 L24.8208938,3.48347932 L24.8218483,3.48347932 Z M24.8239959,3.48324069 C24.8235186,3.48347932 24.8228027,3.48347932 24.8218483,3.48347932 C24.8225641,3.48347932 24.8235186,3.48347932 24.8239959,3.48324069 Z M24.8254276,3.48324069 L24.8239959,3.48324069 L24.8254276,3.48324069 Z M24.8256662,3.48324069 L24.8254276,3.48324069 L24.8256662,3.48324069 Z M24.8268594,3.48324069 L24.8256662,3.48324069 L24.8268594,3.48324069 Z M24.8333022,3.48300207 C24.8311546,3.48324069 24.829007,3.48324069 24.8268594,3.48324069 C24.829007,3.48324069 24.8311546,3.48324069 24.8333022,3.48300207 Z M24.8349726,3.48300207 L24.8333022,3.48300207 L24.8349726,3.48300207 Z M24.8380747,3.48300207 L24.8349726,3.48300207 L24.8380747,3.48300207 Z M24.8385519,3.48276344 C24.8383133,3.48276344 24.8380747,3.48300207 24.8380747,3.48300207 C24.8380747,3.48300207 24.8383133,3.48276344 24.8385519,3.48276344 Z M24.8387905,3.48276344 L24.8385519,3.48276344 L24.8387905,3.48276344 Z M24.8402223,3.48276344 L24.8387905,3.48276344 L24.8402223,3.48276344 Z M24.8409382,3.48276344 L24.8402223,3.48276344 L24.8409382,3.48276344 Z M24.841654,3.48276344 L24.8409382,3.48276344 L24.841654,3.48276344 Z M24.8423699,3.48276344 L24.841654,3.48276344 L24.8423699,3.48276344 Z M24.8430858,3.48276344 L24.8423699,3.48276344 L24.8430858,3.48276344 Z M24.8433244,3.48276344 L24.8430858,3.48276344 L24.8433244,3.48276344 Z M24.8471424,3.48252482 C24.8457106,3.48252482 24.8445175,3.48276344 24.8433244,3.48276344 C24.8445175,3.48276344 24.8459493,3.48252482 24.8471424,3.48252482 Z M24.8476196,3.48252482 L24.8471424,3.48252482 L24.8476196,3.48252482 Z M24.84929,3.48252482 L24.8476196,3.48252482 L24.84929,3.48252482 Z M24.8497672,3.48252482 L24.84929,3.48252482 L24.8497672,3.48252482 Z M24.8502445,3.48252482 L24.8497672,3.48252482 L24.8502445,3.48252482 Z M24.8507217,3.48252482 L24.8502445,3.48252482 L24.8507217,3.48252482 Z M25.2926532,3.46820739 C25.2926532,3.46820739 24.9900781,3.47799097 24.8507217,3.48252482 C25.1805,3.47178674 25.2926532,3.46820739 25.2926532,3.46820739 Z M11.5035329,1.54489881 C11.5021012,1.54776229 11.4811023,1.58451037 11.4811023,1.58451037 C11.4968514,1.55683 11.502817,1.54633055 11.5035329,1.54489881 Z M24.2844672,1.36473777 C24.2844672,1.36473777 24.2849445,1.36521502 24.2854217,1.36616951 C24.2851831,1.36569226 24.2847059,1.36521502 24.2844672,1.36473777 Z M29.347589,2.26578159 L30.3152089,2.26482709 L29.8506082,1.41890539 L29.347589,2.26578159 Z M29.2168231,0.567018095 L30.5430947,0.567256718 L32.3439892,3.5791675 L31.0573292,3.57869025 L30.6989161,3.00408391 L28.9574389,3.00384529 L28.5997417,3.57892887 L27.3603292,3.57892887 L29.2168231,0.567018095 Z M20.1975558,0.512850471 L20.1975558,3.52476125 L18.573243,3.52476125 L16.8730478,1.42845035 L16.8730478,3.52476125 L15.6997341,3.52476125 L15.6997341,0.513089095 L17.3743965,0.513089095 L19.0266284,2.555471 L19.0240035,0.512850471 L20.1975558,0.512850471 Z M37.3760899,0.512850471 L37.3760899,3.52476125 L35.7515384,3.52476125 L34.0513432,1.42845035 L34.0513432,3.52476125 L32.8777909,3.52476125 L32.8780295,0.512850471 L34.552692,0.512850471 L36.2049238,2.555471 L36.202299,0.512850471 L37.3760899,0.512850471 Z M50.0307922,0.512850471 L50.0307922,0.513327719 L52.1838956,0.513327719 L52.1838956,1.25401628 L50.0307922,1.25401628 L50.0307922,1.65896103 L52.0292673,1.65896103 L52.0292673,2.34309573 L50.0307922,2.34309573 L50.0307922,2.83967205 L52.259778,2.83967205 L52.259778,3.52404538 L50.0307922,3.52404538 L50.0307922,3.52619299 L48.7849368,3.52619299 L48.7849368,0.512850471 L50.0307922,0.512850471 Z M11.5035329,1.54489881 C11.5037715,1.54489881 11.5037715,1.54466018 11.5037715,1.54466018 C11.5037715,1.54466018 11.5037715,1.54489881 11.5035329,1.54489881 C11.4985218,1.55062578 11.4811023,1.58451037 11.4811023,1.58451037 C11.430514,1.67351709 11.4061744,1.81311206 11.3994929,1.88732409 C11.3928114,1.96177475 11.3944818,2.06987137 11.3944818,2.06987137 C11.3918569,2.15243524 11.4042654,2.21877268 11.4085606,2.26912232 C11.4126172,2.31947196 11.4512743,2.43472731 11.4512743,2.43472731 C11.5488714,2.67072634 11.7698372,2.91292959 12.4415634,2.91292959 C12.4592216,2.91292959 12.477357,2.91269096 12.4957311,2.91221372 C13.2096937,2.8990894 13.3631289,2.63063752 13.4332843,2.53089273 C13.5034398,2.43162519 13.6451823,1.98683026 13.4638282,1.60312304 C13.2822354,1.21917719 12.8236003,1.1683503 12.5880785,1.16166884 C12.5498987,1.16047572 12.511003,1.15975984 12.47163,1.15975984 C12.267368,1.15975984 12.0483113,1.17908838 11.8349815,1.26857234 C11.5798926,1.37571447 11.5154641,1.52389991 11.5154641,1.52389991 L11.5130779,1.52819514 L11.5037715,1.54466018 C11.5037715,1.54489881 11.5037715,1.54489881 11.5035329,1.54489881 Z M12.5336723,0.512611847 C12.5549098,0.512611847 12.5680341,0.512850471 12.5680341,0.512850471 C13.2058758,0.541246714 13.7427795,0.612595258 14.2376855,0.934021642 C14.7325914,1.25568665 14.8115759,1.75178572 14.8275637,1.85510987 C14.8433129,1.95819539 14.8478468,2.02310109 14.8478468,2.03861164 C14.8478468,2.05436082 14.8373473,2.16341194 14.831859,2.20278488 C14.8268479,2.2419192 14.7810321,2.42231886 14.7810321,2.42231886 C14.6509821,2.85565985 14.3076023,3.07137585 14.3076023,3.07137585 C13.7496996,3.50376235 12.7818411,3.524284 12.5964303,3.524284 C12.5723293,3.524284 12.5384447,3.52452262 12.4962083,3.52452262 C12.2141549,3.52452262 11.5612799,3.50901207 10.9816625,3.27372891 C10.3154245,3.00312942 10.1123556,2.46145318 10.0982768,2.10256285 C10.084198,1.74367251 10.2156798,1.33896639 10.5270839,1.0674124 C10.8389654,0.796097032 11.1871176,0.69849986 11.3250422,0.658649669 C11.4632055,0.618799479 11.6028004,0.594221218 11.6941934,0.577994794 C11.7853477,0.562006993 11.9130115,0.547212311 11.9387829,0.544348825 C11.9647929,0.541962586 12.0466409,0.533372126 12.0702647,0.531701758 C12.0943657,0.529554143 12.1058196,0.528838272 12.1170349,0.527883776 C12.1282503,0.526929281 12.1425677,0.526213409 12.148056,0.525736161 C12.153783,0.525258913 12.1704867,0.524065794 12.1704867,0.524065794 L12.1728729,0.524065794 L12.1886221,0.522872674 C12.2122459,0.521679555 12.2554368,0.51953194 12.2554368,0.51953194 C12.3558975,0.513327719 12.4756866,0.512611847 12.5336723,0.512611847 Z M46.0266833,1.75011536 C46.0390917,1.75011536 46.1419386,1.74582013 46.1419386,1.74582013 C46.1445635,1.74605875 46.1474269,1.74605875 46.1502904,1.74605875 C46.451911,1.74605875 46.7029434,1.56303422 46.5879267,1.40912181 C46.4719554,1.25377766 46.1207011,1.25353903 46.0703514,1.25353903 C46.0197632,1.25353903 45.2740635,1.25473215 45.2740635,1.25473215 L45.2754952,1.74868361 L45.3785808,1.74939948 C45.3785808,1.74939948 46.0145134,1.75011536 46.0266833,1.75011536 Z M46.1070995,0.512611847 C46.4418888,0.512611847 46.9432376,0.556280019 47.2649026,0.656263431 C47.6016009,0.760780696 47.7578996,0.968622107 47.8407021,1.12086415 C47.923266,1.27334482 47.9077554,1.42463237 47.9077554,1.42463237 C47.8712459,1.91357272 47.2975941,2.06486027 47.2975941,2.06486027 C47.2975941,2.06486027 47.2975941,2.06462165 47.2973555,2.06462165 L47.2971169,2.06462165 L47.2971169,2.06438302 L47.2968782,2.06438302 C47.2968782,2.06438302 47.2966396,2.06438302 47.2966396,2.0641444 C47.2966396,2.0641444 47.296401,2.0641444 47.2961624,2.0641444 L47.2961624,2.06390578 C47.1699303,2.00472705 47.1276939,1.98492127 47.1276939,1.98492127 C47.1276939,1.98492127 47.2789814,2.05603119 47.2961624,2.06390578 L47.2961624,2.0641444 C47.296401,2.0641444 47.2966396,2.0641444 47.2966396,2.0641444 C47.2966396,2.06438302 47.2968782,2.06438302 47.2968782,2.06438302 L47.2971169,2.06438302 L47.2971169,2.06462165 L47.2973555,2.06462165 C47.2975941,2.06462165 47.2975941,2.06462165 47.2975941,2.06486027 C47.6801082,2.24454406 47.7707853,2.5425853 47.8239984,2.87976087 C47.8774502,3.21717505 47.9922283,3.29663681 48.0385213,3.33457801 C48.0845757,3.3725192 48.3031552,3.52356813 48.3031552,3.52356813 L46.7824051,3.52547712 C46.5755182,3.11886201 46.561678,2.69411148 46.561678,2.69411148 L46.561678,2.6943501 C46.561678,2.69458872 46.561678,2.69506597 46.5619166,2.6953046 L46.5619166,2.69578184 L46.5619166,2.69602047 C46.5619166,2.69625909 46.5621553,2.69649772 46.5621553,2.69673634 L46.5621553,2.69697496 C46.5621553,2.69721359 46.5621553,2.69745221 46.5623939,2.69769084 L46.5623939,2.69792946 L46.5623939,2.69816808 L46.5623939,2.69840671 L46.5623939,2.69864533 L46.5623939,2.69888395 C46.5788589,2.7912314 46.5845859,2.82249113 46.5845859,2.82249113 C46.5845859,2.82249113 46.5666891,2.72203047 46.5623939,2.69888395 L46.5623939,2.69864533 L46.5623939,2.69840671 L46.5623939,2.69816808 L46.5623939,2.69792946 L46.5623939,2.69769084 C46.5621553,2.69745221 46.5621553,2.69721359 46.5621553,2.69697496 L46.5621553,2.69673634 C46.5621553,2.69649772 46.5619166,2.69625909 46.5619166,2.69602047 L46.5619166,2.69578184 L46.5619166,2.6953046 C46.561678,2.69506597 46.561678,2.69482735 46.561678,2.6943501 L46.561678,2.69411148 C46.5184871,2.45238547 46.3185203,2.43257969 46.2538532,2.43257969 C46.2412061,2.43257969 46.2338088,2.43329556 46.2338088,2.43329556 L45.276927,2.43353419 L45.2771656,3.52452262 L44.0286854,3.52356813 L44.0279695,0.514282214 L46.0629541,0.512850471 C46.0775101,0.512850471 46.0918276,0.512611847 46.1070995,0.512611847 Z M5.20600975,0.512611847 L6.4289572,0.512850471 L6.42919582,1.64631396 L7.99361407,1.64631396 L7.99361407,0.512850471 L9.24185565,0.512850471 L9.24209428,3.52476125 L8.0189082,3.52476125 L8.0189082,2.33068729 L6.42919582,2.33044866 L6.42919582,3.52476125 L5.20600975,3.52452262 L5.20600975,0.512611847 Z M58.2358747,3.52619299 L59.4850708,3.52619299 L59.4850708,0.512373223 L58.2358747,0.512373223 L58.2358747,3.52619299 Z M54.866744,1.25425491 C54.857199,1.25425491 54.84837,1.25425491 54.8404954,1.25401628 L54.4439025,1.25401628 L54.4102565,1.25473215 L54.416938,2.83943343 L55.0306786,2.83943343 C55.0306786,2.83943343 55.4055567,2.83633132 55.6880874,2.72274634 C55.9710954,2.60939999 56.099475,2.35693592 56.1028158,2.1710479 C56.1059179,1.98515989 56.1452908,1.63653038 55.7840142,1.42964347 C55.5005291,1.26761784 55.1705122,1.25353903 54.9712613,1.25353903 C54.9304566,1.25353903 54.8951402,1.25425491 54.866744,1.25425491 Z M54.8409726,0.512134599 C55.1822048,0.512134599 55.5599464,0.545780568 55.5599464,0.545780568 C56.2953852,0.630969298 56.9234433,0.907057142 57.2057354,1.36330603 C57.4877888,1.81955491 57.3978276,2.283917 57.3257632,2.50297374 C57.2536988,2.72179185 57.0921504,2.88882857 57.0921504,2.88882857 C56.7757351,3.24700304 56.2626938,3.36225838 56.2626938,3.36225838 C55.7813894,3.50352372 55.2091693,3.52452262 54.9099349,3.52452262 C54.7817939,3.52452262 54.7035253,3.52070464 54.7035253,3.52070464 L53.1887408,3.52189776 L53.1889794,0.512850471 L53.4287964,0.513566343 C53.4287964,0.513566343 53.8361274,0.517145701 54.2186415,0.517145701 C54.4200401,0.517145701 54.6145185,0.516191205 54.7395575,0.513089095 C54.7727262,0.512611847 54.8066108,0.512134599 54.8409726,0.512134599 Z M60.0799602,0.511895975 L64.1484976,0.512850471 L64.1489748,1.25353903 L62.7334579,1.25330041 L62.7339351,3.52499987 L61.484739,3.52404538 L61.4864094,1.25401628 L60.0799602,1.24757344 L60.0799602,0.511895975 Z M41.254444,0.511895975 C41.438423,0.511895975 41.6231179,0.523111298 41.8001769,0.545780568 C42.4976745,0.634071409 42.7880798,0.776529873 43.0536682,1.01921037 C43.3194952,1.26165225 43.3194952,1.66802874 43.3194952,1.66802874 L42.0206653,1.66898323 L42.0158929,1.66898323 L42.0149384,1.65872241 L42.005632,1.57472679 C42.0018141,1.50552587 41.9717474,1.44586989 41.9717474,1.44586989 C41.8777296,1.27477656 41.67132,1.20891637 41.3957094,1.17240691 C41.3214973,1.16262333 41.2580234,1.15904397 41.204333,1.15904397 C41.0578179,1.15904397 40.9859921,1.18576985 40.9859921,1.18576985 C40.4743825,1.29887757 40.4357254,1.84365592 40.4228398,1.93886686 C40.4097154,2.03407779 40.4123403,2.40489932 40.5979897,2.64352321 C40.763356,2.85637572 41.0038889,2.90457775 41.2079124,2.90457775 C41.2324906,2.90457775 41.2568303,2.90386188 41.2802154,2.90266876 C41.4968859,2.89145344 41.6321856,2.86663655 41.8206985,2.77667534 C42.0092114,2.68695276 42.0080183,2.46550979 42.0080183,2.46550979 L42.0161315,2.39583161 L43.3178248,2.39583161 C43.2820312,3.16658679 42.6105436,3.43289105 41.5889947,3.51020519 C41.4603764,3.51998877 41.3393941,3.524284 41.2258092,3.524284 C40.4359641,3.524284 40.0095432,3.31882883 40.0095432,3.31882883 C39.2535827,3.02556006 39.1655305,2.39845647 39.1419067,2.28916673 C39.1185216,2.17963836 39.1142263,2.03837302 39.1142263,2.03837302 C39.1435771,1.48810632 39.3471232,1.10129699 39.820553,0.820198045 C40.173955,0.610447643 40.7134837,0.511895975 41.254444,0.511895975 Z M0.571456499,0.511180104 L4.37726897,0.514998086 L4.38108695,1.1962693 L2.268311,2.83847893 L4.42905035,2.84587627 L4.4295276,3.52476125 L0.572410995,3.52452262 L0.572649618,2.89885078 L2.70523135,1.25401628 L0.570979251,1.25377766 L0.571456499,0.511180104 Z M23.4822137,0.510225608 C23.7752439,0.510225608 24.0267534,0.535281117 24.2431853,0.561529745 C24.6032688,0.604959294 24.9695564,0.689193528 25.2494623,0.864820713 C25.5293681,1.04068652 25.5909331,1.26833372 25.6088298,1.35996529 C25.6262494,1.45159687 25.6238632,1.61242937 25.6238632,1.61242937 L24.3238402,1.61195212 C24.3238402,1.61195212 24.3255106,1.48667458 24.3245561,1.4869132 C24.3243174,1.4869132 24.3238402,1.49359467 24.3233629,1.51077559 C24.3259878,1.42916622 24.291626,1.37523722 24.2854217,1.36616951 C24.302364,1.39027053 24.308091,1.39838374 24.308091,1.39838374 C24.308091,1.39838374 24.289717,1.37237373 24.2854217,1.36616951 C24.2847059,1.36521502 24.2844672,1.36473777 24.2844672,1.36473777 C24.2312541,1.28861675 24.1255437,1.24948243 24.1255437,1.24948243 C23.9162706,1.17550902 23.8289342,1.17503177 23.6055823,1.15999847 C23.5802881,1.1583281 23.5485512,1.15737361 23.5122803,1.15737361 C23.2326131,1.15737361 22.6751877,1.21893857 22.4451543,1.50600311 C22.1852929,1.82981574 22.2680953,2.28964398 22.3726126,2.47052089 C22.4771299,2.65092055 22.6372465,2.76832351 22.967502,2.85136462 C23.1622191,2.90052114 23.3755488,2.91054335 23.5184845,2.91054335 C23.6179907,2.91054335 23.683135,2.90577087 23.683135,2.90577087 C23.688862,2.90577087 23.6950662,2.90600949 23.7017477,2.90600949 C23.8644892,2.90600949 24.3240788,2.86854554 24.3240788,2.86854554 L24.3262264,2.49891713 L23.4075244,2.50201924 L23.3972636,1.82766812 L25.5489353,1.82432739 L25.5460718,3.38540489 C25.3668652,3.44529949 24.7822367,3.48467243 24.7822367,3.48467243 L24.787725,3.48467243 L24.7822367,3.48467243 C24.1572807,3.50495547 23.7886068,3.52476125 23.4688508,3.52476125 C23.2003989,3.52476125 22.9663089,3.51068244 22.6448825,3.47083225 C21.9399875,3.38397315 21.2389105,3.06564888 21.0434775,2.44594263 C20.8478059,1.82623638 21.109815,1.31176326 21.4696598,1.03472092 C21.8297433,0.757439961 22.258789,0.623333333 22.8424631,0.550553046 C23.0751214,0.521202307 23.2877352,0.510225608 23.4822137,0.510225608 Z" id="Fill-11" fill="#FEFEFE" mask="url(#mask-2)"></path>
                    </g>
                </g>
            </g>
        </g>
    </g>
</svg>