<?xml version="1.0" encoding="UTF-8"?>
<svg width="98px" height="23px" viewBox="0 0 98 23" version="1.1" xmlns="http://www.w3.org/2000/svg" xmlns:xlink="http://www.w3.org/1999/xlink">
    <!-- Generator: Sketch 52.6 (67491) - http://www.bohemiancoding.com/sketch -->
    <title>logo</title>
    <desc>Created with Sketch.</desc>
    <defs>
        <polygon id="path-1" points="0.103209928 0.036118567 71.1617213 0.036118567 71.1617213 4.44294963 0.103209928 4.44294963"></polygon>
    </defs>
    <g id="logo" stroke="none" stroke-width="1" fill="none" fill-rule="evenodd">
        <g>
            <rect id="Rectangle-14" x="0" y="0" width="98" height="23"></rect>
            <g id="Page-1-Copy" transform="translate(3.303371, 2.491420)">
                <polygon id="Fill-1" fill="#EF8707" points="0.262728124 0.522699956 0.262728124 17.4061699 5.48392079 17.4061699 5.48392079 6.40098366 11.3570071 6.40098366 11.3570071 0.522699956"></polygon>
                <path d="M0,0.261376113 L0,0.784076069 L0,6.13965982 L0,17.144846 L0,17.667546 L0.525508798,17.667546 L5.22119266,17.667546 L5.74670146,17.667546 L5.74670146,17.144846 L5.74670146,6.66235978 L11.094279,6.66235978 L11.619525,6.66235978 L11.619525,6.13965982 L11.619525,0.784076069 L11.619525,0.261376113 L0,0.261376113 Z M0.525508798,6.13965982 L0.525508798,0.784076069 L5.71779848,0.784076069 L11.094279,0.784076069 L11.094279,6.13965982 L5.22119266,6.13965982 L5.22119266,17.144846 L0.525508798,17.144846 L0.525508798,6.13965982 Z" id="Fill-2" fill="#FEFEFE"></path>
                <polygon id="Fill-3" fill="#E62A10" points="6.13365987 17.4061699 6.13365987 11.5281475 12.0049069 11.5281475 12.0049069 0.525313456 17.2358215 0.525313456 17.2358215 17.4061699"></polygon>
                <path d="M16.9730408,0.263963478 L12.267635,0.263963478 L11.7421262,0.263963478 L11.7421262,0.786663434 L11.7421262,11.2667976 L6.39638799,11.2667976 L5.87087919,11.2667976 L5.87087919,11.7894975 L5.87087919,17.1448199 L5.87087919,17.6675199 L6.39638799,17.6675199 L11.7810139,17.6675199 L16.9730408,17.6675199 L17.4985496,17.6675199 L17.4985496,17.1448199 L17.4985496,11.7894975 L17.4985496,0.786663434 L17.4985496,0.263963478 L16.9730408,0.263963478 Z M6.39638799,11.7894975 L12.267635,11.7894975 L12.267635,0.786663434 L16.9730408,0.786663434 L16.9730408,11.7894975 L16.9730408,17.1448199 L11.7810139,17.1448199 L6.39638799,17.1448199 L6.39638799,11.7894975 Z" id="Fill-4" fill="#FEFEFE"></path>
                <g id="Group-14" transform="translate(21.545861, 0.250922)">
                    <path d="M18.0833358,3.46780059 L18.0744022,0.683900623 L24.5762598,0.683900623 L24.5762598,0.274103857 L27.6123868,0.274103857 L27.6310424,0.535453835 L27.6310424,0.689911672 L34.4721159,0.689911672 L33.7973626,3.3846913 L30.7152535,3.3846913 L30.9220412,2.64376411 L21.2072229,2.64376411 L21.2072229,3.46780059 L18.0833358,3.46780059 Z M40.8121168,5.09444285 L52.0062425,5.09444285 L52.0062425,3.18397451 L40.8121168,3.18397451 L40.8121168,5.09444285 Z M40.8121168,7.03052349 L52.0737704,7.03052349 L52.0737704,5.21753869 L40.8121168,5.21753869 L40.8121168,7.03052349 Z M66.5228975,8.60594116 L66.5228975,6.69965442 L67.4081171,6.69965442 C67.4257216,6.69965442 67.4971908,6.69651822 67.5510555,6.64241877 C67.6128028,6.58047883 67.6448588,6.46287134 67.6438078,6.30240245 L67.6451216,6.27417665 L68.1685283,1.15746678 L68.194541,0.924865302 L70.9090567,0.924865302 L70.2545355,7.15936903 C70.2190637,7.65410454 69.8312382,8.60620251 68.6220424,8.60620251 L66.5228975,8.60594116 Z M57.0826575,8.66239275 C56.8401352,8.66239275 56.383468,8.61064546 56.0468796,8.26331134 C55.7717758,7.97896256 55.6406613,7.56655229 55.6580031,7.03731859 L55.1737468,1.34511607 L55.1209331,0.9494322 L57.873811,0.9494322 L58.3013124,6.55016223 L58.2902767,6.59302363 C58.2763507,6.64921387 58.2797665,6.72422132 58.2923787,6.74329986 L58.2926415,6.74329986 C58.294218,6.74329986 58.3118226,6.75061766 58.3538633,6.75061766 C58.3853938,6.75061766 58.4213911,6.74643606 58.4618553,6.73885691 L58.487868,6.73362991 L59.1873202,6.74042501 L59.1873202,8.6527228 L57.2610677,8.6527228 C57.2292744,8.65664305 57.1662134,8.66239275 57.0826575,8.66239275 Z M49.2281402,9.59096922 L49.2278775,9.06147417 L43.8140858,9.06147417 L43.8140858,9.59096922 L49.2281402,9.59096922 Z M40.7474792,11.5056192 L40.7474792,7.24038752 L52.1465533,7.24038752 L52.1465533,10.7231373 L52.0650995,10.7262735 C51.8661944,11.19409 51.346729,11.4810523 50.6301977,11.5053578 L50.6259936,11.5056192 L40.7474792,11.5056192 Z M13.0032423,8.63207616 L13.0127014,8.63390561 C13.0134897,8.62083811 13.0134897,8.60515711 13.0137524,8.59522581 L13.0137524,3.3606471 L9.7750417,3.3606471 L9.7750417,8.63207616 L13.0032423,8.63207616 Z M3.41638525,8.6720627 L6.65535872,8.6720627 L6.65535872,3.3606471 L3.41638525,3.3606471 L3.41638525,8.6720627 Z M6.7136902,11.5061419 L6.7136902,10.6408121 L0.365806674,10.6408121 L0.365806674,1.33152587 L6.59072114,1.33152587 L6.59072114,0.273842507 L9.84782467,0.273842507 L9.84782467,1.33178722 L16.0848258,1.33178722 L16.0848258,8.96869493 C16.0969125,9.08682512 16.1308079,9.63984167 15.7513905,10.074728 C15.4515877,10.4184033 14.9862497,10.5924623 14.3677258,10.5927237 C14.2726088,10.5927237 14.1714483,10.5885421 14.0642445,10.5796562 L9.76531979,10.5804402 L9.76531979,11.5061419 L6.7136902,11.5061419 Z M37.1984556,11.5061419 L37.1984556,4.5774926 L36.2378255,4.5774926 L36.2378255,2.51727072 L36.5983245,2.6855801 C36.623549,2.68793225 36.6464086,2.68897765 36.6676917,2.68897765 C36.743365,2.68897765 36.7788368,2.67538746 36.7790996,2.67538746 L36.8080025,2.65944511 L36.8242933,2.65866106 C36.9761654,2.61867451 37.0894125,2.43782033 37.1112211,2.39156138 L38.2313431,0.271751707 L41.4248601,0.271751707 L40.9650399,1.15223978 L45.1210262,1.15223978 L45.1210262,0.275149257 L48.2491173,0.275149257 L48.2491173,1.15223978 L52.4148256,1.15223978 L52.4148256,3.01200623 L40.6090077,3.01200623 L40.6090077,1.83384053 L40.1210728,2.76842805 L40.1210728,11.5061419 L37.1984556,11.5061419 Z M55.1766371,11.5061419 L55.1766371,9.46133964 L59.5517606,9.46133964 L59.5517606,0.274887907 L62.4722757,0.274887907 L62.4722757,9.46133964 L63.3243882,9.46133964 L63.3243882,0.274887907 L66.2443779,0.274887907 L66.2443779,9.46133964 L70.8985465,9.46133964 L70.8985465,11.5061419 L55.1766371,11.5061419 Z M22.5690789,7.22366112 L22.56251,7.25214827 C22.5730202,7.28952132 22.6789102,7.35381341 22.7603641,7.37628951 L25.87269,8.48258397 L29.3993795,7.47220495 C29.8565722,7.38778891 29.9361867,7.24692127 29.9301434,7.20379853 L29.9012404,7.14760828 L29.9217353,7.13898373 L29.9217353,5.91142288 L22.5690789,5.91142288 L22.5690789,7.22366112 Z M18.1453458,11.5043124 L18.1453458,9.73654116 L21.3330822,9.73654116 C21.3280899,9.73601846 21.8031498,9.68897547 22.1053174,9.60874102 L20.0450601,8.91590223 C20.0298204,8.91381143 19.6732627,8.82390704 19.482503,8.51786622 C19.3763502,8.34746603 19.3440314,8.14361305 19.3886997,7.92616986 L19.3886997,5.92135418 L18.1498127,5.92135418 L18.1498127,4.05897424 L19.4504469,4.05897424 L19.4504469,3.50595769 L22.5690789,3.50595769 L22.5690789,4.06106504 L29.9120133,4.06106504 L29.9120133,3.41448519 L33.0261785,3.41448519 L33.0261785,4.05792884 L34.3233969,4.05792884 L34.3233969,5.91142288 L33.0235509,5.91142288 L33.0235509,7.96798586 C33.057709,8.18725849 33.0154055,8.57980616 32.6604244,8.81110089 C32.5789705,8.87800648 32.3989837,8.97705813 32.0085307,9.05467907 L29.995832,9.60194592 L30.0591558,9.61867232 C30.0617833,9.61841097 30.1965764,9.65317052 30.562856,9.65317052 C30.6521925,9.65317052 30.7541412,9.65134107 30.8702786,9.64637542 L34.3289148,9.64611407 L34.3289148,11.4138853 L29.6981313,11.4138853 C29.6934017,11.414408 29.6736951,11.4151921 29.6450549,11.4151921 C29.4850374,11.4151921 29.0218014,11.3887957 28.1799363,11.1454789 L25.9349628,10.5404537 L23.1245417,11.3631834 C23.1184984,11.3655356 22.7004561,11.5061419 22.0375268,11.5061419 C21.993384,11.5061419 21.9479275,11.5056192 21.9016827,11.5043124 L18.1453458,11.5043124 Z" id="Fill-5" fill="#005C4C"></path>
                    <path d="M66.5071323,0.0135901989 L65.9816235,0.0135901989 L63.5871426,0.0135901989 L63.0616338,0.0135901989 L63.0616338,0.536290155 L63.0616338,9.19978058 L62.7350301,9.19978058 L62.7350301,0.536290155 L62.7350301,0.0135901989 L62.2095213,0.0135901989 L59.814515,0.0135901989 L59.2890062,0.0135901989 L59.2890062,0.536290155 L59.2890062,6.48017271 L58.9295582,6.47651381 L58.5593372,6.47311626 L58.1541699,1.1713706 L58.1171216,0.688134492 L57.6302376,0.688134492 L55.4207359,0.688134492 L54.8208676,0.688134492 L54.8994312,1.27930814 L54.9128317,1.37940518 L55.394986,7.04468866 C55.3784324,7.63952121 55.5342458,8.11021252 55.8576965,8.44447914 C56.2618127,8.86159371 56.79862,8.92405635 57.0826575,8.92405635 C57.1662134,8.92405635 57.232953,8.91882935 57.2760447,8.9143864 L58.9245658,8.9143864 L59.2890062,8.9143864 L59.2890062,9.19978058 L55.4393915,9.19978058 L54.9138827,9.19978058 L54.9138827,9.72248053 L54.9138827,11.2448442 L54.9138827,11.7675441 L55.4393915,11.7675441 L70.6357921,11.7675441 L71.1613009,11.7675441 L71.1613009,11.2448442 L71.1613009,9.72248053 L71.1613009,9.19978058 L70.6357921,9.19978058 L66.5071323,9.19978058 L66.5071323,8.86708206 L66.7856519,8.86708206 L68.581841,8.86708206 L68.6220424,8.86760476 C70.0172683,8.86760476 70.4705196,7.76888945 70.5170272,7.17902255 L71.1400178,1.240367 L71.2004513,0.663567594 L70.6176621,0.663567594 L68.4297062,0.663567594 L67.9580621,0.663567594 L67.9070877,1.12981596 L67.8976285,1.21710685 L67.3839437,6.24783258 L67.3807906,6.27579702 L67.3810534,6.30428417 C67.3815789,6.37145112 67.3744845,6.41378981 67.3679157,6.43835671 L66.7856519,6.43835671 L66.5071323,6.43835671 L66.5071323,0.536290155 L66.5071323,0.0135901989 Z M22.8318333,6.17256378 L29.6589809,6.17256378 L29.6589809,7.12570715 C29.6132616,7.14870595 29.5273409,7.1818974 29.3773081,7.20933914 L29.351821,7.21378209 L29.3265965,7.22109989 L25.8813609,8.20821876 L22.8662541,7.1358998 L22.8491751,7.12988875 L22.8318333,7.1249231 L22.8318333,6.17256378 Z M21.4699773,2.90490501 L30.5765192,2.90490501 L30.5547106,2.98357135 L30.5071521,3.15318749 L30.1747677,3.15318749 L29.6492589,3.15318749 L29.6492589,3.67588744 L29.6492589,3.79950598 L22.8318333,3.79950598 L22.8318333,3.76735993 L22.8318333,3.24465998 L22.3063245,3.24465998 L21.4699773,3.24465998 L21.4699773,3.20650288 L21.4699773,2.90490501 Z M27.8937968,0.0128061489 L27.368288,0.0128061489 L27.3496324,0.0128061489 L24.8390142,0.0128061489 L24.3135054,0.0128061489 L24.3135054,0.422341565 L18.3379448,0.422341565 L17.8105967,0.422341565 L17.812436,0.946870971 L17.8197931,3.20833233 L17.8216324,3.72920284 L18.3453019,3.72920284 L19.1876925,3.72920284 L19.1876925,3.76735993 L19.1876925,3.79767653 L18.4125671,3.79767653 L17.8870583,3.79767653 L17.8870583,4.32037649 L17.8870583,5.65979512 L17.8870583,6.18249508 L18.4125671,6.18249508 L19.1259453,6.18249508 L19.1259453,7.90087119 C19.0628842,8.24402371 19.1616799,8.49883994 19.2594245,8.65564992 C19.4785617,9.00742699 19.8500964,9.13470443 19.9791088,9.16972533 L20.8877135,9.47524345 L18.4081002,9.47524345 L17.8825914,9.47524345 L17.8825914,9.99794341 L17.8825914,11.2430147 L17.8825914,11.7657147 L18.4081002,11.7657147 L21.9016827,11.7657147 C21.9481903,11.7670214 21.9936468,11.7675441 22.0377895,11.7675441 C22.6867929,11.7675441 23.1142943,11.6415734 23.2070466,11.6112568 L25.9381158,10.8120486 L28.116087,11.3987793 C28.9492812,11.6400053 29.4319611,11.676333 29.6450549,11.676333 C29.6715931,11.676333 29.6920879,11.6758103 29.7062766,11.6752876 L34.0661604,11.6752876 L34.5916692,11.6752876 L34.5916692,11.1525876 L34.5916692,9.90751632 L34.5916692,9.38481636 L34.0661604,9.38481636 L31.7928093,9.38481636 L32.0786861,9.30719542 C32.4150117,9.23872172 32.6620009,9.14306763 32.8154494,9.02206259 C33.2595044,8.72595307 33.3236165,8.23827401 33.2863053,7.95026633 L33.2863053,6.17256378 L34.0606425,6.17256378 L34.5861513,6.17256378 L34.5861513,5.64986383 L34.5861513,4.31933109 L34.5861513,3.79663113 L34.0606425,3.79663113 L33.2889329,3.79663113 L33.2889329,3.67588744 L33.2889329,3.64583219 L33.5918887,3.64583219 L34.0025738,3.64583219 L34.101895,3.24962563 L34.6457966,1.07754596 L34.8084416,0.428352614 L34.1360531,0.428352614 L27.8937968,0.428352614 L27.8937968,0.0128061489 Z M3.67913965,8.41076499 L6.39260433,8.41076499 L6.39260433,3.62204935 L3.67913965,3.62204935 L3.67913965,8.41076499 Z M10.0377961,8.37077845 L12.750998,8.37077845 L12.750998,3.62204935 L10.0377961,3.62204935 L10.0377961,8.37077845 Z M10.1105791,0.0125447989 L9.58507027,0.0125447989 L6.85347554,0.0125447989 L6.32796674,0.0125447989 L6.32796674,0.535244755 L6.32796674,1.07022816 L0.628561073,1.07022816 L0.103052275,1.07022816 L0.103052275,1.59292812 L0.103052275,10.3795144 L0.103052275,10.9022143 L0.628561073,10.9022143 L6.45119856,10.9022143 L6.45119856,11.2448442 L6.45119856,11.7675441 L6.97670735,11.7675441 L9.50256539,11.7675441 L10.0280742,11.7675441 L10.0280742,11.2448442 L10.0280742,10.8418425 L14.0650328,10.8418425 C14.1690835,10.8499443 14.2705067,10.8541259 14.3677258,10.8541259 C15.0658643,10.8541259 15.5982047,10.6494889 15.9500328,10.2459645 C16.3854169,9.74678608 16.3646593,9.13496578 16.3475802,8.95489565 L16.3475802,1.59292812 L16.3475802,1.07022816 L15.8220714,1.07022816 L10.1105791,1.07022816 L10.1105791,0.535244755 L10.1105791,0.0125447989 Z M44.0768402,9.32967152 L48.9651231,9.32967152 L48.9651231,9.32287642 L44.0768402,9.32287642 L44.0768402,9.32967152 Z M41.8573538,0.0104539991 L40.9923663,0.0104539991 L38.3900468,0.0104539991 L38.0726395,0.0104539991 L37.9249715,0.289837126 L36.8836758,2.25989326 L36.8784207,2.26982456 L36.8736911,2.27975586 C36.8463647,2.3322872 36.7833036,2.39840875 36.7567654,2.4059879 L36.6931789,2.42297565 L36.6858217,2.4268959 C36.6808294,2.42715725 36.6747861,2.4274186 36.6676917,2.4274186 L36.6637504,2.4274186 L35.9750711,2.10621947 L35.9750711,2.92868785 L35.9750711,4.31593354 L35.9750711,4.83863349 L36.5005799,4.83863349 L36.9357012,4.83863349 L36.9357012,11.2448442 L36.9357012,11.7675441 L37.46121,11.7675441 L39.8583184,11.7675441 L40.3838272,11.7675441 L40.3838272,11.2448442 L40.3838272,3.27340848 L40.5493624,3.27340848 L40.5493624,3.44511541 L40.5493624,4.83288379 L40.5493624,5.35558375 L40.5493624,5.47894094 L40.5493624,6.76948713 L40.5493624,6.97882846 L40.4847248,6.97882846 L40.4847248,7.50152842 L40.4847248,8.67316037 L40.4847248,8.80017646 L40.4847248,9.85237147 L40.4847248,9.97206976 L40.4847248,11.2443215 L40.4847248,11.7670214 L41.0102336,11.7670214 L50.4841063,11.7670214 L50.6212641,11.7670214 L50.6301977,11.7670214 L50.6391314,11.7667601 C51.3879814,11.7411478 51.9536916,11.4557536 52.230372,10.9829715 L52.3964328,10.9772218 L52.4093077,10.4720323 L52.4093077,9.85237147 L52.4093077,8.80017646 L52.4093077,8.16483466 L52.4093077,7.50152842 L52.4093077,6.97882846 L52.3365248,6.97882846 L52.3365248,6.76948713 L52.3365248,5.47894094 L52.3365248,4.95624098 L52.2689969,4.95624098 L52.2689969,4.83288379 L52.2689969,3.44511541 L52.2689969,3.27340848 L52.67758,3.27340848 L52.67758,2.75070852 L52.67758,1.41338068 L52.67758,0.890680725 L52.1520712,0.890680725 L48.5118717,0.890680725 L48.5118717,0.536290155 L48.5118717,0.0135901989 L47.9863629,0.0135901989 L45.3837806,0.0135901989 L44.8582718,0.0135901989 L44.8582718,0.536290155 L44.8582718,0.890680725 L41.3975336,0.890680725 L41.4587554,0.774118635 L41.8573538,0.0104539991 Z M43.5513314,9.85237147 L49.3316655,9.85237147 C49.4811727,9.85237147 49.4903691,9.72274188 49.4903691,9.72274188 L49.4903691,8.80017646 L43.5513314,8.80017646 L43.5513314,9.85237147 Z M51.8837989,7.50152842 L51.8837989,8.16483466 L51.8837989,8.80017646 L51.8837989,9.85237147 L51.8837989,10.4720323 L51.870924,10.472555 C51.7292994,11.1376907 50.9428754,11.2333448 50.6212641,11.2443215 L50.4841063,11.2443215 L41.0102336,11.2443215 L41.0102336,9.97206976 L41.0102336,9.85237147 L41.0102336,8.80017646 L41.0102336,8.67316037 L41.0102336,7.50152842 L51.8837989,7.50152842 Z M41.0748712,6.76948713 L51.811016,6.76948713 L51.811016,5.47894094 L41.0748712,5.47894094 L41.0748712,6.76948713 Z M25.8637563,8.75731506 L29.4721625,7.72341455 C30.3255888,7.56791131 30.1844897,7.139036 30.1844897,7.139036 L30.1844897,5.64986383 L22.3081638,5.64986383 L22.3063245,5.78498176 L22.3063245,7.19418085 C22.2359063,7.50126707 22.6891577,7.62802181 22.6891577,7.62802181 L25.8637563,8.75731506 Z M32.7634241,3.67588744 L32.7634241,4.31933109 L34.0606425,4.31933109 L34.0606425,5.64986383 L32.7607965,5.64986383 L32.7607965,7.99025288 C32.7607965,7.99025288 32.8414621,8.39377725 32.5014579,8.60181183 C32.5014579,8.60181183 32.4000347,8.71027207 31.9570308,8.79834701 L28.8730824,9.63597369 L29.9645642,9.86230277 C29.9645642,9.86230277 30.1001455,9.91457277 30.5633815,9.91457277 C30.655871,9.91457277 30.7612356,9.91248197 30.8813143,9.90751632 L34.0661604,9.90751632 L34.0661604,11.1525876 L29.6915624,11.1525876 C29.6915624,11.1525876 29.6763226,11.153633 29.6450549,11.153633 C29.5094736,11.153633 29.0727758,11.1314183 28.2532448,10.8943738 L25.9320725,10.2689633 L23.0501822,11.1123397 C23.0501822,11.1123397 22.6644587,11.2448442 22.0377895,11.2448442 C21.9960116,11.2448442 21.9531826,11.2443215 21.9093026,11.2430147 L18.4081002,11.2430147 L18.4081002,9.99794341 L21.3336077,9.99794341 C21.3336077,9.99794341 21.855438,9.94802557 22.187034,9.85733712 C22.5186301,9.76664868 22.991588,9.63074669 22.991588,9.63074669 L20.1291416,8.66845607 C20.1291416,8.66845607 19.5148218,8.52680438 19.6514541,7.95444793 L19.6514541,5.65979512 L18.4125671,5.65979512 L18.4125671,4.32037649 L19.7132013,4.32037649 L19.7132013,3.76735993 L22.3063245,3.76735993 L22.3063245,4.32220594 L30.1747677,4.32220594 L30.1747677,3.67588744 L32.7634241,3.67588744 Z M41.0748712,4.83288379 L51.7434881,4.83288379 L51.7434881,3.44511541 L41.0748712,3.44511541 L41.0748712,4.83288379 Z M57.6302376,1.21083445 L58.0361932,6.52590895 C58.0361932,6.52590895 57.9061298,7.01201991 58.3538633,7.01201991 C58.400108,7.01201991 58.4523962,7.00679291 58.5117787,6.99529351 L58.9245658,6.99921376 L58.9245658,8.39168645 L57.2439887,8.39168645 C57.2439887,8.39168645 57.1811904,8.40135639 57.0826575,8.40135639 C56.7197937,8.40135639 55.87425,8.26911331 55.9210203,7.03083711 L55.4354502,1.32295359 L55.4207359,1.21083445 L57.6302376,1.21083445 Z M70.6176621,1.18626755 L69.9936204,7.1322409 C69.9936204,7.1322409 69.9063859,8.3449048 68.6220424,8.3449048 C68.6089047,8.3449048 68.5955042,8.34464345 68.581841,8.3443821 L66.7856519,8.3443821 L66.7856519,6.96105667 L67.4057523,6.96105667 C67.4057523,6.96105667 67.4091681,6.96105667 67.4152115,6.96105667 C67.4851041,6.96105667 67.911029,6.93518302 67.9065622,6.30062527 L68.4199843,1.27355844 L68.4297062,1.18626755 L70.6176621,1.18626755 Z M47.9863629,0.536290155 L47.9863629,1.41338068 L52.1520712,1.41338068 L52.1520712,2.75070852 L40.8720248,2.75070852 L40.8720248,1.41338068 L45.3837806,1.41338068 L45.3837806,0.536290155 L47.9863629,0.536290155 Z M65.9816235,0.536290155 L65.9816235,9.72248053 L70.6357921,9.72248053 L70.6357921,11.2448442 L55.4393915,11.2448442 L55.4393915,9.72248053 L59.814515,9.72248053 L59.814515,0.536290155 L62.2095213,0.536290155 L62.2095213,9.72248053 L63.5871426,9.72248053 L63.5871426,0.536290155 L65.9816235,0.536290155 Z M27.368288,0.535506105 L27.368288,0.95105257 L34.1360531,0.95105257 L33.5918887,3.12313224 L31.0610383,3.12313224 L31.267826,2.38220505 L20.9444685,2.38220505 L20.9444685,3.20650288 L18.3453019,3.20650288 L18.3379448,0.945041521 L24.8390142,0.945041521 L24.8390142,0.535506105 L27.3496324,0.535506105 L27.368288,0.535506105 Z M3.15363085,8.93346495 L6.91811312,8.93346495 L6.91811312,3.09934939 L3.15363085,3.09934939 L3.15363085,8.93346495 Z M9.51228731,8.8934784 L12.9782806,8.8934784 C12.9782806,8.8934784 13.0029795,8.8981827 13.0381886,8.8981827 C13.0555304,8.8981827 13.0754997,8.89687595 13.0967828,8.8934784 L13.0970456,8.8934784 L13.0970456,8.89321705 C13.1803387,8.8788428 13.2765068,8.82735686 13.2765068,8.66453582 L13.274142,8.66244502 C13.2762441,8.63813947 13.2762441,8.60050508 13.2765068,8.58822163 L13.2765068,8.58796028 L13.2765068,8.58377868 L13.2765068,3.09934939 L9.51228731,3.09934939 L9.51228731,8.8934784 Z M9.58507027,0.535244755 L9.58507027,1.59292812 L15.8220714,1.59292812 L15.8220714,8.98364415 C15.8220714,8.98364415 16.0151959,10.331426 14.3677258,10.331426 C14.2791776,10.331426 14.1853743,10.3275057 14.0860531,10.3191425 L9.50256539,10.3191425 L9.50256539,11.2448442 L6.97670735,11.2448442 L6.97670735,10.3795144 L0.628561073,10.3795144 L0.628561073,1.59292812 L6.85347554,1.59292812 L6.85347554,0.535244755 L9.58507027,0.535244755 Z M40.9923663,0.533153955 L39.8583184,2.70444957 L39.8583184,11.2448442 L37.46121,11.2448442 L37.46121,4.31593354 L36.5005799,4.31593354 L36.5005799,2.92868785 L36.5171334,2.93652835 L36.5449854,2.94280075 C36.5904419,2.94802775 36.6314316,2.95011855 36.6676917,2.95011855 C36.821403,2.95011855 36.8915584,2.91143876 36.8915584,2.91143876 C37.192675,2.83198836 37.3487511,2.50321009 37.3487511,2.50321009 L38.3900468,0.533153955 L40.9923663,0.533153955 Z" id="Fill-7" fill="#FEFEFE"></path>
                    <path d="M45.3943959,17.1886744 C44.4758065,17.1886744 43.9629099,16.9482325 43.9416268,16.9380398 C43.5380361,16.7830593 43.0020171,16.4252712 42.846992,15.6472323 C42.8133594,15.4904223 42.8075788,15.3260331 42.8067906,15.3077386 C42.8454155,14.5743906 43.1333943,14.0835753 43.7132933,13.7412069 C44.2650775,13.4153035 45.0231239,13.3666924 45.4259264,13.3666924 C45.640334,13.3666924 45.8536906,13.3797599 46.0602155,13.4058949 C46.8145834,13.5010262 47.2137074,13.653916 47.5844538,13.9905348 C47.95231,14.3242787 47.9628201,14.8370473 47.9628201,14.8945443 L47.9628201,15.155633 L46.0299988,15.1569397 L45.9921622,14.821105 C45.9905856,14.7944473 45.9840168,14.7745847 45.9798127,14.7651761 C45.9417133,14.6972251 45.8024535,14.6444324 45.5470562,14.6104569 C45.4790028,14.601571 45.4206713,14.5981735 45.3710108,14.5981735 C45.2674855,14.5981735 45.2154601,14.6133318 45.2149346,14.6135931 L45.1873454,14.6214336 C44.9471879,14.6739649 44.8158107,14.8587394 44.77377,15.2021533 C44.7606323,15.3009435 44.7687777,15.6208359 44.910665,15.8024742 C45.0094607,15.9287062 45.1568659,15.9875099 45.3749521,15.9872486 C45.3975489,15.9872486 45.4198831,15.9867259 45.4411662,15.9856805 C45.6652957,15.9739197 45.7764408,15.9485688 45.936721,15.8727773 C45.9895346,15.847949 45.9932132,15.7648398 45.9932132,15.7640557 L45.9950525,15.737398 L46.0313126,15.4300504 L47.9735931,15.4300504 L47.9609809,15.7036839 C47.9058024,16.8794974 46.7094817,17.1053038 45.8145402,17.1724707 C45.6658212,17.1837088 45.5257731,17.1886744 45.3943959,17.1886744 Z M60.5957889,15.9159 C60.5965772,15.9159 60.9618058,15.9109344 61.2216699,15.8071785 C61.4323989,15.7230238 61.511488,15.5419082 61.5133273,15.4407658 L61.514641,15.3903252 C61.5214726,15.1572011 61.5099115,14.9828806 61.2944528,14.8600461 C61.0453617,14.7183944 60.7387273,14.7019294 60.5301003,14.7019294 L60.1761701,14.7021907 L60.1814252,15.9159 L60.5957889,15.9159 Z M60.4615214,17.1889358 C60.3130652,17.1889358 60.2226777,17.1844928 60.2226777,17.1844928 L58.3045705,17.1863223 L58.3048333,13.3669537 L58.8327069,13.3687832 C58.8342834,13.3687832 59.2788639,13.3724421 59.6982199,13.3724421 C59.9184081,13.3724421 60.1320274,13.3713967 60.2689224,13.3682605 C60.3075473,13.3674764 60.346435,13.3669537 60.3863736,13.3669537 C60.7694696,13.3669537 61.1843588,13.4032814 61.2019633,13.4048495 C62.1620679,13.5154005 62.8741323,13.8768475 63.2138737,14.423069 C63.5935538,15.0333212 63.451141,15.6527206 63.3720519,15.8905491 C63.2769348,16.1788181 63.0769787,16.3899889 63.0543818,16.4129877 C62.6623522,16.8551919 62.0362085,16.9989344 62.0096703,17.0049454 C61.4639294,17.1646302 60.8044159,17.1889358 60.4615214,17.1889358 Z M12.8706564,14.9321787 C12.846483,14.9742561 12.8215213,15.0735691 12.8139014,15.1582465 C12.8075953,15.2272429 12.8094346,15.3281239 12.8094346,15.3307374 C12.8075953,15.3929387 12.8133759,15.4360615 12.8178427,15.4721278 L12.8238861,15.5322383 C12.8294039,15.5690886 12.8575187,15.6482777 12.8585697,15.6511525 C12.8971946,15.742625 13.0025591,15.9963958 13.6999093,15.9963958 L13.7545622,15.9958731 C14.3717723,15.9846351 14.5023612,15.7964631 14.5648967,15.7062974 C14.6182359,15.622404 14.7341106,15.2437079 14.5877564,14.9347922 C14.487647,14.7241441 14.2406578,14.6117637 13.8536206,14.6010483 C13.8142074,14.5997416 13.7737433,14.5992189 13.7330163,14.5992189 C13.5640652,14.5992189 13.3438771,14.6104569 13.1334108,14.6980091 C12.9655107,14.7680509 12.9169012,14.8493308 12.9150619,14.8527283 L12.8706564,14.9321787 Z M13.7598173,17.1889358 C13.070087,17.1889358 12.4759993,17.0901455 11.9933194,16.8951784 C11.1869262,16.5695363 10.8774015,15.8991736 10.8569067,15.3806553 C10.8366746,14.863705 11.0466153,14.3624358 11.4189383,14.0396686 C11.801246,13.7085381 12.2295356,13.585965 12.3908668,13.539706 C12.5645475,13.4900495 12.7313965,13.4607784 12.8309805,13.4432679 C12.9379215,13.4244507 13.0876915,13.4072016 13.1179083,13.4040654 L13.3830275,13.3808053 L13.4818231,13.3753169 C13.5958585,13.3685218 13.7353811,13.3674764 13.8021207,13.3674764 L13.8412711,13.3677378 C14.6400445,13.40302 15.2449051,13.4994581 15.8206,13.8713592 C16.2365402,14.1402883 16.5087538,14.5621072 16.5865291,15.0589335 C16.6054474,15.1804612 16.6120163,15.2648772 16.6120163,15.3004208 C16.6120163,15.3210675 16.5991413,15.4635032 16.5923097,15.5152505 C16.5860036,15.5620322 16.5300369,15.7849637 16.5300369,15.7849637 C16.35767,16.3578429 15.9130896,16.6408849 15.894434,16.6526456 C15.252525,17.1489492 14.1825891,17.1886744 13.8701741,17.1886744 L13.7598173,17.1889358 Z M20.3263125,17.1891971 L18.8422756,15.3694172 L18.8422756,17.1891971 L17.0245407,17.1891971 L17.0245407,13.3679991 L19.2566393,13.3679991 L20.6868115,15.1263618 L20.6847095,13.3679991 L22.5027071,13.3679991 L22.5027071,17.1891971 L20.3263125,17.1891971 Z M25.8901369,14.596344 C25.5330536,14.596344 25.0771747,14.685203 24.9197849,14.8804314 C24.7124716,15.1370771 24.7936627,15.5241364 24.8622416,15.6422666 C24.9347619,15.7664079 25.0422284,15.8589257 25.3541179,15.9370694 C25.406406,15.9501369 25.4605334,15.9603295 25.5141353,15.9684314 L25.496268,14.8082988 L26.5210102,14.8067307 C26.5212729,14.7795503 26.5217984,14.7356435 26.5217984,14.7139515 L26.5204847,14.7139515 L26.5217984,14.7129061 L26.5217984,14.7095085 C26.5086607,14.6982705 26.481597,14.6838962 26.4739771,14.6812827 C26.2995082,14.6198655 26.2317176,14.6154226 26.0314987,14.6023551 L25.9750065,14.5986962 C25.9518841,14.5971281 25.9232439,14.596344 25.8901369,14.596344 Z M25.8420528,17.1891971 C25.5264848,17.1891971 25.2542712,17.1716867 24.9024431,17.1283026 C23.8805912,17.0028546 23.1398866,16.5156982 22.9207494,15.8249503 C22.656944,14.9928119 23.0366241,14.3334259 23.4804163,13.9934096 C23.8942544,13.6766534 24.3845541,13.5025943 25.119741,13.4111219 C25.3683066,13.3800212 25.6095152,13.3648629 25.8570298,13.3648629 C26.1975595,13.3648629 26.4876404,13.3943955 26.7262214,13.423144 C27.2459496,13.4856066 27.643497,13.6066116 27.9422487,13.7932155 C28.2178781,13.9654452 28.4002296,14.219216 28.4561963,14.507485 C28.4795815,14.6282287 28.4782677,14.8035945 28.4777422,14.8373087 L28.4740636,15.0949998 L28.3952373,15.0949998 L28.3918215,16.9636521 L28.212623,17.0229786 C28.1692685,17.0376141 28.1119881,17.0506816 28.0470877,17.0627037 C27.9640573,17.1238596 27.7869609,17.129348 27.4330307,17.140586 L27.3074341,17.1447676 C27.3074341,17.1447676 26.8602261,17.1601873 26.6841806,17.166721 C26.3355056,17.1797885 26.0766925,17.1891971 25.8420528,17.1891971 Z M0.367488303,17.1889358 L0.367751057,16.1140033 L2.20808287,14.7021907 L0.365649022,14.7019294 L0.366700039,13.365647 L5.08103947,13.3703513 L5.08760833,14.5048715 L3.26067699,15.9177295 L5.13937094,15.9240019 L5.14042196,17.1891971 L0.367488303,17.1889358 Z M5.46965322,17.1889358 L5.46965322,13.3674764 L7.34177832,13.3677378 L7.34204107,14.6094115 L8.53915011,14.6091502 L8.53915011,13.3677378 L10.4391272,13.3679991 L10.4393899,17.1891971 L8.56700208,17.1891971 L8.56700208,15.8814018 L7.34204107,15.8814018 L7.34204107,17.1891971 L5.46965322,17.1889358 Z M67.4392272,17.1881517 L67.4410665,14.7011453 L65.8929176,14.6940889 L65.8929176,13.3666924 L70.8981261,13.3677378 L70.8989144,14.701668 L69.3399925,14.7014067 L69.3405181,17.1897198 L67.4392272,17.1881517 Z M50.6810144,14.7228374 C50.6986189,14.722576 50.7974146,14.7186558 50.7976774,14.7186558 C50.8328864,14.7183944 50.8649425,14.7160423 50.8941082,14.7118607 C50.8473379,14.7058496 50.7921595,14.7019294 50.7290985,14.7019294 L50.1158297,14.7027134 L50.1160924,14.7220533 L50.6810144,14.7228374 Z M53.4554381,17.1910266 L53.4554381,17.187629 L51.3523519,17.1905039 L51.2790434,17.0472841 C51.0549139,16.6095229 51.015238,16.1586942 51.0086691,16.0504953 C51.0010493,16.0159971 50.987386,15.9932596 50.9311566,15.9932596 L50.1184572,15.9937823 L50.1184572,17.1891971 L48.2182174,17.187629 L48.2174292,13.3698286 L50.7685116,13.3674764 C51.1700003,13.3674764 51.7443815,13.4197464 52.122485,13.5365698 C52.4743132,13.6452914 52.7389069,13.858553 52.9094345,14.1706049 C53.0355566,14.4018996 53.0163755,14.6295355 53.013748,14.654625 C52.9877353,15.0016978 52.7859399,15.229595 52.5830935,15.3725534 C52.7967128,15.6051549 52.8739626,15.8936853 52.9196819,16.1809089 C52.9601461,16.4346798 53.0260974,16.4877338 53.0542121,16.5104712 C53.1109671,16.5567302 53.3371986,16.7117107 53.3371986,16.7117107 L53.4554381,16.7924679 L53.4554381,13.3677378 L57.7236206,13.3682605 L57.7236206,14.7021907 L57.5533557,14.7021907 L57.5533557,15.894992 L55.3527876,15.894992 L55.3527876,15.9161614 L57.8071765,15.9161614 L57.8071765,17.1884131 L55.3527876,17.1884131 L55.0900332,17.1910266 L53.4554381,17.1910266 Z M63.8620888,17.1907652 L65.7631169,17.1907652 L65.7631169,13.3672151 L63.8620888,13.3672151 L63.8620888,17.1907652 Z M32.7771924,15.2873533 L32.9369471,15.287092 L32.8602228,15.1483152 L32.7771924,15.2873533 Z M34.0520768,17.2485236 L33.6574196,16.6189315 L32.0317582,16.6186701 L31.6378893,17.2485236 L29.6564584,17.2485236 L32.0244011,13.4270642 L33.781177,13.4273256 L35.9399671,17.0193197 L35.9402299,13.3679991 L38.1723285,13.3679991 L39.6022379,15.1263618 L39.6001359,13.3677378 L41.4183963,13.3677378 L41.4183963,17.1891971 L39.2417389,17.1891971 L37.757702,15.3691559 L37.757702,17.1891971 L36.0419158,17.1891971 L36.0781759,17.2490463 L34.0520768,17.2485236 Z" id="Fill-9" fill="#EF8200"></path>
                    <g id="Group-13" transform="translate(0.000000, 13.067499)">
                        <mask id="mask-2" fill="white">
                            <use xlink:href="#path-1"></use>
                        </mask>
                        <g id="Clip-12"></g>
                        <path d="M41.6812033,0.0389934167 L41.1556945,0.0389934167 L39.8632056,0.0389934167 L39.3369085,0.0389934167 L39.3376968,0.562216073 L39.3384851,1.31908561 L38.4553675,0.23317645 L38.2977149,0.0389934167 L38.0467844,0.0389934167 L36.2027741,0.0389934167 L35.6772653,0.0389934167 L35.6772653,0.561693373 L35.6770025,3.00531567 L34.0828716,0.35313609 L33.9299485,0.0988425617 L33.631985,0.0985812117 L32.1713333,0.0983198617 L31.8778367,0.0983198617 L31.7238626,0.346863691 L29.6798961,3.64562311 L29.1859178,4.4424792 L30.1271041,4.4424792 L31.4918504,4.4424792 L31.7835078,4.4424792 L31.9377447,4.19602617 L32.1776394,3.81262575 L33.5113807,3.81262575 L33.751801,4.19628752 L33.9063006,4.44221785 L34.197958,4.44221785 L35.6147297,4.44274055 L36.5412017,4.4430019 L36.5054671,4.38315275 L37.4950002,4.38315275 L38.020509,4.38315275 L38.0202462,3.8604528 L38.0202462,3.03902981 L38.958805,4.18949242 L39.1164576,4.38315275 L39.3668625,4.38315275 L41.1556945,4.38315275 L41.6812033,4.38315275 L41.6812033,3.8604528 L41.6812033,0.561693373 L41.6812033,0.0389934167 Z M52.939441,2.34227077 C53.0500606,2.22753813 53.135193,2.09764719 53.1927363,1.95704091 L53.1927363,3.14304711 C53.1880067,3.12292316 53.1832771,3.09940166 53.1793358,3.07248261 C53.1514838,2.89790083 53.1065528,2.61564285 52.939441,2.34227077 Z M60.4402908,1.89614636 L60.4665663,1.89614636 L60.5301528,1.89562366 C60.7090886,1.89562366 60.9689527,1.90869116 61.1636537,2.01950355 C61.2364367,2.06079685 61.2587708,2.08484105 61.2519392,2.31482903 L61.2506254,2.36866712 C61.2503627,2.36866712 61.2343346,2.45308316 61.1239778,2.49698996 C60.9481951,2.56703175 60.6725657,2.5861103 60.5897981,2.5871557 L60.4429184,2.5871557 L60.4402908,1.89614636 Z M45.3080022,1.79500392 C45.3224537,1.79343582 45.3434741,1.79212907 45.3710633,1.79212907 C45.4138923,1.79212907 45.4617136,1.79552662 45.5126879,1.80232172 C45.6311902,1.81800272 45.7000318,1.83525182 45.738394,1.84805796 L45.7412843,1.87445431 L45.7814857,2.23407188 L45.7428608,2.5636342 L45.7378684,2.6059729 C45.651685,2.6378576 45.5723332,2.64961835 45.4275555,2.6571975 C45.4102137,2.65798155 45.3928719,2.65850425 45.3750046,2.65850425 C45.1837194,2.65850425 45.1377374,2.5997005 45.1180308,2.5746109 C45.0478754,2.48444516 45.0242275,2.27249033 45.0318474,2.18885834 L45.0347377,2.16612089 C45.0736253,1.84648987 45.1845077,1.82218432 45.2441529,1.80885547 L45.3080022,1.79500392 Z M58.0421314,0.0371639669 L58.0421314,0.561693373 L58.0418687,2.58741705 L57.8161627,2.58741705 L57.8161627,2.5662477 L57.8161627,1.89614636 L57.9864275,1.89614636 L57.9864275,1.3734464 L57.9864275,0.562216073 L57.9864275,0.0395161167 L57.4609187,0.0395161167 L55.6155946,0.0395161167 L55.0900858,0.0389934167 L53.7182451,0.0389934167 L53.1927363,0.0389934167 L53.1927363,0.561693373 L53.1927363,1.08831358 C53.1777593,1.05198593 53.1604175,1.01513558 53.1401854,0.978023888 C52.9360252,0.604293419 52.6199317,0.349215841 52.2005756,0.219586252 C51.7688702,0.0860364128 51.1598055,0.0387320667 50.7696152,0.0387320667 L50.7146995,0.0389934167 L48.4799734,0.0405615166 L47.9547273,0.0410842166 L47.9547273,0.563522823 L47.9549901,0.95188889 C47.9016509,0.874267947 47.8380644,0.799260503 47.7616028,0.730002759 C47.3503922,0.35705634 46.8981919,0.180645105 46.0933751,0.0789799634 C45.8760773,0.0515382157 45.6514222,0.0379480168 45.4262417,0.0379480168 C44.9963755,0.0379480168 44.1849899,0.0912634123 43.5793411,0.448790182 C42.9256081,0.83454275 42.5874432,1.40899 42.544877,2.20480068 L42.543826,2.22623138 L42.5443515,2.24766208 C42.5454025,2.28163758 42.5519714,2.45831016 42.5863922,2.61721095 L42.5890197,2.6305398 C42.7745243,3.56042302 43.4519052,3.95924309 43.8502408,4.11631442 C43.9745237,4.17145927 44.5079151,4.38263005 45.3947112,4.38263005 C45.5384379,4.38263005 45.6861058,4.37688035 45.8342993,4.3656423 C46.2788798,4.33218951 47.4289558,4.24542131 47.9555156,3.48724503 L47.9555156,3.8594074 L47.9555156,4.38158465 L48.4804989,4.381846 L49.8554926,4.3828914 L50.3815269,4.38315275 L50.3812642,3.8599301 L50.3812642,3.18773795 L50.7667249,3.18773795 C50.8224288,3.62001082 51.041566,4.09148618 51.0449818,4.09854263 L51.191336,4.3844595 L51.5139984,4.3839368 L53.1882694,4.381846 L53.1927363,4.381846 L53.1927363,4.38472085 L53.7182451,4.38472085 L55.0900858,4.38472085 L55.6155946,4.38472085 L55.6155946,4.3823687 L57.5444746,4.3823687 L58.0699834,4.3823687 L58.0699834,4.3802779 L58.567903,4.38001655 L60.224044,4.3787098 C60.2563628,4.38001655 60.3414952,4.3828914 60.462625,4.3828914 C60.8165551,4.3828914 61.496038,4.35754045 62.0861844,4.18792432 C62.2180871,4.15630097 62.8303049,3.98746889 63.2522884,3.51782297 C63.3082551,3.45875788 63.4900812,3.25255275 63.599387,2.96741992 L63.599387,3.8620209 L63.599387,4.38472085 L64.1248958,4.38472085 L65.5004151,4.38472085 L66.0259239,4.38472085 L66.0259239,3.8620209 L66.0259239,1.88856721 L66.153097,1.88908991 L67.1783647,1.89379421 L67.1767881,3.85914605 L67.1765254,4.381846 L67.7020342,4.3823687 L69.0772907,4.3834141 L69.603325,4.3839368 L69.603325,3.86071415 L69.6030622,1.89536231 L70.6359498,1.89562366 L71.1617213,1.89562366 L71.1614586,1.372401 L71.1609331,0.561432023 L71.1606703,0.0389934167 L70.6354243,0.0389934167 L66.1557245,0.0379480168 L65.629953,0.0379480168 L65.629953,0.0384707168 L65.5004151,0.0384707168 L64.1248958,0.0384707168 L63.599387,0.0384707168 L63.599387,0.561170673 L63.599387,1.54253984 C63.5581345,1.43538635 63.5047954,1.32666476 63.4375303,1.21820452 C63.0544344,0.602725319 62.273791,0.197894203 61.239327,0.0784572634 L61.2319698,0.0776732135 L61.2251382,0.0771505135 C61.2072709,0.0753210637 60.7810833,0.0382093668 60.3866889,0.0382093668 C60.344911,0.0382093668 60.3033958,0.0387320667 60.2631944,0.0395161167 C60.1281386,0.0426523164 59.9184606,0.0436977163 59.7014255,0.0436977163 C59.2823322,0.0436977163 58.8367007,0.0397774667 58.8361752,0.0397774667 L58.5692168,0.0389934167 L58.0421314,0.0371639669 Z M25.2461784,2.56232745 C25.1318802,2.51606851 25.1074441,2.47399116 25.0895768,2.44367456 C25.0575207,2.38330272 25.0049698,2.12456624 25.1245231,1.9763808 C25.1439669,1.95233661 25.1828546,1.92776971 25.2361937,1.90424821 L25.2377702,2.00957225 L25.2461784,2.56232745 Z M13.1358281,1.92907646 C13.1473893,1.91888381 13.1770806,1.89562366 13.2348865,1.87157946 C13.36495,1.81721867 13.5186613,1.79291312 13.7328061,1.79291312 C13.7711683,1.79291312 13.8090049,1.79369717 13.8460533,1.79474257 C14.0037059,1.79918552 14.2788098,1.82897942 14.3500162,1.97925565 C14.4398782,2.16795034 14.3789192,2.41884632 14.3487024,2.49019486 C14.3166464,2.53645381 14.2317767,2.6582429 13.7496224,2.6671288 L13.6996991,2.6676515 C13.2212233,2.6676515 13.1308358,2.54481701 13.10167,2.48235436 C13.0945757,2.46013961 13.0874813,2.43557272 13.0838027,2.42093712 C13.0822262,2.40656287 13.0803869,2.39114322 13.0788104,2.37467817 C13.0746063,2.33991862 13.0711905,2.30986338 13.0719788,2.28294433 L13.0722416,2.27118358 L13.0719788,2.25916148 C13.0714533,2.22126573 13.0722416,2.15043989 13.0756574,2.11332819 C13.0793359,2.07072815 13.0916854,2.0155833 13.1008818,1.99127775 L13.1255807,1.94710961 L13.1358281,1.92907646 Z M4.02324281,2.5913373 L5.14651786,1.72287133 L5.20695138,1.67608968 L5.20695138,2.5955189 L4.87877113,2.59421215 L4.02324281,2.5913373 Z M25.8568196,0.036118567 C25.598532,0.036118567 25.3468133,0.0517995657 25.087212,0.0842069629 C24.3021018,0.181690505 23.7737027,0.371691939 23.3201886,0.71902606 C23.0784546,0.904061844 22.8916362,1.13614062 22.7655141,1.39566115 L22.7655141,0.561693373 L22.7655141,0.0389934167 L22.2400053,0.0389934167 L20.9477792,0.0389934167 L20.4217449,0.0389934167 L20.4222704,0.562477423 L20.4233214,1.31934696 L19.5396783,0.23317645 L19.3820257,0.0392547667 L19.131358,0.0392547667 L17.2873476,0.0392547667 L16.7618388,0.0392547667 L16.7618388,0.561954723 L16.7618388,1.60630924 C16.6194259,1.18527442 16.3437966,0.8300998 15.9638537,0.584692171 C15.2704449,0.136999659 14.5155515,0.0682646143 13.862344,0.0392547667 L13.8528849,0.0389934167 L13.8434257,0.0389934167 L13.8011223,0.0387320667 C13.727551,0.0387320667 13.5867147,0.0397774667 13.4634829,0.047095266 C13.4626946,0.047095266 13.415136,0.0494474158 13.3878096,0.0512768657 L13.3707306,0.0523222656 L13.3378863,0.0546744154 L13.2982103,0.0572879152 L13.2464477,0.0614695148 C13.2251646,0.0630376147 13.1494913,0.0706167641 13.1090272,0.0745370137 L13.0937874,0.0761051136 C13.0887951,0.0766278136 12.916691,0.095445012 12.7853138,0.11844381 C12.6799492,0.136999659 12.503641,0.167838956 12.3247053,0.219063552 C12.1418282,0.271594897 11.6728116,0.405928786 11.246624,0.774954955 C10.9975328,0.990830037 10.8109772,1.27491746 10.7021969,1.59062824 L10.7019341,0.561693373 L10.7019341,0.0389934167 L10.1766881,0.0389934167 L8.80195706,0.0389934167 L8.27644826,0.0389934167 L8.27644826,0.561693373 L8.27644826,1.28040581 L7.60458527,1.28040581 L7.60458527,0.561432023 L7.60432251,0.0389934167 L7.07907647,0.0389934167 L5.73272293,0.0387320667 L5.20695138,0.0387320667 L5.20695138,0.0416069165 L4.82043965,0.0413455665 L0.629769744,0.0371639669 L0.103735437,0.0366412669 L0.103735437,0.559602573 L0.103209928,1.3729237 L0.103209928,1.89562366 L0.628718726,1.89588501 L1.43721401,1.89588501 L0.309472131,2.76095344 L0.105049209,2.91776343 L0.105049209,3.17467045 L0.104786454,3.8599301 L0.1045237,4.3828914 L0.630295252,4.3828914 L4.87745736,4.38315275 L5.40322891,4.38315275 L5.40322891,4.38263005 L5.73219742,4.3828914 L7.07907647,4.38315275 L7.60484802,4.3834141 L7.60484802,3.8604528 L7.60484802,3.07535746 L8.30430023,3.07535746 L8.30430023,3.8604528 L8.30430023,4.38315275 L8.82980903,4.38315275 L10.1766881,4.38315275 L10.7021969,4.38315275 L10.7021969,3.8604528 L10.7021969,2.86967503 C10.8679949,3.33487799 11.2369021,3.80426255 11.8945763,4.06979413 C12.4087867,4.27756736 13.0362442,4.3828914 13.7598698,4.3828914 L13.8329155,4.38263005 L13.8702267,4.38263005 C14.2010345,4.38263005 15.3314039,4.33950731 16.0602846,3.7893656 C16.1756338,3.71096061 16.576597,3.40727193 16.7618388,2.85686888 L16.7618388,3.8604528 L16.7618388,4.38315275 L17.2873476,4.38315275 L18.5795738,4.38315275 L19.1048198,4.38315275 L19.1048198,3.8604528 L19.1048198,3.03902981 L20.0431158,4.18949242 L20.2010312,4.38315275 L20.4514361,4.38315275 L22.2400053,4.38315275 L22.7655141,4.38315275 L22.7655141,3.8604528 L22.7655141,3.07248261 C23.0936943,3.73683426 23.8596234,4.19628752 24.8704396,4.32016741 C25.2333034,4.36485825 25.5149761,4.38315275 25.8421054,4.38315275 C26.0841022,4.38315275 26.3400249,4.3734828 26.6944806,4.3604153 C26.8715771,4.35388155 27.0717959,4.34630241 27.3048591,4.33898461 L27.3053846,4.33898461 L27.3103769,4.33898461 L27.3109024,4.33898461 L27.3203616,4.33846191 L27.3232519,4.33846191 L27.3243029,4.33846191 C27.3261422,4.33846191 27.3279815,4.33820056 27.3298208,4.33820056 L27.3321855,4.33820056 C27.3337621,4.33820056 27.3356014,4.33793921 27.3374406,4.33793921 L27.3384917,4.33793921 L27.3468998,4.33767786 L27.3521549,4.33741651 L27.3545197,4.33741651 L27.3550452,4.33741651 L27.3553079,4.33741651 C27.3568845,4.33741651 27.3589865,4.33715516 27.3608258,4.33715516 L27.3658181,4.33715516 C27.3663436,4.33715516 27.3666064,4.33689381 27.3668691,4.33689381 L27.3671319,4.33689381 L27.3692339,4.33689381 L27.3708104,4.33689381 C27.372387,4.33689381 27.3737007,4.33689381 27.3752773,4.33663246 L27.3768538,4.33663246 L27.3773793,4.33663246 L27.3878895,4.33637111 L27.3892033,4.33637111 L27.6356669,4.32853061 L27.702932,4.32617846 L27.866628,4.32095146 L27.865577,4.28671461 C28.0308495,4.26554526 28.1916552,4.23810351 28.2962314,4.20334397 L28.6541029,4.08416838 L28.6548912,3.70886981 L28.6575187,2.28895538 L28.7324037,2.28895538 L28.7402864,1.77409592 C28.7413374,1.72025783 28.7418629,1.53286989 28.7142737,1.39043415 C28.6446438,1.03055523 28.4199888,0.71588986 28.0823494,0.504719078 C27.7497023,0.296945845 27.316683,0.163396006 26.7578044,0.0959677119 C26.5113408,0.0664351644 26.211538,0.036118567 25.8568196,0.036118567 Z M27.2946117,3.81628465 C27.2943489,3.81628465 27.2943489,3.81628465 27.2943489,3.816546 C27.2943489,3.81628465 27.2946117,3.81628465 27.2946117,3.81628465 Z M27.2948744,3.81628465 L27.2946117,3.81628465 L27.2948744,3.81628465 Z M27.2951372,3.81628465 L27.2948744,3.81628465 L27.2951372,3.81628465 Z M27.2953999,3.81628465 L27.2951372,3.81628465 L27.2953999,3.81628465 Z M27.2956627,3.81628465 L27.2953999,3.81628465 L27.2956627,3.81628465 Z M27.2959254,3.81628465 L27.2956627,3.81628465 L27.2959254,3.81628465 Z M27.2961882,3.81628465 L27.2959254,3.81628465 L27.2961882,3.81628465 Z M27.2998668,3.81628465 L27.2961882,3.81628465 L27.2998668,3.81628465 Z M27.301706,3.81628465 L27.2998668,3.81628465 L27.301706,3.81628465 Z M27.3024943,3.8160233 C27.3022315,3.8160233 27.3019688,3.8160233 27.301706,3.81628465 C27.3019688,3.81628465 27.3022315,3.8160233 27.3024943,3.8160233 Z M27.3040708,3.8160233 L27.3024943,3.8160233 L27.3040708,3.8160233 Z M27.3045963,3.8160233 L27.3040708,3.8160233 L27.3045963,3.8160233 Z M27.3059101,3.8160233 L27.3045963,3.8160233 L27.3059101,3.8160233 Z M27.3064356,3.8160233 L27.3059101,3.8160233 L27.3064356,3.8160233 Z M27.3069611,3.8160233 L27.3064356,3.8160233 L27.3069611,3.8160233 Z M27.3093259,3.8160233 L27.3069611,3.8160233 L27.3093259,3.8160233 Z M27.3098514,3.8160233 L27.3093259,3.8160233 L27.3098514,3.8160233 Z M27.3103769,3.81576195 C27.3101142,3.8160233 27.3101142,3.8160233 27.3098514,3.8160233 C27.3101142,3.8160233 27.3101142,3.8160233 27.3103769,3.81576195 Z M27.3109024,3.81576195 L27.3103769,3.81576195 L27.3109024,3.81576195 Z M27.3132672,3.81576195 L27.3109024,3.81576195 L27.3132672,3.81576195 Z M27.3169458,3.81576195 L27.3132672,3.81576195 L27.3169458,3.81576195 Z M27.3177341,3.81576195 L27.3169458,3.81576195 L27.3177341,3.81576195 Z M27.3203616,3.8155006 C27.3195733,3.8155006 27.3185223,3.8155006 27.3177341,3.81576195 C27.3185223,3.8155006 27.3195733,3.8155006 27.3203616,3.8155006 Z M27.3206244,3.8155006 L27.3203616,3.8155006 L27.3206244,3.8155006 Z M27.3253539,3.8155006 L27.3206244,3.8155006 L27.3253539,3.8155006 Z M27.3282442,3.81523925 C27.3271932,3.81523925 27.326405,3.81523925 27.3253539,3.8155006 C27.326405,3.81523925 27.3271932,3.81523925 27.3282442,3.81523925 Z M27.3287697,3.81523925 L27.3282442,3.81523925 L27.3287697,3.81523925 Z M27.329558,3.81523925 L27.3287697,3.81523925 L27.329558,3.81523925 Z M27.3308718,3.81523925 L27.329558,3.81523925 L27.3308718,3.81523925 Z M27.3319228,3.81523925 L27.3308718,3.81523925 L27.3319228,3.81523925 Z M27.3342876,3.8149779 C27.3337621,3.81523925 27.3329738,3.81523925 27.3319228,3.81523925 C27.3327111,3.81523925 27.3337621,3.81523925 27.3342876,3.8149779 Z M27.3358641,3.8149779 L27.3342876,3.8149779 L27.3358641,3.8149779 Z M27.3361269,3.8149779 L27.3358641,3.8149779 L27.3361269,3.8149779 Z M27.3374406,3.8149779 L27.3361269,3.8149779 L27.3374406,3.8149779 Z M27.344535,3.81471655 C27.3421702,3.8149779 27.3398054,3.8149779 27.3374406,3.8149779 C27.3398054,3.8149779 27.3421702,3.8149779 27.344535,3.81471655 Z M27.3463743,3.81471655 L27.344535,3.81471655 L27.3463743,3.81471655 Z M27.3497901,3.81471655 L27.3463743,3.81471655 L27.3497901,3.81471655 Z M27.3503156,3.8144552 C27.3500528,3.8144552 27.3497901,3.81471655 27.3497901,3.81471655 C27.3497901,3.81471655 27.3500528,3.8144552 27.3503156,3.8144552 Z M27.3505784,3.8144552 L27.3503156,3.8144552 L27.3505784,3.8144552 Z M27.3521549,3.8144552 L27.3505784,3.8144552 L27.3521549,3.8144552 Z M27.3529431,3.8144552 L27.3521549,3.8144552 L27.3529431,3.8144552 Z M27.3537314,3.8144552 L27.3529431,3.8144552 L27.3537314,3.8144552 Z M27.3545197,3.8144552 L27.3537314,3.8144552 L27.3545197,3.8144552 Z M27.3553079,3.8144552 L27.3545197,3.8144552 L27.3553079,3.8144552 Z M27.3555707,3.8144552 L27.3553079,3.8144552 L27.3555707,3.8144552 Z M27.3597748,3.81419385 C27.3581982,3.81419385 27.3568845,3.8144552 27.3555707,3.8144552 C27.3568845,3.8144552 27.358461,3.81419385 27.3597748,3.81419385 Z M27.3603003,3.81419385 L27.3597748,3.81419385 L27.3603003,3.81419385 Z M27.3621395,3.81419385 L27.3603003,3.81419385 L27.3621395,3.81419385 Z M27.3626651,3.81419385 L27.3621395,3.81419385 L27.3626651,3.81419385 Z M27.3631906,3.81419385 L27.3626651,3.81419385 L27.3631906,3.81419385 Z M27.3637161,3.81419385 L27.3631906,3.81419385 L27.3637161,3.81419385 Z M27.8503372,3.79851285 C27.8503372,3.79851285 27.5171646,3.8092282 27.3637161,3.81419385 C27.7268427,3.8024331 27.8503372,3.79851285 27.8503372,3.79851285 Z M12.6668115,1.69203203 C12.665235,1.69516823 12.6421126,1.73541612 12.6421126,1.73541612 C12.6594544,1.70509953 12.6660233,1.69360013 12.6668115,1.69203203 Z M26.7401999,1.49471279 C26.7401999,1.49471279 26.7407254,1.49523549 26.7412509,1.49628089 C26.7409881,1.49575819 26.7404626,1.49523549 26.7401999,1.49471279 Z M32.3153227,2.48157031 L33.3807918,2.48052491 L32.869209,1.55403924 L32.3153227,2.48157031 Z M32.1713333,0.621019818 L33.6317223,0.621281168 L35.6147297,3.92004059 L34.197958,3.91951789 L33.8033009,3.29018714 L31.8857193,3.28992579 L31.4918504,3.91977924 L30.1271041,3.91977924 L32.1713333,0.621019818 Z M22.2400053,0.561693373 L22.2400053,3.8604528 L20.4514361,3.8604528 L18.579311,1.56449324 L18.579311,3.8604528 L17.2873476,3.8604528 L17.2873476,0.561954723 L19.131358,0.561954723 L20.9506695,2.79884919 L20.9477792,0.561693373 L22.2400053,0.561693373 Z M41.1556945,0.561693373 L41.1556945,3.8604528 L39.3668625,3.8604528 L37.4947374,1.56449324 L37.4947374,3.8604528 L36.2025113,3.8604528 L36.2027741,0.561693373 L38.0467844,0.561693373 L39.8660959,2.79884919 L39.8632056,0.561693373 L41.1556945,0.561693373 Z M55.0900858,0.561693373 L55.0900858,0.562216073 L57.4609187,0.562216073 L57.4609187,1.3734464 L55.0900858,1.3734464 L55.0900858,1.81695732 L57.2906539,1.81695732 L57.2906539,2.5662477 L55.0900858,2.5662477 L55.0900858,3.11011701 L57.5444746,3.11011701 L57.5444746,3.85966875 L55.0900858,3.85966875 L55.0900858,3.8620209 L53.7182451,3.8620209 L53.7182451,0.561693373 L55.0900858,0.561693373 Z M12.6668115,1.69203203 C12.6670743,1.69203203 12.6670743,1.69177068 12.6670743,1.69177068 C12.6670743,1.69177068 12.6670743,1.69203203 12.6668115,1.69203203 C12.6612937,1.69830443 12.6421126,1.73541612 12.6421126,1.73541612 C12.5864087,1.83289967 12.5596077,1.9857894 12.5522506,2.06706925 C12.5448935,2.14861044 12.5467328,2.26700198 12.5467328,2.26700198 C12.5438425,2.35742907 12.5575057,2.43008437 12.5622353,2.48522921 C12.5667021,2.54037406 12.6092683,2.6666061 12.6092683,2.6666061 C12.7167349,2.92508122 12.9600454,3.19035145 13.6996991,3.19035145 C13.7191429,3.19035145 13.7391122,3.1900901 13.7593443,3.1895674 C14.5455055,3.17519315 14.7144566,2.88117443 14.7917063,2.77193014 C14.8689561,2.66320855 15.0250322,2.17605219 14.8253389,1.75580142 C14.6253828,1.33528931 14.1203689,1.27962176 13.8610303,1.27230396 C13.8189896,1.27099721 13.7761606,1.27021316 13.7328061,1.27021316 C13.5078883,1.27021316 13.2666798,1.29138251 13.0317774,1.38938875 C12.7508929,1.50673489 12.6799492,1.66903323 12.6799492,1.66903323 L12.6773217,1.67373753 L12.6670743,1.69177068 C12.6670743,1.69203203 12.6670743,1.69203203 12.6668115,1.69203203 Z M13.8011223,0.561432023 C13.8245074,0.561432023 13.8389589,0.561693373 13.8389589,0.561693373 C14.5413014,0.59279402 15.1324988,0.670937664 15.6774514,1.02297608 C16.222404,1.37527585 16.3093758,1.91862246 16.3269803,2.031787 C16.3443221,2.14469019 16.3493144,2.21577738 16.3493144,2.23276513 C16.3493144,2.25001423 16.3377532,2.36945117 16.3317099,2.41257392 C16.326192,2.45543531 16.2757432,2.6530159 16.2757432,2.6530159 C16.132542,3.12762746 15.7544385,3.36388784 15.7544385,3.36388784 C15.1401187,3.837454 14.0743868,3.8599301 13.8702267,3.8599301 C13.8436885,3.8599301 13.8063773,3.86019145 13.7598698,3.86019145 C13.4492941,3.86019145 12.7303981,3.8432037 12.0921676,3.58551262 C11.3585574,3.28914174 11.1349534,2.69587729 11.1194509,2.30280693 C11.1039484,1.90973656 11.248726,1.466487 11.5916205,1.16907072 C11.9350405,0.871915797 12.3183992,0.765023656 12.4702712,0.721378209 C12.622406,0.677732763 12.7761173,0.650813715 12.8767523,0.633041917 C12.9771245,0.615531468 13.1176981,0.59932777 13.1460755,0.59619157 C13.1747158,0.59357807 13.2648405,0.584169471 13.2908532,0.582340021 C13.3173914,0.579987871 13.3300036,0.579203821 13.3423531,0.578158421 C13.3547025,0.577113022 13.3704678,0.576328972 13.3765112,0.575806272 C13.3828173,0.575283572 13.4012101,0.573976822 13.4012101,0.573976822 L13.4038376,0.573976822 L13.4211794,0.572670072 C13.4471921,0.571363322 13.4947506,0.569011172 13.4947506,0.569011172 C13.6053702,0.562216073 13.7372729,0.561432023 13.8011223,0.561432023 Z M50.681067,1.91679301 C50.6947302,1.91679301 50.8079773,1.91208871 50.8079773,1.91208871 C50.8108676,1.91235006 50.8140207,1.91235006 50.8171737,1.91235006 C51.1492953,1.91235006 51.4257129,1.71189463 51.2990653,1.54332389 C51.1713667,1.37318505 50.7845922,1.3729237 50.729151,1.3729237 C50.6734471,1.3729237 49.8523396,1.37423045 49.8523396,1.37423045 L49.8539161,1.91522491 L49.967426,1.91600896 C49.967426,1.91600896 50.6676665,1.91679301 50.681067,1.91679301 Z M50.7696152,0.561432023 C51.1382596,0.561432023 51.6903066,0.609259069 52.0444995,0.71876471 C52.415246,0.833236 52.5873501,1.06087183 52.6785259,1.22761312 C52.7694389,1.39461575 52.7523599,1.56031164 52.7523599,1.56031164 C52.7121585,2.09581774 52.0804969,2.26151363 52.0804969,2.26151363 C52.0804969,2.26151363 52.0804969,2.26125228 52.0802341,2.26125228 L52.0799714,2.26125228 L52.0799714,2.26099093 L52.0797086,2.26099093 C52.0797086,2.26099093 52.0794459,2.26099093 52.0794459,2.26072958 C52.0794459,2.26072958 52.0791831,2.26072958 52.0789204,2.26072958 L52.0789204,2.26046823 C51.9399233,2.19565344 51.8934158,2.17396139 51.8934158,2.17396139 C51.8934158,2.17396139 52.060002,2.25184368 52.0789204,2.26046823 L52.0789204,2.26072958 C52.0791831,2.26072958 52.0794459,2.26072958 52.0794459,2.26072958 C52.0794459,2.26099093 52.0797086,2.26099093 52.0797086,2.26099093 L52.0799714,2.26099093 L52.0799714,2.26125228 L52.0802341,2.26125228 C52.0804969,2.26125228 52.0804969,2.26125228 52.0804969,2.26151363 C52.5016922,2.45831016 52.6015389,2.78473629 52.6601331,3.15402381 C52.7189901,3.52357267 52.8453749,3.61060222 52.8963493,3.65215686 C52.9470609,3.69371151 53.1877439,3.85914605 53.1877439,3.85914605 L51.5132101,3.86123685 C51.2854021,3.41589648 51.2701623,2.95069352 51.2701623,2.95069352 L51.2701623,2.95095487 C51.2701623,2.95121622 51.2701623,2.95173892 51.2704251,2.95200027 L51.2704251,2.95252297 L51.2704251,2.95278432 C51.2704251,2.95304567 51.2706878,2.95330702 51.2706878,2.95356837 L51.2706878,2.95382972 C51.2706878,2.95409107 51.2706878,2.95435242 51.2709506,2.95461377 L51.2709506,2.95487512 L51.2709506,2.95513647 L51.2709506,2.95539782 L51.2709506,2.95565917 L51.2709506,2.95592052 C51.2890806,3.05706296 51.2953867,3.09129981 51.2953867,3.09129981 C51.2953867,3.09129981 51.2756802,2.98127147 51.2709506,2.95592052 L51.2709506,2.95565917 L51.2709506,2.95539782 L51.2709506,2.95513647 L51.2709506,2.95487512 L51.2709506,2.95461377 C51.2706878,2.95435242 51.2706878,2.95409107 51.2706878,2.95382972 L51.2706878,2.95356837 C51.2706878,2.95330702 51.2704251,2.95304567 51.2704251,2.95278432 L51.2704251,2.95252297 L51.2704251,2.95200027 C51.2701623,2.95173892 51.2701623,2.95147757 51.2701623,2.95095487 L51.2701623,2.95069352 C51.2226038,2.68594599 51.0024156,2.66425395 50.9312091,2.66425395 C50.9172832,2.66425395 50.9091378,2.665038 50.9091378,2.665038 L49.8554926,2.66529935 L49.8557554,3.86019145 L48.4810244,3.85914605 L48.4802361,0.563261473 L50.7210056,0.561693373 C50.7370336,0.561693373 50.7527989,0.561432023 50.7696152,0.561432023 Z M5.73246017,0.561432023 L7.07907647,0.561693373 L7.07933922,1.80310577 L8.80195706,1.80310577 L8.80195706,0.561693373 L10.1764253,0.561693373 L10.1766881,3.8604528 L8.82980903,3.8604528 L8.82980903,2.55265751 L7.07933922,2.55239616 L7.07933922,3.8604528 L5.73246017,3.86019145 L5.73246017,0.561432023 Z M64.1248958,3.8620209 L65.5004151,3.8620209 L65.5004151,0.561170673 L64.1248958,0.561170673 L64.1248958,3.8620209 Z M60.4150664,1.37370775 C60.4045562,1.37370775 60.3948343,1.37370775 60.3861634,1.3734464 L59.9494656,1.3734464 L59.9124173,1.37423045 L59.9197744,3.10985566 L60.5955787,3.10985566 C60.5955787,3.10985566 61.0083659,3.10645811 61.3194671,2.98205552 C61.6310938,2.85791428 61.7724556,2.581406 61.7761342,2.37781437 C61.77955,2.17422274 61.8229045,1.79239042 61.4250943,1.56579999 C61.1129421,1.38834335 60.7495528,1.3729237 60.5301528,1.3729237 C60.4852218,1.3729237 60.4463342,1.37370775 60.4150664,1.37370775 Z M60.3866889,0.560909323 C60.7624277,0.560909323 61.178368,0.59775967 61.178368,0.59775967 C61.988177,0.691061612 62.6797466,0.993443537 62.990585,1.49314469 C63.3011607,1.99284585 63.2021023,2.50143291 63.1227505,2.74135219 C63.0433987,2.98101012 62.8655139,3.1639551 62.8655139,3.1639551 C62.5171016,3.55624142 61.9521797,3.68247346 61.9521797,3.68247346 C61.422204,3.83719265 60.792119,3.86019145 60.462625,3.86019145 C60.3215259,3.86019145 60.2353424,3.85600985 60.2353424,3.85600985 L58.5673775,3.8573166 L58.5676402,0.561693373 L58.8317084,0.562477423 C58.8317084,0.562477423 59.2802302,0.566397672 59.7014255,0.566397672 C59.9231902,0.566397672 60.137335,0.565352273 60.2750183,0.561954723 C60.3115412,0.561432023 60.3488523,0.560909323 60.3866889,0.560909323 Z M66.1554618,0.560647973 L70.6354243,0.561693373 L70.6359498,1.3729237 L69.0772907,1.37266235 L69.0778162,3.86071415 L67.7022969,3.85966875 L67.7041362,1.3734464 L66.1554618,1.36638996 L66.1554618,0.560647973 Z M45.4262417,0.560647973 C45.6288254,0.560647973 45.8321973,0.572931422 46.027161,0.59775967 C46.7951921,0.694459162 47.1149643,0.850485099 47.4074099,1.11627803 C47.7001183,1.3818096 47.7001183,1.82688862 47.7001183,1.82688862 L46.2699461,1.82793402 L46.264691,1.82793402 L46.26364,1.81669597 L46.2533926,1.72470078 C46.2491885,1.64890928 46.2160815,1.58357179 46.2160815,1.58357179 C46.1125562,1.39618385 45.8852737,1.32405126 45.5817923,1.28406471 C45.5000757,1.27334936 45.430183,1.26942911 45.3710633,1.26942911 C45.2097321,1.26942911 45.130643,1.29870031 45.130643,1.29870031 C44.5672976,1.4225802 44.5247314,2.0192422 44.5105426,2.12352084 C44.4960912,2.22779948 44.4989815,2.63393735 44.7034044,2.89528733 C44.8854932,3.12841151 45.1503496,3.1812042 45.3750046,3.1812042 C45.4020683,3.1812042 45.4288693,3.18042015 45.4546192,3.1791134 C45.6932002,3.16682995 45.8421819,3.13964956 46.0497579,3.04112061 C46.2573339,2.94285302 46.2560201,2.70032024 46.2560201,2.70032024 L46.2649538,2.62400605 L47.698279,2.62400605 C47.6588659,3.46816648 46.919475,3.75983305 45.7946234,3.84451045 C45.6529988,3.8552258 45.5197823,3.8599301 45.3947112,3.8599301 C44.5249941,3.8599301 44.055452,3.63490776 44.055452,3.63490776 C43.2230461,3.31370864 43.1260897,2.6268809 43.100077,2.50718261 C43.0743271,2.38722297 43.0695975,2.23250378 43.0695975,2.23250378 C43.1019163,1.62983073 43.3260458,1.20618242 43.8473505,0.898312145 C44.2364898,0.668585514 44.8305775,0.560647973 45.4262417,0.560647973 Z M0.629244235,0.559863923 L4.81991415,0.564045523 L4.82411822,1.31019971 L2.49769077,3.10881026 L4.87693185,3.11691211 L4.87745736,3.8604528 L0.630295252,3.86019145 L0.630558007,3.1749318 L2.97879407,1.3734464 L0.628718726,1.37318505 L0.629244235,0.559863923 Z M25.8568196,0.558818523 C26.179482,0.558818523 26.4564251,0.586260271 26.6947434,0.615008768 C27.0912398,0.662574464 27.4945678,0.754831007 27.8027787,0.94718459 C28.1109896,1.13979952 28.1787802,1.3891274 28.1984868,1.48948579 C28.2176679,1.58984419 28.2150403,1.76599407 28.2150403,1.76599407 L26.7835544,1.76547137 C26.7835544,1.76547137 26.7853936,1.62826263 26.7843426,1.62852398 C26.7840799,1.62852398 26.7835544,1.63584178 26.7830289,1.65465898 C26.7859192,1.56527729 26.7480825,1.50621219 26.7412509,1.49628089 C26.7599065,1.52267724 26.7662126,1.53156314 26.7662126,1.53156314 C26.7662126,1.53156314 26.7459805,1.50307599 26.7412509,1.49628089 C26.7404626,1.49523549 26.7401999,1.49471279 26.7401999,1.49471279 C26.6816057,1.41134215 26.5652055,1.36848076 26.5652055,1.36848076 C26.3347698,1.28746226 26.2386017,1.28693956 25.9926636,1.27047451 C25.9648117,1.26864506 25.9298653,1.26759966 25.8899267,1.26759966 C25.5819785,1.26759966 24.9681842,1.33502796 24.714889,1.64943198 C24.4287494,2.0040839 24.5199252,2.50770531 24.6350116,2.70580859 C24.7500981,2.90338918 24.9264063,3.03197337 25.2900584,3.12292316 C25.5044659,3.17676125 25.7393684,3.18773795 25.8967583,3.18773795 C26.0063268,3.18773795 26.0780588,3.18251095 26.0780588,3.18251095 C26.0843649,3.18251095 26.0911965,3.1827723 26.0985536,3.1827723 C26.2777521,3.1827723 26.7838171,3.14174036 26.7838171,3.14174036 L26.7861819,2.73690924 L25.7745775,2.74030679 L25.763279,2.00173175 L28.1325354,1.99807285 L28.1293824,3.70782441 C27.9320538,3.77342325 27.2883056,3.816546 27.2883056,3.816546 L27.2943489,3.816546 L27.2883056,3.816546 C26.6001518,3.83876075 26.1941962,3.8604528 25.8421054,3.8604528 C25.5465067,3.8604528 25.2887446,3.84503315 24.9348144,3.8013877 C24.1586379,3.70625631 23.3866655,3.35761544 23.1714696,2.67888955 C22.956011,2.00016365 23.2445154,1.4366931 23.640749,1.13326577 C24.0372454,0.8295771 24.5096778,0.682698413 25.1523751,0.602986669 C25.4085606,0.570840622 25.6426748,0.558818523 25.8568196,0.558818523 Z" id="Fill-11" fill="#FEFEFE" mask="url(#mask-2)"></path>
                    </g>
                </g>
            </g>
        </g>
    </g>
</svg>