<?xml version="1.0" encoding="UTF-8"?>
<svg width="171px" height="155px" viewBox="0 0 171 155" version="1.1" xmlns="http://www.w3.org/2000/svg" xmlns:xlink="http://www.w3.org/1999/xlink">
    <!-- Generator: Sketch 52.6 (67491) - http://www.bohemiancoding.com/sketch -->
    <title>banner_element@2x</title>
    <desc>Created with Sketch.</desc>
    <defs>
        <linearGradient x1="69.7599782%" y1="32.1640071%" x2="14.3003666%" y2="88.5578613%" id="linearGradient-1">
            <stop stop-color="#FED250" stop-opacity="0" offset="0%"></stop>
            <stop stop-color="#FFAD2A" offset="100%"></stop>
        </linearGradient>
        <linearGradient x1="69.7599782%" y1="32.1640071%" x2="14.3003666%" y2="88.5578613%" id="linearGradient-2">
            <stop stop-color="#FED250" stop-opacity="0" offset="0%"></stop>
            <stop stop-color="#E20909" offset="100%"></stop>
        </linearGradient>
        <linearGradient x1="77.116932%" y1="6.66829776%" x2="7.15694707%" y2="87.684451%" id="linearGradient-3">
            <stop stop-color="#F4CC8A" stop-opacity="0" offset="0%"></stop>
            <stop stop-color="#FF4746" offset="100%"></stop>
        </linearGradient>
        <linearGradient x1="71.099381%" y1="4.10592073%" x2="32.912575%" y2="64.8425754%" id="linearGradient-4">
            <stop stop-color="#F4E7E7" stop-opacity="0" offset="0%"></stop>
            <stop stop-color="#FFFFFF" offset="100%"></stop>
        </linearGradient>
    </defs>
    <g id="Page-1" stroke="none" stroke-width="1" fill="none" fill-rule="evenodd">
        <g id="banner_element">
            <path d="M15.9905864,113.287949 L119.768257,51.2803828 C124.791882,48.2787466 130.999562,48.237773 136.060714,51.1728449 L172.345597,72.2152389 C176.867983,74.8378688 178.453545,80.7102331 175.887049,85.3315317 C175.123988,86.7055186 174.041565,87.8663515 172.735381,88.7115056 L76.8497415,150.753391 C68.2862072,156.294343 57.3722685,156.327601 48.7765473,150.838937 L15.7537241,129.752727 C11.343962,126.936942 10.0029313,121.001291 12.7584481,116.495079 C13.5659696,115.174506 14.6750994,114.073958 15.9905864,113.287949 Z" id="Path-12-Copy-2" fill="url(#linearGradient-1)" opacity="0.382246377"></path>
            <path d="M8.54106942,99.1346978 L125.159336,31.2587332 C130.123149,28.3696184 136.256917,28.3301808 141.257808,31.1552266 L183.637049,55.0956183 C188.10559,57.6199345 189.672273,63.2721633 187.136335,67.7202247 C186.382359,69.0427054 185.312825,70.1600225 184.022192,70.9734945 L75.4468287,139.407407 C66.9852554,144.740648 56.2012625,144.772659 47.7078856,139.489747 L8.3070273,114.982266 C3.94976967,112.272035 2.6247058,106.558892 5.34741432,102.221603 C6.14532109,100.950534 7.24124516,99.8912416 8.54106942,99.1346978 Z" id="Path-12-Copy" fill="url(#linearGradient-2)" opacity="0.382246377"></path>
            <path d="M4.39862414,87.3388847 L122.493214,18.2871887 C126.675808,15.8415623 131.844228,15.8081785 136.058066,18.1995706 L180.961655,43.6827759 C184.726924,45.8196014 186.047039,50.6041949 183.910214,54.3694644 C183.274901,55.4889401 182.373692,56.4347454 181.286183,57.1233469 L70.3136014,127.390229 C63.183733,131.9048 54.0969537,131.931898 46.940287,127.459929 L4.2014162,100.7538 C0.529915383,98.4595983 -0.586606403,93.6234412 1.70759499,89.9519403 C2.37992507,88.8759841 3.30336969,87.9792966 4.39862414,87.3388847 Z" id="Path-12" fill="url(#linearGradient-3)"></path>
            <path d="M9.67853609,87.6469755 L122.704587,21.5589309 C124.795884,20.3361177 127.380094,20.3194258 129.487013,21.5151218 L175.620064,47.6960584 C177.628208,48.8356987 178.332269,51.3874818 177.192629,53.3956256 C176.847588,54.0036178 176.355596,54.5153829 175.761664,54.8841014 L69.2171709,121.027941 C64.3824458,124.029385 58.2461021,123.955635 53.4849086,120.838864 L9.56632893,92.0888889 C8.35891197,91.2984897 8.02085223,89.6789398 8.81125135,88.4715229 C9.03266933,88.1332838 9.32954912,87.8510334 9.67853609,87.6469755 Z" id="Path-12" fill-opacity="0.869999945" fill="url(#linearGradient-4)"></path>
            <path d="M24.368349,110.669675 L33.2525298,110.669675 C33.6854649,110.669675 34.0364281,111.020638 34.0364281,111.453573 L34.0364281,111.453573 C34.0364281,111.886508 33.6854649,112.237471 33.2525298,112.237471 L24.368349,112.237471 C23.9354139,112.237471 23.5844507,111.886508 23.5844507,111.453573 L23.5844507,111.453573 C23.5844507,111.020638 23.9354139,110.669675 24.368349,110.669675 Z" id="Rectangle-10" fill="#1F0909" transform="translate(28.810439, 111.453573) rotate(34.000000) translate(-28.810439, -111.453573) "></path>
            <circle id="Oval-17" fill="#1F0909" cx="38.6723164" cy="117.288136" r="1"></circle>
            <circle id="Oval-17-Copy-4" fill="#1F0909" cx="13.5875706" cy="102.132768" r="1"></circle>
            <circle id="Oval-17-Copy" fill="#1F0909" cx="40.240113" cy="118.333333" r="1"></circle>
            <circle id="Oval-17-Copy-5" fill="#1F0909" cx="15.1553672" cy="103.177966" r="1"></circle>
            <circle id="Oval-17-Copy-2" fill="#1F0909" cx="41.8079096" cy="119.378531" r="1"></circle>
            <circle id="Oval-17-Copy-6" fill="#1F0909" cx="16.7231638" cy="104.223164" r="1"></circle>
            <circle id="Oval-17-Copy-3" fill="#1F0909" cx="43.3757062" cy="120.423729" r="1"></circle>
            <circle id="Oval-17-Copy-7" fill="#1F0909" cx="18.2909605" cy="105.268362" r="1"></circle>
            <g id="Page-1" transform="translate(83.389831, 0.000000)">
                <path d="M2.85122933,5.56794078 C2.85122933,5.56794078 1.05479571,6.09372623 0.309932996,6.75095804 C-0.438434959,7.41134456 0.681137522,8.37914031 0.835718444,8.5035762 C1.10982792,8.72475661 1.41338139,9.13521979 1.18624208,9.68659346 C0.959102763,10.2379671 -0.960715172,11.1325034 0.616641174,11.9211816 C2.19399752,12.7098598 5.30489476,8.10923712 5.30489476,8.10923712 L2.85122933,5.56794078 Z" id="Fill-1" fill="#FFC5AE"></path>
                <path d="M51.4425679,42.066214 C51.4425679,42.066214 52.9322933,43.6435703 52.6694006,45.1332958 C52.4065079,46.6230212 52.0475717,47.4849588 52.4023016,48.0615702 C52.7570315,48.6385321 54.3126554,47.0043909 54.5425989,46.5508134 C54.7725424,46.0972358 55.3551126,46.3692421 55.0638275,47.7233149 C54.7725424,49.0766866 56.1746369,49.1643176 56.7004224,48.9014248 C57.2262078,48.6385321 58.4067714,44.3284935 54.7935738,42.0585025 C51.1796751,39.7878104 51.4425679,42.066214 51.4425679,42.066214" id="Fill-3" fill="#FFC5AE"></path>
                <g id="Group-7" transform="translate(2.103142, 0.251325)" fill="#FF9924">
                    <path d="M28.6308053,7.12023469 C28.6308053,7.12023469 25.2408913,2.76042175 16.0687394,0.949616663 C6.89693804,-0.861538945 0.231731173,4.93507036 0.231731173,4.93507036 C0.231731173,4.93507036 2.84453433,6.22149209 2.21254022,9.63208704 C2.21254022,9.63208704 9.15360919,4.36687156 12.7282492,5.37497752 C16.3025387,6.38273296 20.178629,10.0260756 20.2557442,10.1908217 C20.3335604,10.3552173 13.7871811,18.5855122 13.7871811,18.5855122 L25.1241669,28.6995211 C25.1241669,28.6995211 33.9454447,23.9089146 35.2893523,24.0841764 C36.6329093,24.2594382 44.5196911,34.3660861 45.8050612,36.411041 C47.0900809,38.4556453 48.7259747,42.4281297 48.7259747,42.4281297 L54.1177292,41.677308 C54.1177292,41.677308 48.8879166,27.1260205 42.9651188,21.3111839 C37.0419704,15.4963474 35.7632602,13.9547445 35.7632602,13.9547445 L28.6308053,7.12023469 Z" id="Fill-5"></path>
                </g>
                <path d="M30.3358574,6.91149786 C30.3358574,6.91149786 27.4317692,12.4031516 29.3596491,14.7691861 C31.2875291,17.1352206 34.8803963,17.0037743 35.4938127,16.6532507 C36.1072291,16.302727 39.681168,12.7291386 39.8876264,12.8945857 C40.000495,12.9850208 37.1027162,8.02335883 34.4860573,6.37835142 C32.3061508,5.00815454 30.3358574,6.91149786 30.3358574,6.91149786" id="Fill-8" fill="#FFC5AE"></path>
                <polygon id="Fill-10" fill="#FFC5AE" points="15.6511606 53.7984853 12.0137769 57.5480366 13.1477208 61.7830632 18.155652 56.3310186"></polygon>
                <path d="M39.2327782,13.3670916 L39.5247644,13.7761527 C39.5247644,13.7761527 38.7799016,15.0173569 38.1226698,15.0906163 C37.465438,15.1635252 36.6427591,15.3279208 36.6427591,15.3279208 L38.6922707,13.001846 L39.2327782,13.3670916 Z" id="Fill-12" fill="#FFC5AE"></path>
                <path d="M12.5344447,24.2771397 C12.5344447,24.2771397 12.1502708,27.0942981 16.5924568,30.2865168 C21.0346428,33.478385 23.3207579,41.7787846 23.7112412,43.1055166 C24.1017245,44.4322485 15.0266677,53.6618863 15.0266677,53.6618863 L19.2364565,57.7840442 C19.2364565,57.7840442 30.6670322,49.8625606 31.108692,48.9000227 C31.5503517,47.9374848 27.6945918,26.4679124 27.6945918,26.4679124 L12.5344447,24.2771397 Z" id="Fill-14" fill="#1F0909"></path>
                <path d="M29.5933783,7.16001912 C29.5933783,7.16001912 29.9698407,4.16093892 31.4336274,3.13390468 C32.6895535,2.25268827 37.3266307,1.80051278 38.5899178,2.48613701 C39.6916136,3.08413032 42.5196383,6.13543854 42.3580469,8.06542166 C42.2118785,9.81418406 40.7225036,12.8265842 40.0214564,12.8265842 C39.5429916,12.8265842 37.7051962,14.1722444 36.9396526,14.5648309 C36.5835206,14.7474537 36.7132143,14.107047 36.7934842,14.0828609 C37.0465623,14.0060962 37.8860664,13.0141143 38.0059455,12.8703996 C38.2250227,12.6075069 39.141642,11.8233855 38.2103007,10.4899936 C37.6284315,9.65644843 36.271204,10.8433214 33.8872928,9.43842273 C33.2395251,9.05670249 32.8381756,7.48565557 32.3681234,6.75095804 C31.7999246,5.86273116 30.7087445,6.81790805 29.5933783,7.16001912" id="Fill-16" fill="#262626"></path>
                <path d="M17.292172,39.5601803 L15.163442,45.2207865 L18.5810474,45.5713101 C18.5810474,45.5713101 20.6295075,40.2107522 20.4815866,39.9117555 C20.3336656,39.6124084 17.292172,39.5601803 17.292172,39.5601803" id="Fill-18" fill="#FFC5AE"></path>
                <path d="M15.890428,18.8368376 C15.890428,18.8368376 12.0087293,20.7720786 12.5345148,24.2773149 C13.0603002,27.7825512 21.1013124,29.7907011 20.7718201,29.885693 C20.4419774,29.9803344 15.8389011,40.7470183 15.8389011,40.7470183 C15.8389011,40.7470183 17.8800002,39.934154 19.6326183,40.6352013 C21.3852365,41.3362485 21.6772227,42.0372958 21.6772227,42.0372958 C21.6772227,42.0372958 29.0967564,27.3443967 29.0967564,26.6433494 C29.0967564,25.9423022 21.8756191,19.7937671 15.890428,18.8368376" id="Fill-20" fill="#351414"></path>
                <path d="M14.8453769,43.8270344 L13.1607603,46.4892614 C13.1607603,46.4892614 20.5964181,53.6336341 21.5603581,54.1594195 C22.5242981,54.685205 24.1016544,53.1954795 24.1016544,53.1954795 C24.1016544,53.1954795 19.9461968,46.3599182 20.2711322,45.5277751 C20.5964181,44.6952815 20.9770868,44.0902777 20.1295206,43.8231787 C19.2819545,43.5560796 17.331641,44.5364942 14.8453769,43.8270344" id="Fill-22" fill="#551D1D"></path>
                <path d="M12.1534605,56.9761223 C12.1534605,56.9761223 14.9590517,61.7832034 15.4848371,63.0685735 C16.0106226,64.3535932 17.470904,68.7351386 17.003656,69.4361858 C16.536408,70.1372331 13.8258088,71.0636671 12.3185572,68.1760534 C10.810955,65.2884397 9.61847363,59.2261335 9.13404997,58.9271368 C8.64962631,58.6284907 10.224529,56.5505866 12.1534605,56.9761223" id="Fill-24" fill="#551D1D"></path>
            </g>
            <g id="Group-21" transform="translate(44.428456, 64.768736)">
                <g id="Page-1-Copy" transform="translate(19.558578, 25.522717) rotate(47.000000) translate(-19.558578, -25.522717) translate(7.971854, 11.209706)" fill="#1F0909" fill-opacity="0.159999996">
                    <polygon id="Fill-1" points="4.92457287 5.74704944 0.896746456 27.3830962 6.7981062 25.2922322 9.48190646 9.91921725 14.0029181 8.50897762 14.8497365 2.67339378"></polygon>
                    <polygon id="Fill-2" points="16.177372 2.33854152 14.2556479 15.6365977 9.50433658 17.1801584 8.15273977 24.9865285 18.7052753 21.6695272 21.9817314 0.540169258"></polygon>
                </g>
                <path d="M28.816952,13.2908209 L28.816952,17.0962968 L23.7455081,20.9954576 L19.5617146,18.5039432 L7.30498264,26.882464 L1.35552435,23.5601996 L1.35552435,19.8823876 L6.35900319,19.019138 C11.7778459,15.5994151 14.4872672,13.8895536 14.4872672,13.8895536 C14.4872672,13.8895536 16.238321,13.1401117 19.7404286,11.6412279 L24.2781203,12.785569 L28.816952,13.2908209 Z" id="Path-26" fill="#E27201"></path>
                <polygon id="Path-13" fill="#CE0000" points="35.3432173 16.9676159 35.3432173 20.6798527 17.6521944 33.021748 7.972988 27.0838829 7.972988 23.5304287 20.4765432 22.9276362"></polygon>
                <g id="Page-1-Copy" transform="translate(18.166075, 18.173425) rotate(47.000000) translate(-18.166075, -18.173425) translate(6.989604, 4.202837)">
                    <polygon id="Fill-1" fill="#FF8000" points="4.92457287 5.74704944 0.896746456 27.3830962 6.7981062 25.2922322 9.48190646 9.91921725 14.0029181 8.50897762 14.8497365 2.67339378"></polygon>
                    <polygon id="Fill-2" fill="#FB0000" points="16.177372 2.33854152 14.2556479 15.6365977 9.50433658 17.1801584 8.15273977 24.9865285 18.7052753 21.6695272 21.9817314 0.540169258"></polygon>
                </g>
            </g>
        </g>
    </g>
</svg>