<?xml version="1.0" encoding="UTF-8"?>
<svg width="48px" height="40px" viewBox="0 0 48 40" version="1.1" xmlns="http://www.w3.org/2000/svg" xmlns:xlink="http://www.w3.org/1999/xlink">
    <!-- Generator: Sketch 52.6 (67491) - http://www.bohemiancoding.com/sketch -->
    <title>uploaddata_icon13</title>
    <desc>Created with Sketch.</desc>
    <defs>
        <polygon id="path-1" points="0 1.79036458e-05 27.4731338 1.79036458e-05 27.4731338 27.4731266 0 27.4731266"></polygon>
    </defs>
    <g id="uploaddata_icon13" stroke="none" stroke-width="1" fill="none" fill-rule="evenodd">
        <g id="uploaddata_icon9" transform="translate(2.000000, 1.000000)">
            <polygon id="Rectangle-2-Copy-5" points="0 0 44 0 44 36.6666667 0 36.6666667"></polygon>
            <g id="Page-1" transform="translate(8.250000, 4.583333)">
                <mask id="mask-2" fill="white">
                    <use xlink:href="#path-1"></use>
                </mask>
                <g id="Clip-2"></g>
            </g>
            <g id="分组" transform="translate(7.333333, 3.666667)" fill="#C00000">
                <path d="M21.0260794,6.79470602 L19.6627963,6.24727635 C19.4353949,6.15596277 19.2863757,5.935539 19.2863757,5.6904889 L19.2863757,3.69211174 C19.2863757,3.47119784 19.4654618,3.29211174 19.6863757,3.29211174 C19.7329967,3.29211174 19.7792588,3.30026197 19.8230729,3.31619437 L21.1801781,3.80968718 C21.4172916,3.89591028 21.5751323,4.12125937 21.5751323,4.37356324 L21.5751323,6.42351439 C21.5751323,6.64442829 21.3960462,6.82351439 21.1751323,6.82351439 C21.1240645,6.82351439 21.0734692,6.81373551 21.0260794,6.79470602 Z M21.026576,12.8889108 L19.9058616,12.4406251 C19.7520266,12.3790911 19.5774355,12.4539158 19.5159014,12.6077509 C19.501727,12.643187 19.4944444,12.6810023 19.4944444,12.7191681 L19.4944444,16.9922238 C19.4944444,17.1026808 19.5839875,17.1922238 19.6944444,17.1922238 C19.7159409,17.1922238 19.7372967,17.1887582 19.75769,17.1819605 L20.1186508,17.0616402 L20.1186508,13.9794326 C20.1186508,13.8137472 20.2529654,13.6794326 20.4186508,13.6794326 C20.4592788,13.6794326 20.4994835,13.6876849 20.5368266,13.7036891 L21.2720919,14.0188028 C21.4559338,14.0975922 21.5751323,14.2783613 21.5751323,14.4783753 L21.5751323,18.7622852 C21.5751323,18.9868891 21.4253641,19.1839303 21.2089542,19.2440442 L18.4637161,20.0066103 C18.197648,20.0805181 17.922043,19.9247414 17.8481352,19.6586733 C17.8360305,19.6150963 17.8298942,19.5700784 17.8298942,19.5248514 L17.8298942,12.1984371 C17.8298942,11.9939848 17.7054187,11.8101304 17.5155895,11.7341988 L16.063511,11.1533674 C15.8736818,11.0774357 15.7492063,10.8935813 15.7492063,10.689129 L15.7492063,6.18545911 C15.7492063,5.96454521 15.9282924,5.78545911 16.1492063,5.78545911 C16.1950553,5.78545911 16.240563,5.79334166 16.2837409,5.80876234 L21.2433005,7.58003362 C21.442297,7.65110379 21.5751323,7.83959776 21.5751323,8.05090457 L21.5751323,12.5175201 C21.5751323,12.738434 21.3960462,12.9175201 21.1751323,12.9175201 C21.1242445,12.9175201 21.0738241,12.9078101 21.026576,12.8889108 Z M17.0718705,20.0885652 L16.0676287,20.4233125 C15.8580513,20.4931716 15.6315234,20.3799076 15.5616642,20.1703303 C15.5480687,20.1295437 15.5411376,20.086832 15.5411376,20.0438392 L15.5411376,12.414891 C15.5411376,12.1939771 15.7202237,12.014891 15.9411376,12.014891 C15.9841304,12.014891 16.0268421,12.0218221 16.0676287,12.0354177 L17.0718705,12.3701649 C17.2760416,12.438222 17.4137566,12.6292914 17.4137566,12.8445066 L17.4137566,19.6142236 C17.4137566,19.8294388 17.2760416,20.0205082 17.0718705,20.0885652 Z M16.4073202,2.30005913 L17.8357684,2.77620852 C18.0807737,2.85787694 18.2460317,3.08716025 18.2460317,3.34541849 L18.2460317,5.27095557 C18.2460317,5.49186947 18.0669456,5.67095557 17.8460317,5.67095557 C17.8030389,5.67095557 17.7603272,5.66402442 17.7195406,5.65042889 L16.1594697,5.13040524 C15.9144644,5.04873681 15.7492063,4.81945351 15.7492063,4.56119526 L15.7492063,2.77440077 C15.7492063,2.4982584 15.973064,2.27440077 16.2492063,2.27440077 C16.3029474,2.27440077 16.356337,2.28306471 16.4073202,2.30005913 Z M12.4201058,6.16444241 L12.4201058,7.7164346 C12.4201058,7.88212003 12.5544204,8.0164346 12.7201058,8.0164346 C12.7481092,8.0164346 12.7759746,8.01251376 12.8028906,8.00478625 L13.9904139,7.66385216 C14.2027502,7.6028911 14.4243014,7.72560496 14.4852625,7.93794125 C14.4955659,7.97382931 14.5007937,8.01098322 14.5007937,8.04832102 L14.5007937,9.82335504 C14.5007937,10.0441592 14.3559596,10.2388206 14.1444676,10.3022682 L12.7051667,10.7340585 C12.5359731,10.7848165 12.4201058,10.9405457 12.4201058,11.117189 L12.4201058,20.182672 L10.5474868,19.5584656 L10.5474868,11.9813953 C10.5474868,11.7604814 10.3684007,11.5813953 10.1474868,11.5813953 C10.1085569,11.5813953 10.0698356,11.5870784 10.0325476,11.5982648 L8.85300331,11.9521281 C8.69430545,11.9997375 8.52706041,11.9096824 8.47945106,11.7509846 C8.47106125,11.7230186 8.46679894,11.6939776 8.46679894,11.6647802 L8.46679894,9.52704178 C8.46679894,9.30623767 8.61163302,9.11157623 8.823125,9.04812864 L10.1911607,8.63771792 C10.4026527,8.57427033 10.5474868,8.37960889 10.5474868,8.15880478 L10.5474868,6.85334147 C10.5474868,6.68765605 10.4131722,6.55334147 10.2474868,6.55334147 C10.2182894,6.55334147 10.1892484,6.55760378 10.1612824,6.56599358 L9.11047288,6.88123644 C8.84597646,6.96058537 8.56723473,6.81049367 8.4878858,6.54599724 C8.4739028,6.49938723 8.46679894,6.45098558 8.46679894,6.4023233 L8.46679894,4.30978487 C8.46679894,4.0964653 8.60213704,3.90663857 8.8038036,3.83709838 L13.8377983,2.10123813 C14.0988558,2.01121829 14.3834603,2.14987174 14.4734801,2.41092928 C14.4915631,2.46336981 14.5007937,2.51845389 14.5007937,2.57392462 L14.5007937,4.65513431 C14.5007937,4.85958661 14.3763182,5.04344098 14.186489,5.11937266 L12.7344105,5.70020406 C12.5445813,5.77613574 12.4201058,5.95999011 12.4201058,6.16444241 Z M13.8252319,20.3454739 L13.2255693,20.1206004 C12.9913871,20.0327821 12.8362434,19.8089096 12.8362434,19.5588029 L12.8362434,11.7902833 C12.8362434,11.581861 12.9655298,11.3953007 13.1606817,11.3221187 L13.9603443,11.0222452 C14.1671924,10.9446772 14.3977573,11.0494794 14.4753253,11.2563275 C14.4921669,11.3012384 14.5007937,11.3488121 14.5007937,11.3967769 L14.5007937,19.8773093 C14.5007937,20.1534517 14.276936,20.3773093 14.0007937,20.3773093 C13.9408377,20.3773093 13.8813705,20.3665258 13.8252319,20.3454739 Z M9.66385627,19.0970612 L9.06419366,18.8721877 C8.83001143,18.7843694 8.67486772,18.5604969 8.67486772,18.3103902 L8.67486772,13.3853649 C8.67486772,13.0935737 8.85586871,12.8323892 9.12908132,12.7299345 L9.79896861,12.4787267 C10.0058167,12.4011587 10.2363816,12.5059609 10.3139497,12.712809 C10.3307912,12.7577198 10.339418,12.8052936 10.339418,12.8532584 L10.339418,18.6288966 C10.339418,18.905039 10.1155604,19.1288966 9.83941799,19.1288966 C9.77946201,19.1288966 9.7199948,19.1181131 9.66385627,19.0970612 Z M22.5775473,2.67527339 L15.7765007,0.23387204 C15.3544486,0.0823661703 14.8937258,0.0770914093 14.4683156,0.218894785 L7.69408969,2.4769701 C7.28574756,2.61308415 7.01031746,2.99522299 7.01031746,3.4256534 L7.01031746,4.78558201 C3.05701058,7.28240741 0.560185185,10.8195767 0.560185185,14.9809524 C0.560185185,19.9746032 3.88928571,23.9279101 8.67486772,25.8005291 L8.67486772,29.1296296 L10.5474868,29.1296296 L10.5474868,24.7601852 C5.76190476,23.3037037 2.43280423,19.5584656 2.43280423,14.9809524 C2.43280423,11.6518519 4.30542328,8.94695767 7.01031746,6.86626984 L7.01031746,9.15502646 C5.3457672,10.8195767 4.30542328,12.6921958 4.30542328,14.9809524 C4.30542328,18.4489394 6.76203735,21.627913 10.2301259,23.0727336 C10.5686342,23.2137577 11.0506996,23.3671779 11.6763219,23.5329943 L11.6763169,23.5330133 C12.1147836,23.6492256 12.4201058,24.0460131 12.4201058,24.4996191 L12.4201058,29.1296296 L17.8298942,29.1296296 L17.8298559,24.7003084 C17.8298559,24.2499898 18.1308363,23.8552158 18.5650796,23.7359694 C18.8961888,23.6450444 19.1604954,23.5647089 19.3579992,23.4949629 C23.3094749,22.0995491 25.9445767,18.8913259 25.9445767,15.1890212 C25.9445767,12.9002646 24.9042328,10.8195767 23.2396825,9.15502646 L23.2396825,6.86626984 C25.9445767,8.94695767 27.8171958,11.8599206 27.8171958,14.9809524 C27.8171958,19.5584656 24.2800265,23.3037037 19.7025132,24.7601852 L19.7025132,29.1296296 L21.5751323,29.1296296 L21.5751323,26.0085979 C26.3607143,23.9279101 29.6898148,19.7665344 29.6898148,15.1890212 C29.6898148,10.8195767 27.1929894,7.07433862 23.2396825,4.99365079 L23.2396825,3.61646806 C23.2396825,3.19444984 22.9747486,2.81785847 22.5775473,2.67527339 Z" id="Fill-1"></path>
                <path d="M19.3324071,10.6739862 L17.3435723,9.96633065 C17.1442884,9.89542263 17.0111853,9.70678482 17.0111853,9.49526177 L17.0111853,7.9229827 C17.0111853,7.75729728 17.1454998,7.6229827 17.3111853,7.6229827 C17.3409655,7.6229827 17.3705797,7.62741687 17.3990538,7.63613934 L19.3794225,8.2427846 C19.5895186,8.30714321 19.7329749,8.50112433 19.7329749,8.72085687 L19.7329749,10.3913449 C19.7329749,10.5570303 19.5986603,10.6913449 19.4329749,10.6913449 C19.3987069,10.6913449 19.3646923,10.6854737 19.3324071,10.6739862 Z M14.0949821,29.1296296 L16.0391175,29.1296296 L16.0391175,23.8324958 L14.0949821,23.8324958 L14.0949821,29.1296296 Z" id="Fill-3"></path>
            </g>
        </g>
    </g>
</svg>