<?xml version="1.0" encoding="UTF-8"?>
<svg width="48px" height="40px" viewBox="0 0 48 40" version="1.1" xmlns="http://www.w3.org/2000/svg" xmlns:xlink="http://www.w3.org/1999/xlink">
    <!-- Generator: Sketch 52.6 (67491) - http://www.bohemiancoding.com/sketch -->
    <title>uploaddata_icon8</title>
    <desc>Created with Sketch.</desc>
    <g id="uploaddata_icon8" stroke="none" stroke-width="1" fill="none" fill-rule="evenodd">
        <g transform="translate(2.000000, 2.000000)">
            <polygon id="Rectangle-2-Copy-4" points="0 0 44 0 44 36.6666667 0 36.6666667"></polygon>
            <g id="Group-8" transform="translate(11.083333, 6.416667)">
                <path d="M5,0 L20.466667,0 C21.0189517,-1.01453063e-16 21.466667,0.44771525 21.466667,1 L21.466667,25.3 L16.1000003,22.3666667 L10.7333335,25.3 L5.36666675,22.3666667 L0,25.3 L0,5 C-3.38176876e-16,2.23857625 2.23857625,5.07265313e-16 5,0 Z" id="Rectangle-62" fill="#C00000"></path>
                <circle id="Oval-30" fill="#C00000" cx="20.2333333" cy="2.93333333" r="2.93333333"></circle>
                <path d="M2.66666667,12.8333333 L18.8,12.8333333" id="Path-68" stroke="#FFFFFF" stroke-width="2"></path>
                <path d="M6.79166667,8.25 L14.6750003,8.25" id="Path-68-Copy-3" stroke="#FFFFFF" stroke-width="2"></path>
                <path d="M2.66666667,17.4166667 L18.8,17.4166667" id="Path-68-Copy" stroke="#FFFFFF" stroke-width="2"></path>
            </g>
        </g>
    </g>
</svg>