<?xml version="1.0" encoding="UTF-8"?>
<svg width="48px" height="40px" viewBox="0 0 48 40" version="1.1" xmlns="http://www.w3.org/2000/svg" xmlns:xlink="http://www.w3.org/1999/xlink">
    <!-- Generator: Sketch 52.6 (67491) - http://www.bohemiancoding.com/sketch -->
    <title>uploaddata_icon9</title>
    <desc>Created with Sketch.</desc>
    <defs>
        <polygon id="path-1" points="0 1.87174479e-05 28.7219126 1.87174479e-05 28.7219126 28.7219051 0 28.7219051"></polygon>
    </defs>
    <g id="uploaddata_icon9" stroke="none" stroke-width="1" fill="none" fill-rule="evenodd">
        <g transform="translate(1.000000, 0.500000)">
            <polygon id="Rectangle-2-Copy-5" points="0 0 46 0 46 38.3333333 0 38.3333333"></polygon>
            <g id="Page-1" transform="translate(8.625000, 4.791667)">
                <mask id="mask-2" fill="white">
                    <use xlink:href="#path-1"></use>
                </mask>
                <g id="Clip-2"></g>
                <path d="M23.6733302,18.944397 C23.6733302,18.944397 23.4593898,21.977784 20.4981024,21.9062834 C17.5380877,21.8345955 17.536216,21.9062834 17.536216,21.9062834 L16.6794435,21.9068823 C16.6794435,21.9068823 16.1810728,21.2105184 16.6980112,20.1755184 C16.6980112,20.1755184 17.7853826,19.9965047 17.9636476,20.6041105 L19.2127378,20.6041105 C19.2127378,20.6041105 20.4252541,20.3722013 20.5140122,18.4638452 L18.8018149,19.7480868 L18.1777004,18.4811401 C18.1777004,18.4811401 15.9115789,20.3001017 14.0567922,20.1760799 L11.5409051,20.1760799 C11.5409051,20.1760799 9.89964697,19.7480868 9.8107391,17.5885425 L9.8107391,15.9115715 L12.3804201,15.9115715 C12.3804201,15.9115715 12.1120868,18.5526408 13.6287616,18.4274585 L13.6638755,15.0375789 L9.8107391,15.0375789 L9.8107391,14.1808065 L13.6638755,14.1808065 L13.646618,12.4858667 L13.0934425,12.4678979 L11.5228989,14.0203605 L10.4880487,13.0927238 L12.4327541,11.1665487 L12.3791099,10.2918075 L9.93472347,12.5395109 L8.45443538,11.0592228 C8.45443538,11.0592228 10.4157993,9.79231364 11.0592303,6.81316976 L13.2525409,7.36630778 L12.8966099,8.52592855 C12.8966099,8.52592855 22.4581561,5.0293221 23.6708595,11.1294132 L23.6708595,18.9430868 L23.6727313,18.944397 L23.6733302,18.944397 Z M8.93742041,16.3760262 L6.43938981,21.5139657 L3.76365576,19.801731 L7.29612484,15.9479582 C7.79449561,15.3051636 7.29612484,14.5213892 7.29612484,14.5213892 L4.69132992,12.2730868 L5.8336932,10.7026929 C5.8336932,10.7026929 7.08267106,11.6661174 8.45634456,13.0217847 C9.82926937,14.3774894 8.93742041,16.3760262 8.93742041,16.3760262 Z M7.18939795,6.81376872 C8.13534033,6.81376872 8.90234391,7.58058512 8.90234391,8.52663981 C8.90234391,9.47261963 8.13534033,10.239436 7.18939795,10.239436 C6.24341813,10.239436 5.47660173,9.47261963 5.47660173,8.52663981 C5.47660173,7.58058512 6.24341813,6.81376872 7.18939795,6.81376872 Z M14.3596405,1.87174479e-05 C6.42973161,1.87174479e-05 -1.12304688e-05,6.43043538 -1.12304688e-05,14.3615422 C-1.12304688e-05,22.29205 6.42973161,28.7219051 14.3603517,28.7219051 C22.2920575,28.7219051 28.7219126,22.29205 28.7219126,14.3615422 C28.7219126,6.43043538 22.2920575,1.87174479e-05 14.3603517,1.87174479e-05 L14.3596405,1.87174479e-05 Z M13.7361248,9.90285889 L14.5921486,10.6866707 L14.164118,11.1504517 L19.6944126,11.1504517 L19.7122316,12.4346558 L16.2699806,12.4519132 L16.2699806,14.111215 L19.6765562,14.1648966 L19.6765562,15.003064 L16.2872381,15.003064 L16.2699806,17.9994653 C17.4110337,18.0351408 17.7853826,17.553466 17.7853826,17.553466 L17.3930275,16.7683439 L19.4439357,15.5734969 L20.5320184,17.9987166 L20.5320184,10.7026929 C19.2305568,7.34848877 13.7342157,9.89963949 13.7342157,9.89963949 L13.7355259,9.90214762 L13.7361248,9.90285889 Z" id="Fill-1" fill="#C00000" mask="url(#mask-2)"></path>
            </g>
        </g>
    </g>
</svg>